999
dxfrw 0.6.3
  0
SECTION
  2
HEADER
  9
$ACADVER
  1
AC1021
  9
$DWGCODEPAGE
  3
ANSI_1252
  9
$INSBASE
 10
0
 20
0
 30
0
  9
$EXTMIN
 10
-100
 20
-162.6666666666667
 30
0
  9
$EXTMAX
 10
566.15
 20
188
 30
0
  9
$LIMMIN
 10
0
 20
0
  9
$LIMMAX
 10
420
 20
297
  9
$ORTHOMODE
 70
    0
  9
$REGENMODE
 70
    1
  9
$FILLMODE
 70
    1
  9
$QTEXTMODE
 70
    0
  9
$MIRRTEXT
 70
    0
  9
$LTSCALE
 40
1
  9
$ATTMODE
 70
    0
  9
$TEXTSIZE
 40
2.5
  9
$TRACEWID
 40
15.68
  9
$TEXTSTYLE
  7
STANDARD
  9
$CLAYER
  8
frame_spec
  9
$CELTYPE
  6
BYLAYER
  9
$CECOLOR
 62
  256
  9
$CELTSCALE
 40
1
  9
$DISPSILH
 70
    0
  9
$DIMSCALE
 40
2.5
  9
$DIMASZ
 40
2.5
  9
$DIMEXO
 40
0.625
  9
$DIMDLI
 40
3.75
  9
$DIMRND
 40
0
  9
$DIMDLE
 40
0
  9
$DIMEXE
 40
1.25
  9
$DIMTP
 40
0
  9
$DIMTM
 40
0
  9
$DIMTXT
 40
2.5
  9
$DIMCEN
 40
2.5
  9
$DIMTSZ
 40
0
  9
$DIMTOL
 70
    0
  9
$DIMLIM
 70
    0
  9
$DIMTIH
 70
    0
  9
$DIMTOH
 70
    0
  9
$DIMSE1
 70
    0
  9
$DIMSE2
 70
    0
  9
$DIMTAD
 70
    1
  9
$DIMZIN
 70
    8
  9
$DIMBLK
  1

  9
$DIMASO
 70
    1
  9
$DIMSHO
 70
    1
  9
$DIMPOST
  1

  9
$DIMAPOST
  1

  9
$DIMALT
 70
    0
  9
$DIMALTD
 70
    3
  9
$DIMALTF
 40
0.03937
  9
$DIMLFAC
 40
1
  9
$DIMTOFL
 70
    1
  9
$DIMTVP
 40
0
  9
$DIMTIX
 70
    0
  9
$DIMSOXD
 70
    0
  9
$DIMSAH
 70
    0
  9
$DIMBLK1
  1

  9
$DIMBLK2
  1

  9
$DIMSTYLE
  2
STANDARD
  9
$DIMCLRD
 70
    0
  9
$DIMCLRE
 70
    0
  9
$DIMCLRT
 70
    0
  9
$DIMTFAC
 40
1
  9
$DIMGAP
 40
0.625
  9
$DIMJUST
 70
    0
  9
$DIMSD1
 70
    0
  9
$DIMSD2
 70
    0
  9
$DIMTOLJ
 70
    0
  9
$DIMTZIN
 70
    8
  9
$DIMALTZ
 70
    0
  9
$DIMALTTZ
 70
    0
  9
$DIMUPT
 70
    0
  9
$DIMDEC
 70
    2
  9
$DIMTDEC
 70
    2
  9
$DIMALTU
 70
    2
  9
$DIMALTTD
 70
    3
  9
$DIMTXSTY
  7
STANDARD
  9
$DIMAUNIT
 70
    0
  9
$DIMADEC
 70
    0
  9
$DIMALTRND
 40
0
  9
$DIMAZIN
 70
    0
  9
$DIMDSEP
 70
   44
  9
$DIMATFIT
 70
    3
  9
$DIMFRAC
 70
    0
  9
$DIMLDRBLK
  1
STANDARD
  9
$DIMLUNIT
 70
    2
  9
$DIMLWD
 70
   -2
  9
$DIMLWE
 70
   -2
  9
$DIMTMOVE
 70
    0
  9
$DIMFXL
 40
1
  9
$DIMFXLON
 70
    0
  9
$DIMJOGANG
 40
0.7854
  9
$DIMTFILL
 70
    0
  9
$DIMTFILLCLR
 70
    0
  9
$DIMARCSYM
 70
    0
  9
$DIMLTYPE
  6

  9
$DIMLTEX1
  6

  9
$DIMLTEX2
  6

  9
$LUNITS
 70
    2
  9
$LUPREC
 70
    4
  9
$SKETCHINC
 40
1
  9
$FILLETRAD
 40
0
  9
$AUNITS
 70
    0
  9
$AUPREC
 70
    2
  9
$MENU
  1
.
  9
$ELEVATION
 40
0
  9
$PELEVATION
 40
0
  9
$THICKNESS
 40
0
  9
$LIMCHECK
 70
    0
  9
$CHAMFERA
 40
0
  9
$CHAMFERB
 40
0
  9
$CHAMFERC
 40
0
  9
$CHAMFERD
 40
0
  9
$SKPOLY
 70
    0
  9
$USRTIMER
 70
    1
  9
$ANGBASE
 50
0
  9
$ANGDIR
 70
    0
  9
$PDMODE
 70
   34
  9
$PDSIZE
 40
0
  9
$PLINEWID
 40
0
  9
$SPLFRAME
 70
    0
  9
$SPLINETYPE
 70
    2
  9
$SPLINESEGS
 70
    8
  9
$HANDSEED
  5
20000
  9
$SURFTAB1
 70
    6
  9
$SURFTAB2
 70
    6
  9
$SURFTYPE
 70
    6
  9
$SURFU
 70
    6
  9
$SURFV
 70
    6
  9
$UCSBASE
  2

  9
$UCSNAME
  2

  9
$UCSORG
 10
0
 20
0
 30
0
  9
$UCSXDIR
 10
1
 20
0
 30
0
  9
$UCSYDIR
 10
0
 20
1
 30
0
  9
$UCSORTHOREF
  2

  9
$UCSORTHOVIEW
 70
    0
  9
$UCSORGTOP
 10
0
 20
0
 30
0
  9
$UCSORGBOTTOM
 10
0
 20
0
 30
0
  9
$UCSORGLEFT
 10
0
 20
0
 30
0
  9
$UCSORGRIGHT
 10
0
 20
0
 30
0
  9
$UCSORGFRONT
 10
0
 20
0
 30
0
  9
$UCSORGBACK
 10
0
 20
0
 30
0
  9
$PUCSBASE
  2

  9
$PUCSNAME
  2

  9
$PUCSORG
 10
0
 20
0
 30
0
  9
$PUCSXDIR
 10
1
 20
0
 30
0
  9
$PUCSYDIR
 10
0
 20
1
 30
0
  9
$PUCSORTHOREF
  2

  9
$PUCSORTHOVIEW
 70
    0
  9
$PUCSORGTOP
 10
0
 20
0
 30
0
  9
$PUCSORGBOTTOM
 10
0
 20
0
 30
0
  9
$PUCSORGLEFT
 10
0
 20
0
 30
0
  9
$PUCSORGRIGHT
 10
0
 20
0
 30
0
  9
$PUCSORGFRONT
 10
0
 20
0
 30
0
  9
$PUCSORGBACK
 10
0
 20
0
 30
0
  9
$USERI1
 70
    0
  9
$USERI2
 70
    0
  9
$USERI3
 70
    0
  9
$USERI4
 70
    0
  9
$USERI5
 70
    0
  9
$USERR1
 40
0
  9
$USERR2
 40
0
  9
$USERR3
 40
0
  9
$USERR4
 40
0
  9
$USERR5
 40
0
  9
$WORLDVIEW
 70
    1
  9
$SHADEDGE
 70
    3
  9
$SHADEDIF
 70
   70
  9
$TILEMODE
 70
    1
  9
$MAXACTVP
 70
   64
  9
$PINSBASE
 10
0
 20
0
 30
0
  9
$PLIMCHECK
 70
    0
  9
$PEXTMIN
 10
0
 20
0
 30
0
  9
$PEXTMAX
 10
0
 20
0
 30
0
  9
$GRIDMODE
 70
    1
  9
$SNAPSTYLE
 70
    0
  9
$PLIMMIN
 10
0
 20
0
  9
$PLIMMAX
 10
210
 20
297
  9
$UNITMODE
 70
    0
  9
$VISRETAIN
 70
    1
  9
$PLINEGEN
 70
    0
  9
$PSLTSCALE
 70
    1
  9
$TREEDEPTH
 70
 3020
  9
$CMLSTYLE
  2
Standard
  9
$CMLJUST
 70
    0
  9
$CMLSCALE
 40
20
  9
$PROXYGRAPHICS
 70
    1
  9
$MEASUREMENT
 70
    1
  9
$CELWEIGHT
370
   -1
  9
$ENDCAPS
280
    0
  9
$JOINSTYLE
280
    0
  9
$LWDISPLAY
290
    0
  9
$INSUNITS
 70
    4
  9
$HYPERLINKBASE
  1

  9
$STYLESHEET
  1

  9
$XEDIT
290
    1
  9
$CEPSNTYPE
380
    0
  9
$PSTYLEMODE
290
    1
  9
$EXTNAMES
290
    1
  9
$PSVPSCALE
 40
1
  9
$OLESTARTUP
290
    0
  9
$SORTENTS
280
  127
  9
$INDEXCTL
280
    0
  9
$HIDETEXT
280
    1
  9
$XCLIPFRAME
290
    0
  9
$HALOGAP
280
    0
  9
$OBSCOLOR
 70
  257
  9
$OBSLTYPE
280
    0
  9
$INTERSECTIONDISPLAY
280
    0
  9
$INTERSECTIONCOLOR
 70
  257
  9
$DIMASSOC
280
    1
  9
$PROJECTNAME
  1

  9
$CAMERADISPLAY
290
    0
  9
$LENSLENGTH
 40
50
  9
$CAMERAHEIGHT
 40
0
  9
$STEPSPERSEC
 40
2
  9
$STEPSIZE
 40
50
  9
$3DDWFPREC
 40
2
  9
$PSOLWIDTH
 40
5
  9
$PSOLHEIGHT
 40
80
  9
$LOFTANG1
 40
1.570796326794897
  9
$LOFTANG2
 40
1.570796326794897
  9
$LOFTMAG1
 40
0
  9
$LOFTMAG2
 40
0
  9
$LOFTPARAM
 70
    7
  9
$LOFTNORMALS
280
    1
  9
$LATITUDE
 40
1
  9
$LONGITUDE
 40
1
  9
$NORTHDIRECTION
 40
0
  9
$TIMEZONE
 70
-8000
  9
$LIGHTGLYPHDISPLAY
280
    1
  9
$TILEMODELIGHTSYNCH
280
    1
  9
$SOLIDHIST
280
    1
  9
$SHOWHIST
280
    1
  9
$DWFFRAME
280
    2
  9
$DGNFRAME
280
    0
  9
$REALWORLDSCALE
290
    1
  9
$INTERFERECOLOR
 62
    1
  9
$CSHADOW
280
    0
  9
$SHADOWPLANELOCATION
 40
0
  0
ENDSEC
  0
SECTION
  2
CLASSES
  0
ENDSEC
  0
SECTION
  2
TABLES
  0
TABLE
  2
VPORT
  5
8
330
0
100
AcDbSymbolTable
 70
    1
  0
VPORT
  5
31
330
2
100
AcDbSymbolTableRecord
100
AcDbViewportTableRecord
  2
*ACTIVE
 70
    0
 10
0
 20
0
 11
1
 21
1
 12
201.0458087917343
 22
86.64671843605829
 13
0
 23
0
 14
10
 24
10
 15
10
 25
10
 16
0
 26
0
 36
1
 17
0
 27
0
 37
0
 40
282.6081232119847
 41
1.575712143928036
 42
50
 43
0
 44
0
 50
0
 51
0
 71
    0
 72
  100
 73
    1
 74
    3
 75
    0
 76
    1
 77
    0
 78
    0
281
    0
 65
    1
110
0
120
0
130
0
111
1
121
0
131
0
112
0
122
1
132
0
 79
    0
146
0
348
10020
 60
    7
 61
    5
292
1
282
    1
141
0
142
0
 63
  250
421
3358443
  0
ENDTAB
  0
TABLE
  2
LTYPE
  5
5
330
0
100
AcDbSymbolTable
 70
    4
  0
LTYPE
  5
14
330
5
100
AcDbSymbolTableRecord
100
AcDbLinetypeTableRecord
  2
ByBlock
 70
    0
  3

 72
   65
 73
    0
 40
0
  0
LTYPE
  5
15
330
5
100
AcDbSymbolTableRecord
100
AcDbLinetypeTableRecord
  2
ByLayer
 70
    0
  3

 72
   65
 73
    0
 40
0
  0
LTYPE
  5
16
330
5
100
AcDbSymbolTableRecord
100
AcDbLinetypeTableRecord
  2
Continuous
 70
    0
  3
Solid line
 72
   65
 73
    0
 40
0
  0
LTYPE
  5
32
330
5
100
AcDbSymbolTableRecord
100
AcDbLinetypeTableRecord
  2
DOT
 70
    0
  3
Dot . . . . . . . . . . . . . . . . . . . . . .
 72
   65
 73
    2
 40
6.35
 49
0
 74
    0
 49
-6.35
 74
    0
  0
LTYPE
  5
33
330
5
100
AcDbSymbolTableRecord
100
AcDbLinetypeTableRecord
  2
DOTTINY
 70
    0
  3
Dot (.15x) .....................................
 72
   65
 73
    2
 40
0.9525
 49
0
 74
    0
 49
-0.9525
 74
    0
  0
LTYPE
  5
34
330
5
100
AcDbSymbolTableRecord
100
AcDbLinetypeTableRecord
  2
DOT2
 70
    0
  3
Dot (.5x) .....................................
 72
   65
 73
    2
 40
3.175
 49
0
 74
    0
 49
-3.175
 74
    0
  0
LTYPE
  5
35
330
5
100
AcDbSymbolTableRecord
100
AcDbLinetypeTableRecord
  2
DOTX2
 70
    0
  3
Dot (2x) .  .  .  .  .  .  .  .  .  .  .  .  .
 72
   65
 73
    2
 40
12.7
 49
0
 74
    0
 49
-12.7
 74
    0
  0
LTYPE
  5
36
330
5
100
AcDbSymbolTableRecord
100
AcDbLinetypeTableRecord
  2
DASHED
 70
    0
  3
Dashed _ _ _ _ _ _ _ _ _ _ _ _ _ _ _ _ _
 72
   65
 73
    2
 40
19.05
 49
12.7
 74
    0
 49
-6.35
 74
    0
  0
LTYPE
  5
37
330
5
100
AcDbSymbolTableRecord
100
AcDbLinetypeTableRecord
  2
DASHEDTINY
 70
    0
  3
Dashed (.15x) _ _ _ _ _ _ _ _ _ _ _ _ _ _ _ _ _
 72
   65
 73
    2
 40
2.8575
 49
1.905
 74
    0
 49
-0.9525
 74
    0
  0
LTYPE
  5
38
330
5
100
AcDbSymbolTableRecord
100
AcDbLinetypeTableRecord
  2
DASHED2
 70
    0
  3
Dashed (.5x) _ _ _ _ _ _ _ _ _ _ _ _ _ _ _ _ _
 72
   65
 73
    2
 40
9.524999999999999
 49
6.35
 74
    0
 49
-3.175
 74
    0
  0
LTYPE
  5
39
330
5
100
AcDbSymbolTableRecord
100
AcDbLinetypeTableRecord
  2
DASHEDX2
 70
    0
  3
Dashed (2x) ____  ____  ____  ____  ____  ___
 72
   65
 73
    2
 40
38.09999999999999
 49
25.4
 74
    0
 49
-12.7
 74
    0
  0
LTYPE
  5
3A
330
5
100
AcDbSymbolTableRecord
100
AcDbLinetypeTableRecord
  2
DASHDOT
 70
    0
  3
Dash dot __ . __ . __ . __ . __ . __ . __ . __
 72
   65
 73
    4
 40
25.4
 49
12.7
 74
    0
 49
-6.35
 74
    0
 49
0
 74
    0
 49
-6.35
 74
    0
  0
LTYPE
  5
3B
330
5
100
AcDbSymbolTableRecord
100
AcDbLinetypeTableRecord
  2
DASHDOTTINY
 70
    0
  3
Dash dot (.15x) _._._._._._._._._._._._._._._.
 72
   65
 73
    4
 40
3.81
 49
1.905
 74
    0
 49
-0.9525
 74
    0
 49
0
 74
    0
 49
-0.9525
 74
    0
  0
LTYPE
  5
3C
330
5
100
AcDbSymbolTableRecord
100
AcDbLinetypeTableRecord
  2
DASHDOT2
 70
    0
  3
Dash dot (.5x) _._._._._._._._._._._._._._._.
 72
   65
 73
    4
 40
12.7
 49
6.35
 74
    0
 49
-3.175
 74
    0
 49
0
 74
    0
 49
-3.175
 74
    0
  0
LTYPE
  5
3D
330
5
100
AcDbSymbolTableRecord
100
AcDbLinetypeTableRecord
  2
DASHDOTX2
 70
    0
  3
Dash dot (2x) ____  .  ____  .  ____  .  ___
 72
   65
 73
    4
 40
50.8
 49
25.4
 74
    0
 49
-12.7
 74
    0
 49
0
 74
    0
 49
-12.7
 74
    0
  0
LTYPE
  5
3E
330
5
100
AcDbSymbolTableRecord
100
AcDbLinetypeTableRecord
  2
DIVIDE
 70
    0
  3
Divide ____ . . ____ . . ____ . . ____ . . ____
 72
   65
 73
    6
 40
31.75
 49
12.7
 74
    0
 49
-6.35
 74
    0
 49
0
 74
    0
 49
-6.35
 74
    0
 49
0
 74
    0
 49
-6.35
 74
    0
  0
LTYPE
  5
3F
330
5
100
AcDbSymbolTableRecord
100
AcDbLinetypeTableRecord
  2
DIVIDETINY
 70
    0
  3
Divide (.15x) __..__..__..__..__..__..__..__.._
 72
   65
 73
    6
 40
4.7625
 49
1.905
 74
    0
 49
-0.9525
 74
    0
 49
0
 74
    0
 49
-0.9525
 74
    0
 49
0
 74
    0
 49
-0.9525
 74
    0
  0
LTYPE
  5
40
330
5
100
AcDbSymbolTableRecord
100
AcDbLinetypeTableRecord
  2
DIVIDE2
 70
    0
  3
Divide (.5x) __..__..__..__..__..__..__..__.._
 72
   65
 73
    6
 40
15.875
 49
6.35
 74
    0
 49
-3.175
 74
    0
 49
0
 74
    0
 49
-3.175
 74
    0
 49
0
 74
    0
 49
-3.175
 74
    0
  0
LTYPE
  5
41
330
5
100
AcDbSymbolTableRecord
100
AcDbLinetypeTableRecord
  2
DIVIDEX2
 70
    0
  3
Divide (2x) ________  .  .  ________  .  .  _
 72
   65
 73
    6
 40
63.5
 49
25.4
 74
    0
 49
-12.7
 74
    0
 49
0
 74
    0
 49
-12.7
 74
    0
 49
0
 74
    0
 49
-12.7
 74
    0
  0
LTYPE
  5
42
330
5
100
AcDbSymbolTableRecord
100
AcDbLinetypeTableRecord
  2
BORDER
 70
    0
  3
Border __ __ . __ __ . __ __ . __ __ . __ __ .
 72
   65
 73
    6
 40
44.45
 49
12.7
 74
    0
 49
-6.35
 74
    0
 49
12.7
 74
    0
 49
-6.35
 74
    0
 49
0
 74
    0
 49
-6.35
 74
    0
  0
LTYPE
  5
43
330
5
100
AcDbSymbolTableRecord
100
AcDbLinetypeTableRecord
  2
BORDERTINY
 70
    0
  3
Border (.15x) __.__.__.__.__.__.__.__.__.__.__.
 72
   65
 73
    6
 40
6.6675
 49
1.905
 74
    0
 49
-0.9525
 74
    0
 49
1.905
 74
    0
 49
-0.9525
 74
    0
 49
0
 74
    0
 49
-0.9525
 74
    0
  0
LTYPE
  5
44
330
5
100
AcDbSymbolTableRecord
100
AcDbLinetypeTableRecord
  2
BORDER2
 70
    0
  3
Border (.5x) __.__.__.__.__.__.__.__.__.__.__.
 72
   65
 73
    6
 40
22.225
 49
6.35
 74
    0
 49
-3.175
 74
    0
 49
6.35
 74
    0
 49
-3.175
 74
    0
 49
0
 74
    0
 49
-3.175
 74
    0
  0
LTYPE
  5
45
330
5
100
AcDbSymbolTableRecord
100
AcDbLinetypeTableRecord
  2
BORDERX2
 70
    0
  3
Border (2x) ____  ____  .  ____  ____  .  ___
 72
   65
 73
    6
 40
88.89999999999999
 49
25.4
 74
    0
 49
-12.7
 74
    0
 49
25.4
 74
    0
 49
-12.7
 74
    0
 49
0
 74
    0
 49
-12.7
 74
    0
  0
LTYPE
  5
46
330
5
100
AcDbSymbolTableRecord
100
AcDbLinetypeTableRecord
  2
CENTER
 70
    0
  3
Center ____ _ ____ _ ____ _ ____ _ ____ _ ____
 72
   65
 73
    4
 40
50.8
 49
31.75
 74
    0
 49
-6.35
 74
    0
 49
6.35
 74
    0
 49
-6.35
 74
    0
  0
LTYPE
  5
47
330
5
100
AcDbSymbolTableRecord
100
AcDbLinetypeTableRecord
  2
CENTERTINY
 70
    0
  3
Center (.15x) ___ _ ___ _ ___ _ ___ _ ___ _ ___
 72
   65
 73
    4
 40
7.619999999999999
 49
4.7625
 74
    0
 49
-0.9525
 74
    0
 49
0.9525
 74
    0
 49
-0.9525
 74
    0
  0
LTYPE
  5
48
330
5
100
AcDbSymbolTableRecord
100
AcDbLinetypeTableRecord
  2
CENTER2
 70
    0
  3
Center (.5x) ___ _ ___ _ ___ _ ___ _ ___ _ ___
 72
   65
 73
    4
 40
28.575
 49
19.05
 74
    0
 49
-3.175
 74
    0
 49
3.175
 74
    0
 49
-3.175
 74
    0
  0
LTYPE
  5
49
330
5
100
AcDbSymbolTableRecord
100
AcDbLinetypeTableRecord
  2
CENTERX2
 70
    0
  3
Center (2x) ________  __  ________  __  _____
 72
   65
 73
    4
 40
101.6
 49
63.5
 74
    0
 49
-12.7
 74
    0
 49
12.7
 74
    0
 49
-12.7
 74
    0
  0
ENDTAB
  0
TABLE
  2
LAYER
  5
2
330
0
100
AcDbSymbolTable
 70
    1
  0
LAYER
  5
10
330
2
100
AcDbSymbolTableRecord
100
AcDbLayerTableRecord
  2
0
 70
    0
 62
    7
  6
CONTINUOUS
370
   25
390
F
  0
LAYER
  5
4A
330
2
100
AcDbSymbolTableRecord
100
AcDbLayerTableRecord
  2
card_back
 70
    0
 62
    7
  6
CONTINUOUS
370
   25
390
F
  0
LAYER
  5
4B
330
2
100
AcDbSymbolTableRecord
100
AcDbLayerTableRecord
  2
card_front
 70
    0
 62
    7
  6
CONTINUOUS
370
   25
390
F
  0
LAYER
  5
4C
330
2
100
AcDbSymbolTableRecord
100
AcDbLayerTableRecord
  2
frame_+1
 70
    0
 62
   56
420
8421376
  6
CONTINUOUS
370
   25
390
F
  0
LAYER
  5
4D
330
2
100
AcDbSymbolTableRecord
100
AcDbLayerTableRecord
  2
frame_+2
 70
    0
 62
    9
  6
CONTINUOUS
370
   25
390
F
  0
LAYER
  5
4E
330
2
100
AcDbSymbolTableRecord
100
AcDbLayerTableRecord
  2
frame_+3
 70
    0
 62
    2
  6
CONTINUOUS
370
   25
390
F
  0
LAYER
  5
4F
330
2
100
AcDbSymbolTableRecord
100
AcDbLayerTableRecord
  2
frame_spec
 70
    0
 62
    7
  6
CONTINUOUS
370
   25
390
F
  0
ENDTAB
  0
TABLE
  2
STYLE
  5
3
330
0
100
AcDbSymbolTable
 70
    3
  0
STYLE
  5
50
330
2
100
AcDbSymbolTableRecord
100
AcDbTextStyleTableRecord
  2
unicode
 70
    0
 40
0
 41
1
 50
0
 71
    0
 42
1
  3
unicode
  4

  0
STYLE
  5
51
330
2
100
AcDbSymbolTableRecord
100
AcDbTextStyleTableRecord
  2
italicc
 70
    0
 40
0
 41
1
 50
0
 71
    0
 42
1
  3
italicc
  4

  0
STYLE
  5
52
330
2
100
AcDbSymbolTableRecord
100
AcDbTextStyleTableRecord
  2
Standard
 70
    0
 40
0
 41
1
 50
0
 71
    0
 42
1
  3
txt
  4

  0
ENDTAB
  0
TABLE
  2
VIEW
  5
6
330
0
100
AcDbSymbolTable
 70
    0
  0
ENDTAB
  0
TABLE
  2
UCS
  5
7
330
0
100
AcDbSymbolTable
 70
    0
  0
ENDTAB
  0
TABLE
  2
APPID
  5
9
330
0
100
AcDbSymbolTable
 70
    1
  0
APPID
  5
12
330
9
100
AcDbSymbolTableRecord
100
AcDbRegAppTableRecord
  2
ACAD
 70
    0
  0
APPID
  5
53
330
9
100
AcDbSymbolTableRecord
100
AcDbRegAppTableRecord
  2
LibreCad
 70
    0
  0
ENDTAB
  0
TABLE
  2
DIMSTYLE
  5
A
330
0
100
AcDbSymbolTable
 70
    1
100
AcDbDimStyleTable
 71
    1
  0
DIMSTYLE
105
54
330
A
100
AcDbSymbolTableRecord
100
AcDbDimStyleTableRecord
  2
Standard
 70
    0
 40
2.5
 41
2.5
 42
0.625
 43
0.38
 44
1.25
 45
0
 46
0
 47
0
 48
0
 49
1
140
2.5
141
0.09
142
0
143
25.4
144
1
145
0
146
1
147
0.625
148
0
 71
    0
 72
    0
 73
    0
 74
    1
 75
    0
 76
    0
 77
    0
 78
    8
 79
    0
170
    0
171
    2
172
    0
173
    0
174
    0
175
    0
176
    0
177
    0
178
    0
179
    0
271
    2
272
    4
273
    2
274
    2
275
    0
276
    0
277
    2
278
   44
279
    0
280
    0
281
    0
282
    0
283
    1
284
    0
285
    0
286
    0
288
    0
289
    3
340
STANDARD
341

371
   -2
372
   -2
  0
ENDTAB
  0
TABLE
  2
BLOCK_RECORD
  5
1
330
0
100
AcDbSymbolTable
 70
    2
  0
BLOCK_RECORD
  5
1F
330
1
100
AcDbSymbolTableRecord
100
AcDbBlockTableRecord
  2
*Model_Space
 70
    0
280
    1
281
    0
  0
BLOCK_RECORD
  5
1E
330
1
100
AcDbSymbolTableRecord
100
AcDbBlockTableRecord
  2
*Paper_Space
 70
    0
280
    1
281
    0
  0
ENDTAB
  0
ENDSEC
  0
SECTION
  2
BLOCKS
  0
BLOCK
  5
20
330
1F
100
AcDbEntity
  8
0
100
AcDbBlockBegin
  2
*Model_Space
 70
    0
 10
0
 20
0
 30
0
  3
*Model_Space
  1

  0
ENDBLK
  5
21
330
1F
100
AcDbEntity
  8
0
100
AcDbBlockEnd
  0
BLOCK
  5
1C
330
1B
100
AcDbEntity
  8
0
100
AcDbBlockBegin
  2
*Paper_Space
 70
    0
 10
0
 20
0
 30
0
  3
*Paper_Space
  1

  0
ENDBLK
  5
1D
330
1F
100
AcDbEntity
  8
0
100
AcDbBlockEnd
  0
ENDSEC
  0
SECTION
  2
ENTITIES
  0
ARC
  5
55
100
AcDbEntity
  8
card_front
  6
ByLayer
 62
  256
370
   -1
100
AcDbCircle
 10
2.500000000000005
 20
185.5
 40
2.5
100
AcDbArc
 50
90
 51
180
  0
LINE
  5
56
100
AcDbEntity
  8
card_front
  6
ByLayer
 62
  256
370
   -1
100
AcDbLine
 10
2.500000000000005
 20
188
 11
60.50000000000001
 21
188
  0
ARC
  5
57
100
AcDbEntity
  8
card_front
  6
ByLayer
 62
  256
370
   -1
100
AcDbCircle
 10
60.50000000000001
 20
185.5
 40
2.5
100
AcDbArc
 50
0
 51
90
  0
LINE
  5
58
100
AcDbEntity
  8
card_front
  6
ByLayer
 62
  256
370
   -1
100
AcDbLine
 10
63
 20
102.5
 11
63.00000000000001
 21
185.5
  0
ARC
  5
59
100
AcDbEntity
  8
card_front
  6
ByLayer
 62
  256
370
   -1
100
AcDbCircle
 10
60.5
 20
102.5
 40
2.5
100
AcDbArc
 50
270
 51
0
  0
LINE
  5
5A
100
AcDbEntity
  8
card_front
  6
ByLayer
 62
  256
370
   -1
100
AcDbLine
 10
2.5
 20
100
 11
60.5
 21
100
  0
LINE
  5
5B
100
AcDbEntity
  8
card_front
  6
ByLayer
 62
  256
370
   -1
100
AcDbLine
 10
1.530808498934192e-16
 20
102.5
 11
5.235365066354935e-15
 21
185.5
  0
ARC
  5
5C
100
AcDbEntity
  8
card_front
  6
ByLayer
 62
  256
370
   -1
100
AcDbCircle
 10
2.5
 20
102.5
 40
2.5
100
AcDbArc
 50
180
 51
270
  0
TEXT
  5
5D
100
AcDbEntity
  8
card_front
  6
ByLayer
 62
  256
370
   -1
100
AcDbText
 10
31.5
 20
181.9644660940673
 30
0
 40
4
  1
Card Title
 50
0
 41
1
 51
0
  7
italicc
 71
    0
 72
    1
 11
31.5
 21
181.9644660940673
 31
0
210
0
220
0
230
1
100
AcDbText
 73
    2
  0
TEXT
  5
5E
100
AcDbEntity
  8
card_front
  6
ByLayer
 62
  256
370
   -1
100
AcDbText
 10
31.50000000000001
 20
161.2144660940673
 30
0
 40
3
  1
card picture
 50
45
 41
1
 51
0
  7
italicc
 71
    0
 72
    1
 11
31.50000000000001
 21
161.2144660940673
 31
0
210
0
220
0
230
1
100
AcDbText
 73
    2
  0
MTEXT
  5
5F
100
AcDbEntity
  8
card_front
  6
ByLayer
 62
  256
370
   -1
100
AcDbMText
 10
3.500000000000002
 20
143
 30
0
 40
2
 41
25.50000666666667
 71
    1
 72
    1
  1
spec. abilities
  7
italicc
210
0
220
0
230
1
 50
0
 73
    2
 44
1
  0
ARC
  5
60
100
AcDbEntity
  8
card_back
  6
ByLayer
 62
  256
370
   -1
100
AcDbCircle
 10
102.5
 20
185.5
 40
2.5
100
AcDbArc
 50
90
 51
180
  0
LINE
  5
61
100
AcDbEntity
  8
card_back
  6
ByLayer
 62
  256
370
   -1
100
AcDbLine
 10
102.5
 20
188
 11
160.5
 21
188
  0
ARC
  5
62
100
AcDbEntity
  8
card_back
  6
ByLayer
 62
  256
370
   -1
100
AcDbCircle
 10
160.5
 20
185.5
 40
2.5
100
AcDbArc
 50
0
 51
90
  0
LINE
  5
63
100
AcDbEntity
  8
card_back
  6
ByLayer
 62
  256
370
   -1
100
AcDbLine
 10
163
 20
102.5
 11
163
 21
185.5
  0
ARC
  5
64
100
AcDbEntity
  8
card_back
  6
ByLayer
 62
  256
370
   -1
100
AcDbCircle
 10
160.5
 20
102.5
 40
2.5
100
AcDbArc
 50
270
 51
0
  0
LINE
  5
65
100
AcDbEntity
  8
card_back
  6
ByLayer
 62
  256
370
   -1
100
AcDbLine
 10
102.5
 20
100
 11
160.5
 21
100
  0
LINE
  5
66
100
AcDbEntity
  8
card_back
  6
ByLayer
 62
  256
370
   -1
100
AcDbLine
 10
100
 20
102.5
 11
100
 21
185.5
  0
ARC
  5
67
100
AcDbEntity
  8
card_back
  6
ByLayer
 62
  256
370
   -1
100
AcDbCircle
 10
102.5
 20
102.5
 40
2.5
100
AcDbArc
 50
180
 51
270
  0
LINE
  5
68
100
AcDbEntity
  8
card_back
  6
ByLayer
 62
  256
370
   -1
100
AcDbLine
 10
102.5
 20
180.5
 11
160.5
 21
180.5
  0
LINE
  5
69
100
AcDbEntity
  8
card_back
  6
ByLayer
 62
  256
370
   -1
100
AcDbLine
 10
102.5
 20
107.5
 11
160.5
 21
107.5
  0
TEXT
  5
6A
100
AcDbEntity
  8
card_back
  6
ByLayer
 62
  256
370
   -1
100
AcDbText
 10
131.5
 20
107
 30
0
 40
4
  1
MOUNTAIN
 50
0
 41
1
 51
0
  7
italicc
 71
    0
 72
    1
 11
131.5
 21
107
 31
0
210
0
220
0
230
1
100
AcDbText
 73
    3
  0
TEXT
  5
6B
100
AcDbEntity
  8
card_back
  6
ByLayer
 62
  256
370
   -1
100
AcDbText
 10
131.5
 20
185
 30
0
 40
4
  1
MOUNTAIN
 50
0
 41
1
 51
0
  7
italicc
 71
    0
 72
    1
 11
131.5
 21
185
 31
0
210
0
220
0
230
1
100
AcDbText
 73
    3
  0
MTEXT
  5
6C
100
AcDbEntity
  8
card_back
  6
ByLayer
 62
  256
370
   -1
100
AcDbMText
 10
103.5
 20
179.5
 30
0
 40
2
 41
55.83333333333334
 71
    1
 72
    1
  3
"...you could include snippets \Pof lore about the cards \Pon the back, sort of in the \Pstyle of just extracted \Pquotes idk. oidadoikkodakos\Pdkwakdokakodk dwadsda\Pim just making this longer\Pnot just having a logo on\Pthe back would also\Pdiffere
  3
ntiate the cards from\Pother trading card games.\Pnote: logos are temporary\Pi am not a graphic designer\Pssssssssssssssssssssss\Psssssssssssssssssssssssss\Pssssssssssssssssssssssssss\Psssssssssssssssssssssssssss\Pssssssssssssssssssss\Pssssssssssssss
  1
sssss..."\P- your mother
  7
italicc
210
0
220
0
230
1
 50
0
 73
    2
 44
1
  0
ARC
  5
6D
100
AcDbEntity
  8
0
  6
ByLayer
 62
  256
370
   -1
100
AcDbCircle
 10
-97.5
 20
85.5
 40
2.5
100
AcDbArc
 50
90
 51
180
  0
LINE
  5
6E
100
AcDbEntity
  8
0
  6
ByLayer
 62
  256
370
   -1
100
AcDbLine
 10
-97.5
 20
88
 11
-39.49999999999999
 21
88
  0
ARC
  5
6F
100
AcDbEntity
  8
0
  6
ByLayer
 62
  256
370
   -1
100
AcDbCircle
 10
-39.49999999999999
 20
85.5
 40
2.5
100
AcDbArc
 50
0
 51
90
  0
LINE
  5
70
100
AcDbEntity
  8
0
  6
ByLayer
 62
  256
370
   -1
100
AcDbLine
 10
-37
 20
2.5
 11
-36.99999999999999
 21
85.5
  0
ARC
  5
71
100
AcDbEntity
  8
0
  6
ByLayer
 62
  256
370
   -1
100
AcDbCircle
 10
-39.5
 20
2.5
 40
2.5
100
AcDbArc
 50
270
 51
0
  0
LINE
  5
72
100
AcDbEntity
  8
0
  6
ByLayer
 62
  256
370
   -1
100
AcDbLine
 10
-97.5
 20
0
 11
-39.5
 21
0
  0
LINE
  5
73
100
AcDbEntity
  8
0
  6
ByLayer
 62
  256
370
   -1
100
AcDbLine
 10
-100
 20
2.5
 11
-100
 21
85.5
  0
ARC
  5
74
100
AcDbEntity
  8
0
  6
ByLayer
 62
  256
370
   -1
100
AcDbCircle
 10
-97.5
 20
2.5
 40
2.5
100
AcDbArc
 50
180
 51
270
  0
LINE
  5
75
100
AcDbEntity
  8
0
  6
ByLayer
 62
  256
370
   -1
100
AcDbLine
 10
-97.5
 20
2.5
 11
-97.5
 21
85.5
  0
LINE
  5
76
100
AcDbEntity
  8
0
  6
ByLayer
 62
  256
370
   -1
100
AcDbLine
 10
-97.5
 20
85.5
 11
-39.49999999999999
 21
85.5
  0
LINE
  5
77
100
AcDbEntity
  8
0
  6
ByLayer
 62
  256
370
   -1
100
AcDbLine
 10
-39.5
 20
2.5
 11
-39.49999999999999
 21
85.5
  0
LINE
  5
78
100
AcDbEntity
  8
0
  6
ByLayer
 62
  256
370
   -1
100
AcDbLine
 10
-97.5
 20
2.5
 11
-39.5
 21
2.5
  0
MTEXT
  5
79
100
AcDbEntity
  8
0
  6
ByLayer
 62
  256
370
   -1
100
AcDbMText
 10
0
 20
0
 30
0
 40
4
 41
96.76888888888888
 71
    1
 72
    1
  3
some ideas:\P- there could be generic frames\P cards that just base increase\P some/all stats of a card(shown\P above), and there could also be\P rarer ones that add a spesific\P ability to a card.\P\P- to differ from other tcg's,\P gameplay wise, th
  3
e cards will have\P a stat that determines after how\P many turns the card can be\P played. i.e. a low powered card\P can be played 1st turn, but a high\P powered card can only be played\P after 5 turns. balancing might be\P trickey.\P\P- to differ f
  1
rom other card games\P visually, there could be lore about\P the card on the back of the card,\P rather than just a standard logo\P (although that would be there too)\P\P- 
  7
unicode
210
0
220
0
230
1
 50
0
 73
    2
 44
1
  0
TEXT
  5
7A
100
AcDbEntity
  8
card_front
  6
ByLayer
 62
  256
370
   -1
100
AcDbText
 10
31.5
 20
103.5
 30
0
 40
3
  1
0t||0a ~ 0/0
 50
0
 41
1
 51
0
  7
italicc
 71
    0
 72
    1
 11
31.5
 21
103.5
 31
0
210
0
220
0
230
1
100
AcDbText
 73
    1
  0
ARC
  5
7B
100
AcDbEntity
  8
frame_+3
  6
ByLayer
 62
  256
370
   -1
100
AcDbCircle
 10
122.4432390013202
 20
46.20000000000002
 40
17.77216770897431
100
AcDbArc
 50
156.7330415310211
 51
203.2669584689789
  0
ARC
  5
7C
100
AcDbEntity
  8
frame_+3
  6
ByLayer
 62
  256
370
   -1
100
AcDbCircle
 10
86.89890358337286
 20
46.2
 40
17.27216770897302
100
AcDbArc
 50
335.7244305951568
 51
24.27556940484321
  0
ARC
  5
7D
100
AcDbEntity
  8
frame_+3
  6
ByLayer
 62
  256
370
   -1
100
AcDbCircle
 10
122.4432390013189
 20
46.19999999999996
 40
17.27216770897302
100
AcDbArc
 50
155.7244305951567
 51
204.2755694048431
  0
ARC
  5
7E
100
AcDbEntity
  8
card_front
  6
ByLayer
 62
  256
370
   -1
100
AcDbCircle
 10
3.559065934065929
 20
142.6909340659341
 40
1.060711759747206
100
AcDbArc
 50
93.19217746099442
 51
183.1921774609944
  0
ARC
  5
7F
100
AcDbEntity
  8
card_front
  6
ByLayer
 62
  256
370
   -1
100
AcDbCircle
 10
3.559065934065929
 20
145.3090659340659
 40
1.060711759747206
100
AcDbArc
 50
176.8078225390056
 51
266.8078225390056
  0
ARC
  5
80
100
AcDbEntity
  8
card_front
  6
ByLayer
 62
  256
370
   -1
100
AcDbCircle
 10
59.44093406593407
 20
142.6909340659341
 40
1.060711759747206
100
AcDbArc
 50
356.8078225390057
 51
86.80782253900558
  0
ARC
  5
81
100
AcDbEntity
  8
card_front
  6
ByLayer
 62
  256
370
   -1
100
AcDbCircle
 10
59.44093406593407
 20
145.3090659340659
 40
1.060711759747206
100
AcDbArc
 50
273.1921774609944
 51
3.192177460994366
  0
LINE
  5
82
100
AcDbEntity
  8
card_front
  6
ByLayer
 62
  256
370
   -1
100
AcDbLine
 10
3.500000000000002
 20
144.25
 11
59.5
 21
144.25
  0
LINE
  5
83
100
AcDbEntity
  8
card_front
  6
ByLayer
 62
  256
370
   -1
100
AcDbLine
 10
3.500000000000002
 20
143.75
 11
59.5
 21
143.75
  0
ARC
  5
84
100
AcDbEntity
  8
frame_+3
  6
ByLayer
 62
  256
370
   -1
100
AcDbCircle
 10
0.8610000000000468
 20
14.259
 40
13.38813822008124
100
AcDbArc
 50
272.3373058591238
 51
309.2072035049678
  0
ARC
  5
85
100
AcDbEntity
  8
frame_+3
  6
ByLayer
 62
  256
370
   -1
100
AcDbCircle
 10
14.78400000000011
 20
0.3360000000000909
 40
13.38813822008124
100
AcDbArc
 50
140.7927964950327
 51
177.6626941408767
  0
ARC
  5
86
100
AcDbEntity
  8
frame_+3
  6
ByLayer
 62
  256
370
   -1
100
AcDbCircle
 10
5.266400977591132
 20
4.736773241436239
 40
4.146037563925417
100
AcDbArc
 50
348.1445832219605
 51
101.9987502693714
  0
ARC
  5
87
100
AcDbEntity
  8
frame_+3
  6
ByLayer
 62
  256
370
   -1
100
AcDbCircle
 10
5.266400977591132
 20
4.736773241436239
 40
4.692037563925418
100
AcDbArc
 50
348.1445832219605
 51
101.9987502693714
  0
ARC
  5
88
100
AcDbEntity
  8
frame_+3
  6
ByLayer
 62
  256
370
   -1
100
AcDbCircle
 10
-176.8234259638173
 20
46.20000000000001
 40
184.8299076946976
100
AcDbArc
 50
350.6541000911109
 51
356.6129156935709
  0
ARC
  5
89
100
AcDbEntity
  8
frame_+3
  6
ByLayer
 62
  256
370
   -1
100
AcDbCircle
 10
238.5776865540316
 20
46.20000000000001
 40
237.1706865540316
100
AcDbArc
 50
182.6389904930952
 51
188.9442448971546
  0
ARC
  5
8A
100
AcDbEntity
  8
frame_+3
  6
ByLayer
 62
  256
370
   -1
100
AcDbCircle
 10
0.8610000000000468
 20
78.14100000000001
 40
13.38813822008124
100
AcDbArc
 50
50.79279649503212
 51
87.66269414087618
  0
ARC
  5
8B
100
AcDbEntity
  8
frame_+3
  6
ByLayer
 62
  256
370
   -1
100
AcDbCircle
 10
14.78400000000011
 20
92.06399999999991
 40
13.38813822008124
100
AcDbArc
 50
182.3373058591233
 51
219.2072035049673
  0
ARC
  5
8C
100
AcDbEntity
  8
frame_+3
  6
ByLayer
 62
  256
370
   -1
100
AcDbCircle
 10
5.266400977591132
 20
87.66322675856377
 40
4.146037563925417
100
AcDbArc
 50
258.0012497306286
 51
11.85541677803947
  0
ARC
  5
8D
100
AcDbEntity
  8
frame_+3
  6
ByLayer
 62
  256
370
   -1
100
AcDbCircle
 10
0.3197027324098229
 20
37.66201711509225
 40
2.732481651284044
100
AcDbArc
 50
299.3383750150981
 51
60.66162498490196
  0
ARC
  5
8E
100
AcDbEntity
  8
frame_+3
  6
ByLayer
 62
  256
370
   -1
100
AcDbCircle
 10
9.022439852281892
 20
37.66201711509225
 40
2.732481651284044
100
AcDbArc
 50
119.338375015098
 51
240.661624984902
  0
ARC
  5
8F
100
AcDbEntity
  8
frame_+3
  6
ByLayer
 62
  256
370
   -1
100
AcDbCircle
 10
65.28899999999996
 20
14.259
 40
13.38813822008124
100
AcDbArc
 50
230.7927964950322
 51
267.6626941408762
  0
ARC
  5
90
100
AcDbEntity
  8
frame_+3
  6
ByLayer
 62
  256
370
   -1
100
AcDbCircle
 10
51.3659999999999
 20
0.3360000000000838
 40
13.38813822008124
100
AcDbArc
 50
2.33730585912325
 51
39.20720350496727
  0
ARC
  5
91
100
AcDbEntity
  8
frame_+3
  6
ByLayer
 62
  256
370
   -1
100
AcDbCircle
 10
60.88359902240887
 20
4.736773241436232
 40
4.146037563925417
100
AcDbArc
 50
78.00124973062863
 51
191.8554167780395
  0
ARC
  5
92
100
AcDbEntity
  8
frame_+3
  6
ByLayer
 62
  256
370
   -1
100
AcDbCircle
 10
65.28899999999996
 20
78.14100000000001
 40
13.38813822008124
100
AcDbArc
 50
92.3373058591238
 51
129.2072035049679
  0
ARC
  5
93
100
AcDbEntity
  8
frame_+3
  6
ByLayer
 62
  256
370
   -1
100
AcDbCircle
 10
51.36599999999993
 20
92.06399999999991
 40
13.38813822008124
100
AcDbArc
 50
320.7927964950327
 51
357.6626941408767
  0
ARC
  5
94
100
AcDbEntity
  8
frame_+3
  6
ByLayer
 62
  256
370
   -1
100
AcDbCircle
 10
60.88359902240887
 20
87.66322675856377
 40
4.146037563925417
100
AcDbArc
 50
168.1445832219605
 51
281.9987502693714
  0
ARC
  5
95
100
AcDbEntity
  8
frame_+3
  6
ByLayer
 62
  256
370
   -1
100
AcDbCircle
 10
4.671071292345943
 20
43.65344772453614
 40
4.155413494351854
100
AcDbArc
 50
230.1504290448523
 51
309.8495709551451
  0
ARC
  5
96
100
AcDbEntity
  8
frame_+3
  6
ByLayer
 62
  256
370
   -1
100
AcDbCircle
 10
112.1283363576471
 20
46.2
 40
111.2673363576471
100
AcDbArc
 50
191.0104676288321
 51
199.1664252599549
  0
ARC
  5
97
100
AcDbEntity
  8
frame_+3
  6
ByLayer
 62
  256
370
   -1
100
AcDbCircle
 10
238.5776865540316
 20
46.20000000000001
 40
236.6246865540316
100
AcDbArc
 50
185.1525549886134
 51
188.8124584980555
  0
ARC
  5
98
100
AcDbEntity
  8
frame_+3
  6
ByLayer
 62
  256
370
   -1
100
AcDbCircle
 10
238.5776865540316
 20
46.20000000000006
 40
236.6246865540316
100
AcDbArc
 50
182.7432717998958
 51
183.6382972919583
  0
ARC
  5
99
100
AcDbEntity
  8
frame_+3
  6
ByLayer
 62
  256
370
   -1
100
AcDbCircle
 10
-176.8234259638173
 20
46.20000000000001
 40
184.2839076946976
100
AcDbArc
 50
351.0251973372201
 51
356.4755589785453
  0
ARC
  5
9A
100
AcDbEntity
  8
frame_+3
  6
ByLayer
 62
  256
370
   -1
100
AcDbCircle
 10
0.3197027324098229
 20
37.66201711509225
 40
3.278481651284045
100
AcDbArc
 50
313.7617849826889
 51
27.57611277626232
  0
ARC
  5
9B
100
AcDbEntity
  8
frame_+3
  6
ByLayer
 62
  256
370
   -1
100
AcDbCircle
 10
9.022439852281892
 20
37.66201711509225
 40
3.278481651284045
100
AcDbArc
 50
152.4238872237394
 51
226.2382150173131
  0
ARC
  5
9C
100
AcDbEntity
  8
frame_+3
  6
ByLayer
 62
  256
370
   -1
100
AcDbCircle
 10
4.671071292345943
 20
43.65344772453614
 40
4.701413494351854
100
AcDbArc
 50
252.0958653971777
 51
287.9041346028189
  0
ARC
  5
9D
100
AcDbEntity
  8
frame_+3
  6
ByLayer
 62
  256
370
   -1
100
AcDbCircle
 10
4.671071292345943
 20
38.88941349435191
 40
4.155413494351854
100
AcDbArc
 50
239.9034401928145
 51
300.0965598071833
  0
ARC
  5
9E
100
AcDbEntity
  8
frame_+3
  6
ByLayer
 62
  256
370
   -1
100
AcDbCircle
 10
4.703808044824228
 20
37.76948426896578
 40
3.811426028950189
100
AcDbArc
 50
229.4146180216527
 51
309.1137599319453
  0
ARC
  5
9F
100
AcDbEntity
  8
frame_+3
  6
ByLayer
 62
  256
370
   -1
100
AcDbCircle
 10
112.1283363576471
 20
46.2
 40
110.7213363576471
100
AcDbArc
 50
187.7942678161444
 51
195.0490332609346
  0
ARC
  5
A0
100
AcDbEntity
  8
frame_+3
  6
ByLayer
 62
  256
370
   -1
100
AcDbCircle
 10
112.1283363576471
 20
46.2
 40
110.7213363576471
100
AcDbArc
 50
195.7290763943054
 51
199.4296910973949
  0
ARC
  5
A1
100
AcDbEntity
  8
frame_+3
  6
ByLayer
 62
  256
370
   -1
100
AcDbCircle
 10
5.268321698397102
 20
4.745963955903328
 40
5.238037563925419
100
AcDbArc
 50
348.1445832219605
 51
62.23903540666057
  0
ARC
  5
A2
100
AcDbEntity
  8
frame_+3
  6
ByLayer
 62
  256
370
   -1
100
AcDbCircle
 10
5.266400977591132
 20
4.736773241436239
 40
5.238037563925419
100
AcDbArc
 50
70.34007906907382
 51
95.69810789151403
  0
LINE
  5
A3
100
AcDbEntity
  8
frame_+3
  6
ByLayer
 62
  256
370
   -1
100
AcDbLine
 10
2.008389698599885
 20
40.46321449805139
 11
1.65852700691795
 21
40.04403423018437
  0
LINE
  5
A4
100
AcDbEntity
  8
frame_+3
  6
ByLayer
 62
  256
370
   -1
100
AcDbLine
 10
7.333752886091887
 20
40.46321449805126
 11
7.68361557777375
 21
40.04403423018437
  0
ARC
  5
A5
100
AcDbEntity
  8
frame_+3
  6
ByLayer
 62
  256
370
   -1
100
AcDbCircle
 10
60.88359902240887
 20
4.736773241436239
 40
4.692037563925418
100
AcDbArc
 50
78.0012497306286
 51
191.8554167780395
  0
ARC
  5
A6
100
AcDbEntity
  8
frame_+3
  6
ByLayer
 62
  256
370
   -1
100
AcDbCircle
 10
242.9734259638172
 20
46.19999999999998
 40
184.8299076946976
100
AcDbArc
 50
183.387084306429
 51
189.3458999088891
  0
ARC
  5
A7
100
AcDbEntity
  8
frame_+3
  6
ByLayer
 62
  256
370
   -1
100
AcDbCircle
 10
-172.4276865540316
 20
46.20000000000001
 40
237.1706865540316
100
AcDbArc
 50
351.0557551028454
 51
357.3610095069048
  0
ARC
  5
A8
100
AcDbEntity
  8
frame_+3
  6
ByLayer
 62
  256
370
   -1
100
AcDbCircle
 10
65.8302972675902
 20
37.66201711509225
 40
2.732481651284044
100
AcDbArc
 50
119.338375015098
 51
240.6616249849019
  0
ARC
  5
A9
100
AcDbEntity
  8
frame_+3
  6
ByLayer
 62
  256
370
   -1
100
AcDbCircle
 10
57.12756014771813
 20
37.66201711509225
 40
2.732481651284044
100
AcDbArc
 50
299.338375015098
 51
60.66162498490201
  0
ARC
  5
AA
100
AcDbEntity
  8
frame_+3
  6
ByLayer
 62
  256
370
   -1
100
AcDbCircle
 10
61.47892870765403
 20
43.65344772453614
 40
4.155413494351854
100
AcDbArc
 50
230.1504290448549
 51
309.8495709551477
  0
ARC
  5
AB
100
AcDbEntity
  8
frame_+3
  6
ByLayer
 62
  256
370
   -1
100
AcDbCircle
 10
-45.97833635764712
 20
46.20000000000001
 40
111.2673363576471
100
AcDbArc
 50
340.833574740045
 51
348.9895323711679
  0
ARC
  5
AC
100
AcDbEntity
  8
frame_+3
  6
ByLayer
 62
  256
370
   -1
100
AcDbCircle
 10
-172.4276865540316
 20
46.20000000000001
 40
236.6246865540316
100
AcDbArc
 50
351.1875415019445
 51
354.8474450113866
  0
ARC
  5
AD
100
AcDbEntity
  8
frame_+3
  6
ByLayer
 62
  256
370
   -1
100
AcDbCircle
 10
-172.4276865540316
 20
46.20000000000006
 40
236.6246865540316
100
AcDbArc
 50
356.3617027080417
 51
357.2567282001042
  0
ARC
  5
AE
100
AcDbEntity
  8
frame_+3
  6
ByLayer
 62
  256
370
   -1
100
AcDbCircle
 10
242.9734259638172
 20
46.19999999999998
 40
184.2839076946976
100
AcDbArc
 50
183.5244410214547
 51
188.9748026627799
  0
ARC
  5
AF
100
AcDbEntity
  8
frame_+3
  6
ByLayer
 62
  256
370
   -1
100
AcDbCircle
 10
65.8302972675902
 20
37.66201711509225
 40
3.278481651284045
100
AcDbArc
 50
152.4238872237377
 51
226.2382150173111
  0
ARC
  5
B0
100
AcDbEntity
  8
frame_+3
  6
ByLayer
 62
  256
370
   -1
100
AcDbCircle
 10
57.12756014771813
 20
37.66201711509225
 40
3.278481651284045
100
AcDbArc
 50
313.7617849826869
 51
27.57611277626064
  0
ARC
  5
B1
100
AcDbEntity
  8
frame_+3
  6
ByLayer
 62
  256
370
   -1
100
AcDbCircle
 10
61.47892870765403
 20
43.65344772453614
 40
4.701413494351854
100
AcDbArc
 50
252.0958653971811
 51
287.9041346028223
  0
ARC
  5
B2
100
AcDbEntity
  8
frame_+3
  6
ByLayer
 62
  256
370
   -1
100
AcDbCircle
 10
61.47892870765403
 20
38.88941349435191
 40
4.155413494351854
100
AcDbArc
 50
239.9034401928167
 51
300.0965598071855
  0
ARC
  5
B3
100
AcDbEntity
  8
frame_+3
  6
ByLayer
 62
  256
370
   -1
100
AcDbCircle
 10
61.44619195517578
 20
37.76948426896578
 40
3.811426028950189
100
AcDbArc
 50
230.8862400680547
 51
310.5853819783472
  0
ARC
  5
B4
100
AcDbEntity
  8
frame_+3
  6
ByLayer
 62
  256
370
   -1
100
AcDbCircle
 10
-45.97833635764712
 20
46.20000000000001
 40
110.7213363576471
100
AcDbArc
 50
344.9509667390653
 51
352.2057321838556
  0
ARC
  5
B5
100
AcDbEntity
  8
frame_+3
  6
ByLayer
 62
  256
370
   -1
100
AcDbCircle
 10
-45.97833635764712
 20
46.20000000000001
 40
110.7213363576471
100
AcDbArc
 50
340.5703089026051
 51
344.2709236056946
  0
ARC
  5
B6
100
AcDbEntity
  8
frame_+3
  6
ByLayer
 62
  256
370
   -1
100
AcDbCircle
 10
60.8816783016029
 20
4.745963955903328
 40
5.238037563925419
100
AcDbArc
 50
117.7609645933395
 51
191.8554167780395
  0
ARC
  5
B7
100
AcDbEntity
  8
frame_+3
  6
ByLayer
 62
  256
370
   -1
100
AcDbCircle
 10
60.88359902240887
 20
4.736773241436239
 40
5.238037563925419
100
AcDbArc
 50
84.30189210848597
 51
109.6599209309262
  0
LINE
  5
B8
100
AcDbEntity
  8
frame_+3
  6
ByLayer
 62
  256
370
   -1
100
AcDbLine
 10
64.14161030140014
 20
40.46321449805139
 11
64.49147299308206
 21
40.04403423018435
  0
LINE
  5
B9
100
AcDbEntity
  8
frame_+3
  6
ByLayer
 62
  256
370
   -1
100
AcDbLine
 10
58.8162471139081
 20
40.46321449805126
 11
58.46638442222624
 21
40.04403423018435
  0
ARC
  5
BA
100
AcDbEntity
  8
frame_+3
  6
ByLayer
 62
  256
370
   -1
100
AcDbCircle
 10
5.266400977591104
 20
87.66322675856377
 40
4.692037563925418
100
AcDbArc
 50
258.0012497306286
 51
11.85541677803952
  0
ARC
  5
BB
100
AcDbEntity
  8
frame_+3
  6
ByLayer
 62
  256
370
   -1
100
AcDbCircle
 10
-176.8234259638173
 20
46.2
 40
184.8299076946976
100
AcDbArc
 50
3.387084306429054
 51
9.345899908889118
  0
ARC
  5
BC
100
AcDbEntity
  8
frame_+3
  6
ByLayer
 62
  256
370
   -1
100
AcDbCircle
 10
238.5776865540316
 20
46.2
 40
237.1706865540316
100
AcDbArc
 50
171.0557551028454
 51
177.3610095069048
  0
ARC
  5
BD
100
AcDbEntity
  8
frame_+3
  6
ByLayer
 62
  256
370
   -1
100
AcDbCircle
 10
0.3197027324098229
 20
54.73798288490776
 40
2.732481651284044
100
AcDbArc
 50
299.3383750150981
 51
60.66162498490191
  0
ARC
  5
BE
100
AcDbEntity
  8
frame_+3
  6
ByLayer
 62
  256
370
   -1
100
AcDbCircle
 10
9.022439852281877
 20
54.73798288490776
 40
2.732481651284044
100
AcDbArc
 50
119.338375015098
 51
240.661624984902
  0
ARC
  5
BF
100
AcDbEntity
  8
frame_+3
  6
ByLayer
 62
  256
370
   -1
100
AcDbCircle
 10
4.671071292345971
 20
48.74655227546386
 40
4.155413494351854
100
AcDbArc
 50
50.15042904485491
 51
129.8495709551477
  0
ARC
  5
C0
100
AcDbEntity
  8
frame_+3
  6
ByLayer
 62
  256
370
   -1
100
AcDbCircle
 10
112.1283363576471
 20
46.2
 40
111.2673363576471
100
AcDbArc
 50
160.8335747400451
 51
168.9895323711679
  0
ARC
  5
C1
100
AcDbEntity
  8
frame_+3
  6
ByLayer
 62
  256
370
   -1
100
AcDbCircle
 10
238.5776865540316
 20
46.2
 40
236.6246865540316
100
AcDbArc
 50
171.1875415019445
 51
174.8474450113866
  0
ARC
  5
C2
100
AcDbEntity
  8
frame_+3
  6
ByLayer
 62
  256
370
   -1
100
AcDbCircle
 10
238.5776865540316
 20
46.19999999999994
 40
236.6246865540316
100
AcDbArc
 50
176.3617027080417
 51
177.2567282001042
  0
ARC
  5
C3
100
AcDbEntity
  8
frame_+3
  6
ByLayer
 62
  256
370
   -1
100
AcDbCircle
 10
-176.8234259638173
 20
46.2
 40
184.2839076946976
100
AcDbArc
 50
3.524441021454712
 51
8.97480266277992
  0
ARC
  5
C4
100
AcDbEntity
  8
frame_+3
  6
ByLayer
 62
  256
370
   -1
100
AcDbCircle
 10
0.3197027324098229
 20
54.73798288490776
 40
3.278481651284045
100
AcDbArc
 50
332.4238872237377
 51
46.23821501731113
  0
ARC
  5
C5
100
AcDbEntity
  8
frame_+3
  6
ByLayer
 62
  256
370
   -1
100
AcDbCircle
 10
9.022439852281877
 20
54.73798288490776
 40
3.278481651284045
100
AcDbArc
 50
133.7617849826869
 51
207.5761127762606
  0
ARC
  5
C6
100
AcDbEntity
  8
frame_+3
  6
ByLayer
 62
  256
370
   -1
100
AcDbCircle
 10
4.671071292345971
 20
48.74655227546386
 40
4.701413494351854
100
AcDbArc
 50
72.09586539718106
 51
107.9041346028223
  0
ARC
  5
C7
100
AcDbEntity
  8
frame_+3
  6
ByLayer
 62
  256
370
   -1
100
AcDbCircle
 10
4.671071292345971
 20
53.51058650564809
 40
4.155413494351854
100
AcDbArc
 50
59.90344019281673
 51
120.0965598071855
  0
ARC
  5
C8
100
AcDbEntity
  8
frame_+3
  6
ByLayer
 62
  256
370
   -1
100
AcDbCircle
 10
4.703808044824243
 20
54.63051573103422
 40
3.811426028950189
100
AcDbArc
 50
50.88624006805469
 51
130.5853819783473
  0
ARC
  5
C9
100
AcDbEntity
  8
frame_+3
  6
ByLayer
 62
  256
370
   -1
100
AcDbCircle
 10
112.1283363576471
 20
46.2
 40
110.7213363576471
100
AcDbArc
 50
164.9509667390654
 51
172.2057321838556
  0
ARC
  5
CA
100
AcDbEntity
  8
frame_+3
  6
ByLayer
 62
  256
370
   -1
100
AcDbCircle
 10
112.1283363576471
 20
46.2
 40
110.7213363576471
100
AcDbArc
 50
160.5703089026051
 51
164.2709236056946
  0
ARC
  5
CB
100
AcDbEntity
  8
frame_+3
  6
ByLayer
 62
  256
370
   -1
100
AcDbCircle
 10
5.268321698397116
 20
87.65403604409667
 40
5.238037563925419
100
AcDbArc
 50
297.7609645933395
 51
11.85541677803952
  0
ARC
  5
CC
100
AcDbEntity
  8
frame_+3
  6
ByLayer
 62
  256
370
   -1
100
AcDbCircle
 10
5.266400977591104
 20
87.66322675856377
 40
5.238037563925419
100
AcDbArc
 50
264.301892108486
 51
289.6599209309261
  0
LINE
  5
CD
100
AcDbEntity
  8
frame_+3
  6
ByLayer
 62
  256
370
   -1
100
AcDbLine
 10
2.008389698599885
 20
51.93678550194862
 11
1.65852700691795
 21
52.35596576981564
  0
LINE
  5
CE
100
AcDbEntity
  8
frame_+3
  6
ByLayer
 62
  256
370
   -1
100
AcDbLine
 10
7.333752886091901
 20
51.93678550194873
 11
7.68361557777375
 21
52.35596576981564
  0
ARC
  5
CF
100
AcDbEntity
  8
frame_+3
  6
ByLayer
 62
  256
370
   -1
100
AcDbCircle
 10
60.88359902240887
 20
87.66322675856377
 40
4.692037563925418
100
AcDbArc
 50
168.1445832219605
 51
281.9987502693714
  0
ARC
  5
D0
100
AcDbEntity
  8
frame_+3
  6
ByLayer
 62
  256
370
   -1
100
AcDbCircle
 10
242.9734259638172
 20
46.20000000000002
 40
184.8299076946976
100
AcDbArc
 50
170.6541000911109
 51
176.612915693571
  0
ARC
  5
D1
100
AcDbEntity
  8
frame_+3
  6
ByLayer
 62
  256
370
   -1
100
AcDbCircle
 10
-172.4276865540316
 20
46.2
 40
237.1706865540316
100
AcDbArc
 50
2.638990493095198
 51
8.944244897154622
  0
ARC
  5
D2
100
AcDbEntity
  8
frame_+3
  6
ByLayer
 62
  256
370
   -1
100
AcDbCircle
 10
65.8302972675902
 20
54.73798288490776
 40
2.732481651284044
100
AcDbArc
 50
119.3383750150981
 51
240.661624984902
  0
ARC
  5
D3
100
AcDbEntity
  8
frame_+3
  6
ByLayer
 62
  256
370
   -1
100
AcDbCircle
 10
57.12756014771813
 20
54.73798288490776
 40
2.732481651284044
100
AcDbArc
 50
299.338375015098
 51
60.66162498490201
  0
ARC
  5
D4
100
AcDbEntity
  8
frame_+3
  6
ByLayer
 62
  256
370
   -1
100
AcDbCircle
 10
61.47892870765403
 20
48.74655227546386
 40
4.155413494351854
100
AcDbArc
 50
50.15042904485231
 51
129.8495709551451
  0
ARC
  5
D5
100
AcDbEntity
  8
frame_+3
  6
ByLayer
 62
  256
370
   -1
100
AcDbCircle
 10
-45.97833635764712
 20
46.2
 40
111.2673363576471
100
AcDbArc
 50
11.01046762883211
 51
19.16642525995494
  0
ARC
  5
D6
100
AcDbEntity
  8
frame_+3
  6
ByLayer
 62
  256
370
   -1
100
AcDbCircle
 10
-172.4276865540316
 20
46.2
 40
236.6246865540316
100
AcDbArc
 50
5.152554988613397
 51
8.812458498055536
  0
ARC
  5
D7
100
AcDbEntity
  8
frame_+3
  6
ByLayer
 62
  256
370
   -1
100
AcDbCircle
 10
-172.4276865540316
 20
46.19999999999994
 40
236.6246865540316
100
AcDbArc
 50
2.743271799895778
 51
3.638297291958264
  0
ARC
  5
D8
100
AcDbEntity
  8
frame_+3
  6
ByLayer
 62
  256
370
   -1
100
AcDbCircle
 10
242.9734259638172
 20
46.20000000000002
 40
184.2839076946976
100
AcDbArc
 50
171.0251973372201
 51
176.4755589785453
  0
ARC
  5
D9
100
AcDbEntity
  8
frame_+3
  6
ByLayer
 62
  256
370
   -1
100
AcDbCircle
 10
65.8302972675902
 20
54.73798288490776
 40
3.278481651284045
100
AcDbArc
 50
133.7617849826889
 51
207.5761127762623
  0
ARC
  5
DA
100
AcDbEntity
  8
frame_+3
  6
ByLayer
 62
  256
370
   -1
100
AcDbCircle
 10
57.12756014771813
 20
54.73798288490776
 40
3.278481651284045
100
AcDbArc
 50
332.4238872237394
 51
46.23821501731307
  0
ARC
  5
DB
100
AcDbEntity
  8
frame_+3
  6
ByLayer
 62
  256
370
   -1
100
AcDbCircle
 10
61.47892870765403
 20
48.74655227546386
 40
4.701413494351854
100
AcDbArc
 50
72.0958653971777
 51
107.9041346028189
  0
ARC
  5
DC
100
AcDbEntity
  8
frame_+3
  6
ByLayer
 62
  256
370
   -1
100
AcDbCircle
 10
61.47892870765403
 20
53.51058650564809
 40
4.155413494351854
100
AcDbArc
 50
59.90344019281449
 51
120.0965598071833
  0
ARC
  5
DD
100
AcDbEntity
  8
frame_+3
  6
ByLayer
 62
  256
370
   -1
100
AcDbCircle
 10
61.44619195517578
 20
54.63051573103422
 40
3.811426028950189
100
AcDbArc
 50
49.41461802165273
 51
129.1137599319453
  0
ARC
  5
DE
100
AcDbEntity
  8
frame_+3
  6
ByLayer
 62
  256
370
   -1
100
AcDbCircle
 10
-45.97833635764712
 20
46.2
 40
110.7213363576471
100
AcDbArc
 50
7.794267816144454
 51
15.04903326093464
  0
ARC
  5
DF
100
AcDbEntity
  8
frame_+3
  6
ByLayer
 62
  256
370
   -1
100
AcDbCircle
 10
-45.97833635764712
 20
46.2
 40
110.7213363576471
100
AcDbArc
 50
15.72907639430542
 51
19.42969109739488
  0
ARC
  5
E0
100
AcDbEntity
  8
frame_+3
  6
ByLayer
 62
  256
370
   -1
100
AcDbCircle
 10
60.8816783016029
 20
87.65403604409667
 40
5.238037563925419
100
AcDbArc
 50
168.1445832219605
 51
242.2390354066605
  0
ARC
  5
E1
100
AcDbEntity
  8
frame_+3
  6
ByLayer
 62
  256
370
   -1
100
AcDbCircle
 10
60.88359902240887
 20
87.66322675856377
 40
5.238037563925419
100
AcDbArc
 50
250.3400790690739
 51
275.698107891514
  0
LINE
  5
E2
100
AcDbEntity
  8
frame_+3
  6
ByLayer
 62
  256
370
   -1
100
AcDbLine
 10
64.14161030140014
 20
51.93678550194862
 11
64.49147299308206
 21
52.35596576981565
  0
LINE
  5
E3
100
AcDbEntity
  8
frame_+3
  6
ByLayer
 62
  256
370
   -1
100
AcDbLine
 10
58.8162471139081
 20
51.93678550194873
 11
58.46638442222624
 21
52.35596576981565
  0
LINE
  5
E4
100
AcDbEntity
  8
frame_+3
  6
ByLayer
 62
  256
370
   -1
100
AcDbLine
 10
9.858353351139908
 20
3.772828273947454
 11
10.39462742308573
 21
3.669847262362001
  0
LINE
  5
E5
100
AcDbEntity
  8
frame_+3
  6
ByLayer
 62
  256
370
   -1
100
AcDbLine
 10
56.2916466488601
 20
3.772828273947456
 11
55.75537257691428
 21
3.669847262362003
  0
LINE
  5
E6
100
AcDbEntity
  8
frame_+3
  6
ByLayer
 62
  256
370
   -1
100
AcDbLine
 10
10.39462742308575
 20
88.73015273763799
 11
9.858353351139879
 21
88.62717172605255
  0
LINE
  5
E7
100
AcDbEntity
  8
frame_+3
  6
ByLayer
 62
  256
370
   -1
100
AcDbLine
 10
55.75537257691428
 20
88.73015273763799
 11
56.2916466488601
 21
88.62717172605255
  0
TEXT
  5
E8
100
AcDbEntity
  8
frame_+3
  6
ByLayer
 62
  256
370
   -1
100
AcDbText
 10
4.671071292345861
 20
46.2
 30
0
 40
5
  1
+3
 50
90
 41
1
 51
0
  7
italicc
 71
    0
 72
    1
 11
4.671071292345861
 21
46.2
 31
0
210
0
220
0
230
1
100
AcDbText
 73
    2
  0
TEXT
  5
E9
100
AcDbEntity
  8
frame_+3
  6
ByLayer
 62
  256
370
   -1
100
AcDbText
 10
61.47892870765413
 20
46.2
 30
0
 40
5
  1
+3
 50
270
 41
1
 51
0
  7
italicc
 71
    0
 72
    1
 11
61.47892870765413
 21
46.2
 31
0
210
0
220
0
230
1
100
AcDbText
 73
    2
  0
ARC
  5
EA
100
AcDbEntity
  8
frame_+3
  6
ByLayer
 62
  256
370
   -1
100
AcDbCircle
 10
143.7067609986798
 20
46.20000000000002
 40
17.77216770897431
100
AcDbArc
 50
336.7330415310211
 51
23.26695846897885
  0
ARC
  5
EB
100
AcDbEntity
  8
frame_+3
  6
ByLayer
 62
  256
370
   -1
100
AcDbCircle
 10
179.2510964166271
 20
46.2
 40
17.77216770897302
100
AcDbArc
 50
156.7330415310196
 51
203.2669584689804
  0
ARC
  5
EC
100
AcDbEntity
  8
frame_+3
  6
ByLayer
 62
  256
370
   -1
100
AcDbCircle
 10
179.2510964166271
 20
46.2
 40
17.27216770897302
100
AcDbArc
 50
155.7244305951567
 51
204.2755694048432
  0
ARC
  5
ED
100
AcDbEntity
  8
frame_+3
  6
ByLayer
 62
  256
370
   -1
100
AcDbCircle
 10
143.7067609986811
 20
46.19999999999995
 40
17.27216770897302
100
AcDbArc
 50
335.7244305951569
 51
24.27556940484327
  0
ARC
  5
EE
100
AcDbEntity
  8
frame_+3
  6
ByLayer
 62
  256
370
   -1
100
AcDbCircle
 10
100.861
 20
14.259
 40
13.38813822008124
100
AcDbArc
 50
272.3373058591238
 51
309.2072035049678
  0
ARC
  5
EF
100
AcDbEntity
  8
frame_+3
  6
ByLayer
 62
  256
370
   -1
100
AcDbCircle
 10
114.7840000000001
 20
0.3360000000000909
 40
13.38813822008124
100
AcDbArc
 50
140.7927964950327
 51
177.6626941408767
  0
ARC
  5
F0
100
AcDbEntity
  8
frame_+3
  6
ByLayer
 62
  256
370
   -1
100
AcDbCircle
 10
105.2664009775911
 20
4.736773241436239
 40
4.146037563925417
100
AcDbArc
 50
348.1445832219605
 51
101.9987502693714
  0
ARC
  5
F1
100
AcDbEntity
  8
frame_+3
  6
ByLayer
 62
  256
370
   -1
100
AcDbCircle
 10
105.2664009775911
 20
4.736773241436239
 40
4.692037563925418
100
AcDbArc
 50
348.1445832219605
 51
101.9987502693714
  0
ARC
  5
F2
100
AcDbEntity
  8
frame_+3
  6
ByLayer
 62
  256
370
   -1
100
AcDbCircle
 10
-76.8234259638173
 20
46.20000000000001
 40
184.8299076946976
100
AcDbArc
 50
350.6541000911109
 51
356.6129156935709
  0
ARC
  5
F3
100
AcDbEntity
  8
frame_+3
  6
ByLayer
 62
  256
370
   -1
100
AcDbCircle
 10
338.5776865540316
 20
46.20000000000001
 40
237.1706865540316
100
AcDbArc
 50
182.6389904930952
 51
188.9442448971546
  0
ARC
  5
F4
100
AcDbEntity
  8
frame_+3
  6
ByLayer
 62
  256
370
   -1
100
AcDbCircle
 10
100.861
 20
78.14100000000001
 40
13.38813822008124
100
AcDbArc
 50
50.79279649503212
 51
87.66269414087618
  0
ARC
  5
F5
100
AcDbEntity
  8
frame_+3
  6
ByLayer
 62
  256
370
   -1
100
AcDbCircle
 10
114.7840000000001
 20
92.06399999999991
 40
13.38813822008124
100
AcDbArc
 50
182.3373058591233
 51
219.2072035049673
  0
ARC
  5
F6
100
AcDbEntity
  8
frame_+3
  6
ByLayer
 62
  256
370
   -1
100
AcDbCircle
 10
105.2664009775911
 20
87.66322675856377
 40
4.146037563925417
100
AcDbArc
 50
258.0012497306286
 51
11.85541677803947
  0
ARC
  5
F7
100
AcDbEntity
  8
frame_+3
  6
ByLayer
 62
  256
370
   -1
100
AcDbCircle
 10
165.289
 20
14.259
 40
13.38813822008124
100
AcDbArc
 50
230.7927964950322
 51
267.6626941408762
  0
ARC
  5
F8
100
AcDbEntity
  8
frame_+3
  6
ByLayer
 62
  256
370
   -1
100
AcDbCircle
 10
151.3659999999999
 20
0.3360000000000838
 40
13.38813822008124
100
AcDbArc
 50
2.33730585912325
 51
39.20720350496727
  0
ARC
  5
F9
100
AcDbEntity
  8
frame_+3
  6
ByLayer
 62
  256
370
   -1
100
AcDbCircle
 10
160.8835990224089
 20
4.736773241436232
 40
4.146037563925417
100
AcDbArc
 50
78.00124973062863
 51
191.8554167780395
  0
ARC
  5
FA
100
AcDbEntity
  8
frame_+3
  6
ByLayer
 62
  256
370
   -1
100
AcDbCircle
 10
165.289
 20
78.14100000000001
 40
13.38813822008124
100
AcDbArc
 50
92.3373058591238
 51
129.2072035049679
  0
ARC
  5
FB
100
AcDbEntity
  8
frame_+3
  6
ByLayer
 62
  256
370
   -1
100
AcDbCircle
 10
151.3659999999999
 20
92.06399999999991
 40
13.38813822008124
100
AcDbArc
 50
320.7927964950327
 51
357.6626941408767
  0
ARC
  5
FC
100
AcDbEntity
  8
frame_+3
  6
ByLayer
 62
  256
370
   -1
100
AcDbCircle
 10
160.8835990224089
 20
87.66322675856377
 40
4.146037563925417
100
AcDbArc
 50
168.1445832219605
 51
281.9987502693714
  0
ARC
  5
FD
100
AcDbEntity
  8
frame_+3
  6
ByLayer
 62
  256
370
   -1
100
AcDbCircle
 10
212.1283363576471
 20
46.2
 40
111.2673363576471
100
AcDbArc
 50
191.0104676288321
 51
199.1664252599549
  0
ARC
  5
FE
100
AcDbEntity
  8
frame_+3
  6
ByLayer
 62
  256
370
   -1
100
AcDbCircle
 10
338.5776865540316
 20
46.20000000000001
 40
236.6246865540316
100
AcDbArc
 50
185.1525549886134
 51
188.8124584980555
  0
ARC
  5
FF
100
AcDbEntity
  8
frame_+3
  6
ByLayer
 62
  256
370
   -1
100
AcDbCircle
 10
338.5776865540316
 20
46.20000000000006
 40
236.6246865540316
100
AcDbArc
 50
182.7432717998958
 51
183.6382972919583
  0
ARC
  5
100
100
AcDbEntity
  8
frame_+3
  6
ByLayer
 62
  256
370
   -1
100
AcDbCircle
 10
-76.8234259638173
 20
46.20000000000001
 40
184.2839076946976
100
AcDbArc
 50
351.0251973372201
 51
356.4755589785453
  0
ARC
  5
101
100
AcDbEntity
  8
frame_+3
  6
ByLayer
 62
  256
370
   -1
100
AcDbCircle
 10
109.0224398522819
 20
37.66201711509225
 40
3.278481651284045
100
AcDbArc
 50
152.4238872237394
 51
226.2382150173131
  0
ARC
  5
102
100
AcDbEntity
  8
frame_+3
  6
ByLayer
 62
  256
370
   -1
100
AcDbCircle
 10
104.6710712923459
 20
38.88941349435191
 40
4.155413494351854
100
AcDbArc
 50
239.9034401928145
 51
300.0965598071833
  0
ARC
  5
103
100
AcDbEntity
  8
frame_+3
  6
ByLayer
 62
  256
370
   -1
100
AcDbCircle
 10
104.7038080448242
 20
37.76948426896578
 40
3.811426028950189
100
AcDbArc
 50
229.4146180216527
 51
309.1137599319453
  0
ARC
  5
104
100
AcDbEntity
  8
frame_+3
  6
ByLayer
 62
  256
370
   -1
100
AcDbCircle
 10
212.1283363576471
 20
46.2
 40
110.7213363576471
100
AcDbArc
 50
187.7942678161444
 51
195.0490332609346
  0
ARC
  5
105
100
AcDbEntity
  8
frame_+3
  6
ByLayer
 62
  256
370
   -1
100
AcDbCircle
 10
212.1283363576471
 20
46.2
 40
110.7213363576471
100
AcDbArc
 50
195.7290763943054
 51
199.4296910973949
  0
ARC
  5
106
100
AcDbEntity
  8
frame_+3
  6
ByLayer
 62
  256
370
   -1
100
AcDbCircle
 10
105.2683216983971
 20
4.745963955903328
 40
5.238037563925419
100
AcDbArc
 50
348.1445832219605
 51
62.23903540666056
  0
ARC
  5
107
100
AcDbEntity
  8
frame_+3
  6
ByLayer
 62
  256
370
   -1
100
AcDbCircle
 10
105.2664009775911
 20
4.736773241436239
 40
5.238037563925419
100
AcDbArc
 50
70.34007906907382
 51
95.69810789151403
  0
ARC
  5
108
100
AcDbEntity
  8
frame_+3
  6
ByLayer
 62
  256
370
   -1
100
AcDbCircle
 10
116.1149451352466
 20
34.90624227629839
 40
32.30185628186919
100
AcDbArc
 50
273.212865027539
 51
301.6715368112289
  0
ARC
  5
109
100
AcDbEntity
  8
frame_+3
  6
ByLayer
 62
  256
370
   -1
100
AcDbCircle
 10
150.0350548647534
 20
34.90624227629839
 40
32.30185628186919
100
AcDbArc
 50
238.3284631887711
 51
266.787134972461
  0
ARC
  5
10A
100
AcDbEntity
  8
frame_+3
  6
ByLayer
 62
  256
370
   -1
100
AcDbCircle
 10
116.3881513753819
 20
33.49438574927521
 40
30.42080579675883
100
AcDbArc
 50
258.6372171469158
 51
303.2665025313431
  0
ARC
  5
10B
100
AcDbEntity
  8
frame_+3
  6
ByLayer
 62
  256
370
   -1
100
AcDbCircle
 10
160.8835990224089
 20
4.736773241436239
 40
4.692037563925418
100
AcDbArc
 50
78.0012497306286
 51
191.8554167780395
  0
ARC
  5
10C
100
AcDbEntity
  8
frame_+3
  6
ByLayer
 62
  256
370
   -1
100
AcDbCircle
 10
342.9734259638172
 20
46.19999999999998
 40
184.8299076946976
100
AcDbArc
 50
183.387084306429
 51
189.3458999088891
  0
ARC
  5
10D
100
AcDbEntity
  8
frame_+3
  6
ByLayer
 62
  256
370
   -1
100
AcDbCircle
 10
-72.42768655403157
 20
46.20000000000001
 40
237.1706865540316
100
AcDbArc
 50
351.0557551028454
 51
357.3610095069048
  0
ARC
  5
10E
100
AcDbEntity
  8
frame_+3
  6
ByLayer
 62
  256
370
   -1
100
AcDbCircle
 10
133.075
 20
95.55548418106521
 40
94.67348418106522
100
AcDbArc
 50
255.8046559085282
 51
284.1953440914718
  0
ARC
  5
10F
100
AcDbEntity
  8
frame_+3
  6
ByLayer
 62
  256
370
   -1
100
AcDbCircle
 10
54.02166364235288
 20
46.20000000000001
 40
111.2673363576471
100
AcDbArc
 50
340.833574740045
 51
348.9895323711679
  0
ARC
  5
110
100
AcDbEntity
  8
frame_+3
  6
ByLayer
 62
  256
370
   -1
100
AcDbCircle
 10
-72.42768655403157
 20
46.20000000000001
 40
236.6246865540316
100
AcDbArc
 50
351.1875415019445
 51
354.8474450113866
  0
ARC
  5
111
100
AcDbEntity
  8
frame_+3
  6
ByLayer
 62
  256
370
   -1
100
AcDbCircle
 10
-72.42768655403157
 20
46.20000000000006
 40
236.6246865540316
100
AcDbArc
 50
356.3617027080417
 51
357.2567282001042
  0
ARC
  5
112
100
AcDbEntity
  8
frame_+3
  6
ByLayer
 62
  256
370
   -1
100
AcDbCircle
 10
342.9734259638172
 20
46.19999999999998
 40
184.2839076946976
100
AcDbArc
 50
183.5244410214547
 51
188.9748026627799
  0
ARC
  5
113
100
AcDbEntity
  8
frame_+3
  6
ByLayer
 62
  256
370
   -1
100
AcDbCircle
 10
161.4461919551758
 20
37.76948426896578
 40
3.811426028950189
100
AcDbArc
 50
230.8862400680547
 51
310.5853819783472
  0
ARC
  5
114
100
AcDbEntity
  8
frame_+3
  6
ByLayer
 62
  256
370
   -1
100
AcDbCircle
 10
54.02166364235288
 20
46.20000000000001
 40
110.7213363576471
100
AcDbArc
 50
344.9509667390653
 51
352.2057321838556
  0
ARC
  5
115
100
AcDbEntity
  8
frame_+3
  6
ByLayer
 62
  256
370
   -1
100
AcDbCircle
 10
54.02166364235288
 20
46.20000000000001
 40
110.7213363576471
100
AcDbArc
 50
340.5703089026051
 51
344.2709236056946
  0
ARC
  5
116
100
AcDbEntity
  8
frame_+3
  6
ByLayer
 62
  256
370
   -1
100
AcDbCircle
 10
160.8816783016029
 20
4.745963955903328
 40
5.238037563925419
100
AcDbArc
 50
117.7609645933395
 51
191.8554167780395
  0
ARC
  5
117
100
AcDbEntity
  8
frame_+3
  6
ByLayer
 62
  256
370
   -1
100
AcDbCircle
 10
160.8835990224089
 20
4.736773241436239
 40
5.238037563925419
100
AcDbArc
 50
84.30189210848597
 51
109.6599209309262
  0
ARC
  5
118
100
AcDbEntity
  8
frame_+3
  6
ByLayer
 62
  256
370
   -1
100
AcDbCircle
 10
133.075
 20
95.55548418106521
 40
94.12748418106521
100
AcDbArc
 50
260.7380466299917
 51
279.2619533700085
  0
ARC
  5
119
100
AcDbEntity
  8
frame_+3
  6
ByLayer
 62
  256
370
   -1
100
AcDbCircle
 10
116.1149451352466
 20
34.90624227629839
 40
32.30185628186919
100
AcDbArc
 50
273.212865027539
 51
301.6715368112289
  0
ARC
  5
11A
100
AcDbEntity
  8
frame_+3
  6
ByLayer
 62
  256
370
   -1
100
AcDbCircle
 10
149.7618486246181
 20
33.49438574927521
 40
30.42080579675883
100
AcDbArc
 50
236.7334974686569
 51
281.3627828530842
  0
ARC
  5
11B
100
AcDbEntity
  8
frame_+3
  6
ByLayer
 62
  256
370
   -1
100
AcDbCircle
 10
105.2664009775911
 20
87.66322675856377
 40
4.692037563925418
100
AcDbArc
 50
258.0012497306286
 51
11.85541677803952
  0
ARC
  5
11C
100
AcDbEntity
  8
frame_+3
  6
ByLayer
 62
  256
370
   -1
100
AcDbCircle
 10
-76.8234259638173
 20
46.2
 40
184.8299076946976
100
AcDbArc
 50
3.387084306429054
 51
9.345899908889118
  0
ARC
  5
11D
100
AcDbEntity
  8
frame_+3
  6
ByLayer
 62
  256
370
   -1
100
AcDbCircle
 10
338.5776865540316
 20
46.2
 40
237.1706865540316
100
AcDbArc
 50
171.0557551028454
 51
177.3610095069048
  0
ARC
  5
11E
100
AcDbEntity
  8
frame_+3
  6
ByLayer
 62
  256
370
   -1
100
AcDbCircle
 10
212.1283363576471
 20
46.2
 40
111.2673363576471
100
AcDbArc
 50
160.8335747400451
 51
168.9895323711679
  0
ARC
  5
11F
100
AcDbEntity
  8
frame_+3
  6
ByLayer
 62
  256
370
   -1
100
AcDbCircle
 10
338.5776865540316
 20
46.2
 40
236.6246865540316
100
AcDbArc
 50
171.1875415019445
 51
174.8474450113866
  0
ARC
  5
120
100
AcDbEntity
  8
frame_+3
  6
ByLayer
 62
  256
370
   -1
100
AcDbCircle
 10
338.5776865540316
 20
46.19999999999994
 40
236.6246865540316
100
AcDbArc
 50
176.3617027080417
 51
177.2567282001042
  0
ARC
  5
121
100
AcDbEntity
  8
frame_+3
  6
ByLayer
 62
  256
370
   -1
100
AcDbCircle
 10
-76.8234259638173
 20
46.2
 40
184.2839076946976
100
AcDbArc
 50
3.524441021454712
 51
8.97480266277992
  0
ARC
  5
122
100
AcDbEntity
  8
frame_+3
  6
ByLayer
 62
  256
370
   -1
100
AcDbCircle
 10
104.671071292346
 20
53.51058650564809
 40
4.155413494351854
100
AcDbArc
 50
59.90344019281673
 51
120.0965598071855
  0
ARC
  5
123
100
AcDbEntity
  8
frame_+3
  6
ByLayer
 62
  256
370
   -1
100
AcDbCircle
 10
104.7038080448242
 20
54.63051573103422
 40
3.811426028950189
100
AcDbArc
 50
50.88624006805469
 51
130.5853819783473
  0
ARC
  5
124
100
AcDbEntity
  8
frame_+3
  6
ByLayer
 62
  256
370
   -1
100
AcDbCircle
 10
212.1283363576471
 20
46.2
 40
110.7213363576471
100
AcDbArc
 50
164.9509667390654
 51
172.2057321838556
  0
ARC
  5
125
100
AcDbEntity
  8
frame_+3
  6
ByLayer
 62
  256
370
   -1
100
AcDbCircle
 10
212.1283363576471
 20
46.2
 40
110.7213363576471
100
AcDbArc
 50
160.5703089026051
 51
164.2709236056946
  0
ARC
  5
126
100
AcDbEntity
  8
frame_+3
  6
ByLayer
 62
  256
370
   -1
100
AcDbCircle
 10
105.2683216983971
 20
87.65403604409667
 40
5.238037563925419
100
AcDbArc
 50
297.7609645933395
 51
11.85541677803952
  0
ARC
  5
127
100
AcDbEntity
  8
frame_+3
  6
ByLayer
 62
  256
370
   -1
100
AcDbCircle
 10
105.2664009775911
 20
87.66322675856377
 40
5.238037563925419
100
AcDbArc
 50
264.301892108486
 51
289.6599209309261
  0
ARC
  5
128
100
AcDbEntity
  8
frame_+3
  6
ByLayer
 62
  256
370
   -1
100
AcDbCircle
 10
116.1149451352466
 20
57.49375772370162
 40
32.30185628186919
100
AcDbArc
 50
58.32846318877115
 51
86.78713497246096
  0
ARC
  5
129
100
AcDbEntity
  8
frame_+3
  6
ByLayer
 62
  256
370
   -1
100
AcDbCircle
 10
150.0350548647534
 20
57.49375772370162
 40
32.30185628186919
100
AcDbArc
 50
93.21286502753904
 51
121.6715368112289
  0
ARC
  5
12A
100
AcDbEntity
  8
frame_+3
  6
ByLayer
 62
  256
370
   -1
100
AcDbCircle
 10
116.3881513753819
 20
58.9056142507248
 40
30.42080579675883
100
AcDbArc
 50
56.73349746865691
 51
101.3627828530842
  0
ARC
  5
12B
100
AcDbEntity
  8
frame_+3
  6
ByLayer
 62
  256
370
   -1
100
AcDbCircle
 10
160.8835990224089
 20
87.66322675856377
 40
4.692037563925418
100
AcDbArc
 50
168.1445832219605
 51
281.9987502693714
  0
ARC
  5
12C
100
AcDbEntity
  8
frame_+3
  6
ByLayer
 62
  256
370
   -1
100
AcDbCircle
 10
342.9734259638172
 20
46.20000000000002
 40
184.8299076946976
100
AcDbArc
 50
170.6541000911109
 51
176.612915693571
  0
ARC
  5
12D
100
AcDbEntity
  8
frame_+3
  6
ByLayer
 62
  256
370
   -1
100
AcDbCircle
 10
-72.42768655403157
 20
46.2
 40
237.1706865540316
100
AcDbArc
 50
2.638990493095198
 51
8.944244897154622
  0
ARC
  5
12E
100
AcDbEntity
  8
frame_+3
  6
ByLayer
 62
  256
370
   -1
100
AcDbCircle
 10
133.075
 20
-3.155484181065205
 40
94.67348418106522
100
AcDbArc
 50
75.80465590852818
 51
104.1953440914718
  0
ARC
  5
12F
100
AcDbEntity
  8
frame_+3
  6
ByLayer
 62
  256
370
   -1
100
AcDbCircle
 10
54.02166364235288
 20
46.2
 40
111.2673363576471
100
AcDbArc
 50
11.01046762883211
 51
19.16642525995494
  0
ARC
  5
130
100
AcDbEntity
  8
frame_+3
  6
ByLayer
 62
  256
370
   -1
100
AcDbCircle
 10
-72.42768655403157
 20
46.2
 40
236.6246865540316
100
AcDbArc
 50
5.152554988613397
 51
8.812458498055536
  0
ARC
  5
131
100
AcDbEntity
  8
frame_+3
  6
ByLayer
 62
  256
370
   -1
100
AcDbCircle
 10
-72.42768655403157
 20
46.19999999999994
 40
236.6246865540316
100
AcDbArc
 50
2.743271799895778
 51
3.638297291958265
  0
ARC
  5
132
100
AcDbEntity
  8
frame_+3
  6
ByLayer
 62
  256
370
   -1
100
AcDbCircle
 10
342.9734259638172
 20
46.20000000000002
 40
184.2839076946976
100
AcDbArc
 50
171.0251973372201
 51
176.4755589785453
  0
ARC
  5
133
100
AcDbEntity
  8
frame_+3
  6
ByLayer
 62
  256
370
   -1
100
AcDbCircle
 10
161.4461919551758
 20
54.63051573103422
 40
3.811426028950189
100
AcDbArc
 50
49.41461802165273
 51
129.1137599319453
  0
ARC
  5
134
100
AcDbEntity
  8
frame_+3
  6
ByLayer
 62
  256
370
   -1
100
AcDbCircle
 10
54.02166364235288
 20
46.2
 40
110.7213363576471
100
AcDbArc
 50
7.794267816144454
 51
15.04903326093464
  0
ARC
  5
135
100
AcDbEntity
  8
frame_+3
  6
ByLayer
 62
  256
370
   -1
100
AcDbCircle
 10
54.02166364235288
 20
46.2
 40
110.7213363576471
100
AcDbArc
 50
15.72907639430542
 51
19.42969109739488
  0
ARC
  5
136
100
AcDbEntity
  8
frame_+3
  6
ByLayer
 62
  256
370
   -1
100
AcDbCircle
 10
160.8816783016029
 20
87.65403604409667
 40
5.238037563925419
100
AcDbArc
 50
168.1445832219605
 51
242.2390354066605
  0
ARC
  5
137
100
AcDbEntity
  8
frame_+3
  6
ByLayer
 62
  256
370
   -1
100
AcDbCircle
 10
160.8835990224089
 20
87.66322675856377
 40
5.238037563925419
100
AcDbArc
 50
250.3400790690739
 51
275.698107891514
  0
ARC
  5
138
100
AcDbEntity
  8
frame_+3
  6
ByLayer
 62
  256
370
   -1
100
AcDbCircle
 10
133.075
 20
-3.155484181065205
 40
94.12748418106521
100
AcDbArc
 50
80.73804662999153
 51
99.26195337000833
  0
ARC
  5
139
100
AcDbEntity
  8
frame_+3
  6
ByLayer
 62
  256
370
   -1
100
AcDbCircle
 10
116.1149451352466
 20
57.49375772370162
 40
32.30185628186919
100
AcDbArc
 50
58.3284631887711
 51
86.78713497246096
  0
ARC
  5
13A
100
AcDbEntity
  8
frame_+3
  6
ByLayer
 62
  256
370
   -1
100
AcDbCircle
 10
149.7618486246181
 20
58.9056142507248
 40
30.42080579675883
100
AcDbArc
 50
78.63721714691579
 51
123.2665025313431
  0
ARC
  5
13B
100
AcDbEntity
  8
frame_+3
  6
ByLayer
 62
  256
370
   -1
100
AcDbCircle
 10
109.0224398522819
 20
37.66201711509223
 40
2.732481651284044
100
AcDbArc
 50
148.2726612300674
 51
240.6616249849017
  0
ARC
  5
13C
100
AcDbEntity
  8
frame_+3
  6
ByLayer
 62
  256
370
   -1
100
AcDbCircle
 10
165.8302972675901
 20
37.66201711509223
 40
3.278481651284045
100
AcDbArc
 50
152.4238872237377
 51
226.2382150173111
  0
ARC
  5
13D
100
AcDbEntity
  8
frame_+3
  6
ByLayer
 62
  256
370
   -1
100
AcDbCircle
 10
157.1275601477181
 20
37.66201711509223
 40
3.278481651284045
100
AcDbArc
 50
313.7617849826869
 51
27.57611277626064
  0
ARC
  5
13E
100
AcDbEntity
  8
frame_+3
  6
ByLayer
 62
  256
370
   -1
100
AcDbCircle
 10
161.478928707654
 20
38.88941349435191
 40
4.155413494351854
100
AcDbArc
 50
239.9034401928167
 51
300.0965598071855
  0
ARC
  5
13F
100
AcDbEntity
  8
frame_+3
  6
ByLayer
 62
  256
370
   -1
100
AcDbCircle
 10
165.8302972675901
 20
54.73798288490774
 40
3.278481651284045
100
AcDbArc
 50
133.7617849826889
 51
207.5761127762623
  0
ARC
  5
140
100
AcDbEntity
  8
frame_+3
  6
ByLayer
 62
  256
370
   -1
100
AcDbCircle
 10
161.478928707654
 20
53.51058650564809
 40
4.155413494351854
100
AcDbArc
 50
59.90344019281449
 51
120.0965598071833
  0
ARC
  5
141
100
AcDbEntity
  8
frame_+3
  6
ByLayer
 62
  256
370
   -1
100
AcDbCircle
 10
165.8302972675901
 20
37.66201711509223
 40
2.732481651284044
100
AcDbArc
 50
148.2726612300676
 51
240.6616249849019
  0
ARC
  5
142
100
AcDbEntity
  8
frame_+3
  6
ByLayer
 62
  256
370
   -1
100
AcDbCircle
 10
157.1275601477181
 20
37.66201711509222
 40
2.732481651284044
100
AcDbArc
 50
299.3383750150982
 51
31.72733876993257
  0
ARC
  5
143
100
AcDbEntity
  8
frame_+3
  6
ByLayer
 62
  256
370
   -1
100
AcDbCircle
 10
157.1275601477181
 20
54.73798288490774
 40
3.278481651284045
100
AcDbArc
 50
332.4238872237394
 51
46.23821501731312
  0
ARC
  5
144
100
AcDbEntity
  8
frame_+3
  6
ByLayer
 62
  256
370
   -1
100
AcDbCircle
 10
165.8302972675901
 20
54.73798288490774
 40
2.732481651284044
100
AcDbArc
 50
119.338375015098
 51
211.7273387699324
  0
ARC
  5
145
100
AcDbEntity
  8
frame_+3
  6
ByLayer
 62
  256
370
   -1
100
AcDbCircle
 10
157.1275601477181
 20
54.73798288490776
 40
2.732481651284044
100
AcDbArc
 50
328.2726612300675
 51
60.66162498490176
  0
ARC
  5
146
100
AcDbEntity
  8
frame_+3
  6
ByLayer
 62
  256
370
   -1
100
AcDbCircle
 10
100.32
 20
37.662
 40
3.27848
100
AcDbArc
 50
313.762
 51
27.5761
  0
ARC
  5
147
100
AcDbEntity
  8
frame_+3
  6
ByLayer
 62
  256
370
   -1
100
AcDbCircle
 10
100.32
 20
37.662
 40
2.73248
100
AcDbArc
 50
299.338
 51
31.7273
  0
ARC
  5
148
100
AcDbEntity
  8
frame_+3
  6
ByLayer
 62
  256
370
   -1
100
AcDbCircle
 10
86.89890358337286
 20
46.2
 40
17.77216770897302
100
AcDbArc
 50
336.7330415310196
 51
23.26695846898043
  0
ARC
  5
149
100
AcDbEntity
  8
frame_+3
  6
ByLayer
 62
  256
370
   -1
100
AcDbCircle
 10
100.3197027324098
 20
54.73798288490776
 40
3.278481651284045
100
AcDbArc
 50
332.4238872237377
 51
46.23821501731113
  0
ARC
  5
14A
100
AcDbEntity
  8
frame_+3
  6
ByLayer
 62
  256
370
   -1
100
AcDbCircle
 10
109.0224398522819
 20
54.73798288490776
 40
3.278481651284045
100
AcDbArc
 50
133.7617849826869
 51
207.5761127762606
  0
ARC
  5
14B
100
AcDbEntity
  8
frame_+3
  6
ByLayer
 62
  256
370
   -1
100
AcDbCircle
 10
100.3197027324098
 20
54.73798288490776
 40
2.732481651284044
100
AcDbArc
 50
328.2726612300676
 51
60.66162498490196
  0
ARC
  5
14C
100
AcDbEntity
  8
frame_+3
  6
ByLayer
 62
  256
370
   -1
100
AcDbCircle
 10
109.0224398522819
 20
54.73798288490777
 40
2.732481651284044
100
AcDbArc
 50
119.3383750150982
 51
211.7273387699326
  0
LINE
  5
14D
100
AcDbEntity
  8
frame_+3
  6
ByLayer
 62
    7
370
   -1
100
AcDbLine
 10
66.15000000000001
 20
2.625
 11
66.15000000000001
 21
89.77500000000001
  0
LINE
  5
14E
100
AcDbEntity
  8
frame_+3
  6
ByLayer
 62
    7
370
   -1
100
AcDbLine
 10
2.625
 20
92.40000000000001
 11
63.52500000000001
 21
92.40000000000001
  0
ARC
  5
14F
100
AcDbEntity
  8
frame_+3
  6
ByLayer
 62
    7
370
   -1
100
AcDbCircle
 10
63.52500000000001
 20
89.77500000000001
 40
2.625
100
AcDbArc
 50
0
 51
90
  0
ARC
  5
150
100
AcDbEntity
  8
frame_+3
  6
ByLayer
 62
    7
370
   -1
100
AcDbCircle
 10
2.625
 20
89.77500000000001
 40
2.625
100
AcDbArc
 50
90
 51
180
  0
LINE
  5
151
100
AcDbEntity
  8
frame_+3
  6
ByLayer
 62
    7
370
   -1
100
AcDbLine
 10
0
 20
2.625
 11
0
 21
89.77500000000001
  0
ARC
  5
152
100
AcDbEntity
  8
frame_+3
  6
ByLayer
 62
    7
370
   -1
100
AcDbCircle
 10
2.625
 20
2.625
 40
2.625
100
AcDbArc
 50
180
 51
270
  0
LINE
  5
153
100
AcDbEntity
  8
frame_+3
  6
ByLayer
 62
    7
370
   -1
100
AcDbLine
 10
2.625
 20
0
 11
63.52500000000001
 21
0
  0
ARC
  5
154
100
AcDbEntity
  8
frame_+3
  6
ByLayer
 62
    7
370
   -1
100
AcDbCircle
 10
63.52500000000001
 20
2.625
 40
2.625
100
AcDbArc
 50
270
 51
0
  0
LINE
  5
155
100
AcDbEntity
  8
frame_+3
  6
ByLayer
 62
    7
370
   -1
100
AcDbLine
 10
166.15
 20
2.625
 11
166.15
 21
89.77500000000001
  0
LINE
  5
156
100
AcDbEntity
  8
frame_+3
  6
ByLayer
 62
    7
370
   -1
100
AcDbLine
 10
102.625
 20
92.40000000000001
 11
163.525
 21
92.40000000000001
  0
ARC
  5
157
100
AcDbEntity
  8
frame_+3
  6
ByLayer
 62
    7
370
   -1
100
AcDbCircle
 10
163.525
 20
89.77500000000001
 40
2.625
100
AcDbArc
 50
0
 51
90
  0
ARC
  5
158
100
AcDbEntity
  8
frame_+3
  6
ByLayer
 62
    7
370
   -1
100
AcDbCircle
 10
102.625
 20
89.77500000000001
 40
2.625
100
AcDbArc
 50
90
 51
180
  0
ARC
  5
159
100
AcDbEntity
  8
frame_+3
  6
ByLayer
 62
    7
370
   -1
100
AcDbCircle
 10
102.625
 20
2.625
 40
2.625
100
AcDbArc
 50
180
 51
270
  0
LINE
  5
15A
100
AcDbEntity
  8
frame_+3
  6
ByLayer
 62
    7
370
   -1
100
AcDbLine
 10
102.625
 20
0
 11
163.525
 21
0
  0
ARC
  5
15B
100
AcDbEntity
  8
frame_+3
  6
ByLayer
 62
    7
370
   -1
100
AcDbCircle
 10
163.525
 20
2.625
 40
2.625
100
AcDbArc
 50
270
 51
0
  0
LINE
  5
15C
100
AcDbEntity
  8
frame_+3
  6
ByLayer
 62
    7
370
   -1
100
AcDbLine
 10
100
 20
2.625
 11
100
 21
89.77500000000001
  0
TEXT
  5
15D
100
AcDbEntity
  8
frame_+2
  6
ByLayer
 62
  256
370
   -1
100
AcDbText
 10
261.4789287076541
 20
46.2
 30
0
 40
5
  1
+2
 50
270
 41
1
 51
0
  7
italicc
 71
    0
 72
    1
 11
261.4789287076541
 21
46.2
 31
0
210
0
220
0
230
1
100
AcDbText
 73
    2
  0
ARC
  5
15E
100
AcDbEntity
  8
frame_+2
  6
ByLayer
 62
  256
370
   -1
100
AcDbCircle
 10
322.4432390013202
 20
46.20000000000002
 40
17.77216770897431
100
AcDbArc
 50
156.7330415310211
 51
203.2669584689789
  0
ARC
  5
15F
100
AcDbEntity
  8
frame_+2
  6
ByLayer
 62
  256
370
   -1
100
AcDbCircle
 10
286.8989035833729
 20
46.2
 40
17.27216770897302
100
AcDbArc
 50
335.7244305951568
 51
24.27556940484321
  0
ARC
  5
160
100
AcDbEntity
  8
frame_+2
  6
ByLayer
 62
  256
370
   -1
100
AcDbCircle
 10
322.4432390013189
 20
46.19999999999996
 40
17.27216770897302
100
AcDbArc
 50
155.7244305951567
 51
204.2755694048431
  0
ARC
  5
161
100
AcDbEntity
  8
frame_+2
  6
ByLayer
 62
  256
370
   -1
100
AcDbCircle
 10
200.861
 20
14.259
 40
13.38813822008124
100
AcDbArc
 50
272.3373058591238
 51
309.2072035049678
  0
ARC
  5
162
100
AcDbEntity
  8
frame_+2
  6
ByLayer
 62
  256
370
   -1
100
AcDbCircle
 10
214.7840000000001
 20
0.3360000000000909
 40
13.38813822008124
100
AcDbArc
 50
140.7927964950327
 51
177.6626941408767
  0
ARC
  5
163
100
AcDbEntity
  8
frame_+2
  6
ByLayer
 62
  256
370
   -1
100
AcDbCircle
 10
205.2664009775911
 20
4.736773241436239
 40
4.146037563925417
100
AcDbArc
 50
348.1445832219605
 51
101.9987502693714
  0
ARC
  5
164
100
AcDbEntity
  8
frame_+2
  6
ByLayer
 62
  256
370
   -1
100
AcDbCircle
 10
205.2664009775911
 20
4.736773241436239
 40
4.692037563925418
100
AcDbArc
 50
348.1445832219605
 51
101.9987502693714
  0
ARC
  5
165
100
AcDbEntity
  8
frame_+2
  6
ByLayer
 62
  256
370
   -1
100
AcDbCircle
 10
23.1765740361827
 20
46.20000000000001
 40
184.8299076946976
100
AcDbArc
 50
350.6541000911109
 51
356.6129156935709
  0
ARC
  5
166
100
AcDbEntity
  8
frame_+2
  6
ByLayer
 62
  256
370
   -1
100
AcDbCircle
 10
438.5776865540316
 20
46.20000000000001
 40
237.1706865540316
100
AcDbArc
 50
182.6389904930952
 51
188.9442448971546
  0
ARC
  5
167
100
AcDbEntity
  8
frame_+2
  6
ByLayer
 62
  256
370
   -1
100
AcDbCircle
 10
200.861
 20
78.14100000000001
 40
13.38813822008124
100
AcDbArc
 50
50.79279649503212
 51
87.66269414087618
  0
ARC
  5
168
100
AcDbEntity
  8
frame_+2
  6
ByLayer
 62
  256
370
   -1
100
AcDbCircle
 10
214.7840000000001
 20
92.06399999999991
 40
13.38813822008124
100
AcDbArc
 50
182.3373058591233
 51
219.2072035049673
  0
ARC
  5
169
100
AcDbEntity
  8
frame_+2
  6
ByLayer
 62
  256
370
   -1
100
AcDbCircle
 10
205.2664009775911
 20
87.66322675856377
 40
4.146037563925417
100
AcDbArc
 50
258.0012497306286
 51
11.85541677803947
  0
ARC
  5
16A
100
AcDbEntity
  8
frame_+2
  6
ByLayer
 62
  256
370
   -1
100
AcDbCircle
 10
200.3197027324098
 20
37.66201711509225
 40
2.732481651284044
100
AcDbArc
 50
299.3383750150981
 51
60.66162498490196
  0
ARC
  5
16B
100
AcDbEntity
  8
frame_+2
  6
ByLayer
 62
  256
370
   -1
100
AcDbCircle
 10
209.0224398522819
 20
37.66201711509225
 40
2.732481651284044
100
AcDbArc
 50
119.338375015098
 51
240.661624984902
  0
ARC
  5
16C
100
AcDbEntity
  8
frame_+2
  6
ByLayer
 62
  256
370
   -1
100
AcDbCircle
 10
265.289
 20
14.259
 40
13.38813822008124
100
AcDbArc
 50
230.7927964950322
 51
267.6626941408762
  0
ARC
  5
16D
100
AcDbEntity
  8
frame_+2
  6
ByLayer
 62
  256
370
   -1
100
AcDbCircle
 10
251.3659999999999
 20
0.3360000000000838
 40
13.38813822008124
100
AcDbArc
 50
2.33730585912325
 51
39.20720350496727
  0
ARC
  5
16E
100
AcDbEntity
  8
frame_+2
  6
ByLayer
 62
  256
370
   -1
100
AcDbCircle
 10
260.8835990224089
 20
4.736773241436232
 40
4.146037563925417
100
AcDbArc
 50
78.00124973062863
 51
191.8554167780395
  0
ARC
  5
16F
100
AcDbEntity
  8
frame_+2
  6
ByLayer
 62
  256
370
   -1
100
AcDbCircle
 10
265.289
 20
78.14100000000001
 40
13.38813822008124
100
AcDbArc
 50
92.3373058591238
 51
129.2072035049679
  0
ARC
  5
170
100
AcDbEntity
  8
frame_+2
  6
ByLayer
 62
  256
370
   -1
100
AcDbCircle
 10
251.3659999999999
 20
92.06399999999991
 40
13.38813822008124
100
AcDbArc
 50
320.7927964950327
 51
357.6626941408767
  0
ARC
  5
171
100
AcDbEntity
  8
frame_+2
  6
ByLayer
 62
  256
370
   -1
100
AcDbCircle
 10
260.8835990224089
 20
87.66322675856377
 40
4.146037563925417
100
AcDbArc
 50
168.1445832219605
 51
281.9987502693714
  0
ARC
  5
172
100
AcDbEntity
  8
frame_+2
  6
ByLayer
 62
  256
370
   -1
100
AcDbCircle
 10
204.6710712923459
 20
43.65344772453614
 40
4.155413494351854
100
AcDbArc
 50
230.1504290448523
 51
309.8495709551451
  0
ARC
  5
173
100
AcDbEntity
  8
frame_+2
  6
ByLayer
 62
  256
370
   -1
100
AcDbCircle
 10
312.1283363576471
 20
46.2
 40
111.2673363576471
100
AcDbArc
 50
191.0104676288321
 51
199.1664252599549
  0
ARC
  5
174
100
AcDbEntity
  8
frame_+2
  6
ByLayer
 62
  256
370
   -1
100
AcDbCircle
 10
438.5776865540316
 20
46.20000000000001
 40
236.6246865540316
100
AcDbArc
 50
185.1525549886134
 51
188.8124584980555
  0
ARC
  5
175
100
AcDbEntity
  8
frame_+2
  6
ByLayer
 62
  256
370
   -1
100
AcDbCircle
 10
438.5776865540316
 20
46.20000000000006
 40
236.6246865540316
100
AcDbArc
 50
182.7432717998958
 51
183.6382972919583
  0
ARC
  5
176
100
AcDbEntity
  8
frame_+2
  6
ByLayer
 62
  256
370
   -1
100
AcDbCircle
 10
23.1765740361827
 20
46.20000000000001
 40
184.2839076946976
100
AcDbArc
 50
351.0251973372201
 51
356.4755589785453
  0
ARC
  5
177
100
AcDbEntity
  8
frame_+2
  6
ByLayer
 62
  256
370
   -1
100
AcDbCircle
 10
200.3197027324098
 20
37.66201711509225
 40
3.278481651284045
100
AcDbArc
 50
313.7617849826889
 51
27.57611277626232
  0
ARC
  5
178
100
AcDbEntity
  8
frame_+2
  6
ByLayer
 62
  256
370
   -1
100
AcDbCircle
 10
209.0224398522819
 20
37.66201711509225
 40
3.278481651284045
100
AcDbArc
 50
152.4238872237394
 51
226.2382150173131
  0
ARC
  5
179
100
AcDbEntity
  8
frame_+2
  6
ByLayer
 62
  256
370
   -1
100
AcDbCircle
 10
204.6710712923459
 20
43.65344772453614
 40
4.701413494351854
100
AcDbArc
 50
252.0958653971777
 51
287.9041346028189
  0
ARC
  5
17A
100
AcDbEntity
  8
frame_+2
  6
ByLayer
 62
  256
370
   -1
100
AcDbCircle
 10
204.6710712923459
 20
38.88941349435191
 40
4.155413494351854
100
AcDbArc
 50
239.9034401928145
 51
300.0965598071833
  0
ARC
  5
17B
100
AcDbEntity
  8
frame_+2
  6
ByLayer
 62
  256
370
   -1
100
AcDbCircle
 10
204.7038080448242
 20
37.76948426896578
 40
3.811426028950189
100
AcDbArc
 50
229.4146180216527
 51
309.1137599319453
  0
ARC
  5
17C
100
AcDbEntity
  8
frame_+2
  6
ByLayer
 62
  256
370
   -1
100
AcDbCircle
 10
312.1283363576471
 20
46.2
 40
110.7213363576471
100
AcDbArc
 50
187.7942678161444
 51
195.0490332609346
  0
ARC
  5
17D
100
AcDbEntity
  8
frame_+2
  6
ByLayer
 62
  256
370
   -1
100
AcDbCircle
 10
312.1283363576471
 20
46.2
 40
110.7213363576471
100
AcDbArc
 50
195.7290763943054
 51
199.4296910973949
  0
ARC
  5
17E
100
AcDbEntity
  8
frame_+2
  6
ByLayer
 62
  256
370
   -1
100
AcDbCircle
 10
205.2683216983971
 20
4.745963955903328
 40
5.238037563925419
100
AcDbArc
 50
348.1445832219605
 51
62.23903540666056
  0
ARC
  5
17F
100
AcDbEntity
  8
frame_+2
  6
ByLayer
 62
  256
370
   -1
100
AcDbCircle
 10
205.2664009775911
 20
4.736773241436239
 40
5.238037563925419
100
AcDbArc
 50
70.34007906907382
 51
95.69810789151403
  0
LINE
  5
180
100
AcDbEntity
  8
frame_+2
  6
ByLayer
 62
  256
370
   -1
100
AcDbLine
 10
202.0083896985999
 20
40.46321449805139
 11
201.658527006918
 21
40.04403423018437
  0
LINE
  5
181
100
AcDbEntity
  8
frame_+2
  6
ByLayer
 62
  256
370
   -1
100
AcDbLine
 10
207.3337528860919
 20
40.46321449805126
 11
207.6836155777738
 21
40.04403423018437
  0
ARC
  5
182
100
AcDbEntity
  8
frame_+2
  6
ByLayer
 62
  256
370
   -1
100
AcDbCircle
 10
260.8835990224089
 20
4.736773241436239
 40
4.692037563925418
100
AcDbArc
 50
78.0012497306286
 51
191.8554167780395
  0
ARC
  5
183
100
AcDbEntity
  8
frame_+2
  6
ByLayer
 62
  256
370
   -1
100
AcDbCircle
 10
442.9734259638172
 20
46.19999999999998
 40
184.8299076946976
100
AcDbArc
 50
183.387084306429
 51
189.3458999088891
  0
ARC
  5
184
100
AcDbEntity
  8
frame_+2
  6
ByLayer
 62
  256
370
   -1
100
AcDbCircle
 10
27.5723134459684
 20
46.20000000000001
 40
237.1706865540316
100
AcDbArc
 50
351.0557551028454
 51
357.3610095069048
  0
ARC
  5
185
100
AcDbEntity
  8
frame_+2
  6
ByLayer
 62
  256
370
   -1
100
AcDbCircle
 10
265.8302972675902
 20
37.66201711509225
 40
2.732481651284044
100
AcDbArc
 50
119.338375015098
 51
240.6616249849019
  0
ARC
  5
186
100
AcDbEntity
  8
frame_+2
  6
ByLayer
 62
  256
370
   -1
100
AcDbCircle
 10
257.1275601477181
 20
37.66201711509225
 40
2.732481651284044
100
AcDbArc
 50
299.338375015098
 51
60.66162498490201
  0
ARC
  5
187
100
AcDbEntity
  8
frame_+2
  6
ByLayer
 62
  256
370
   -1
100
AcDbCircle
 10
261.478928707654
 20
43.65344772453614
 40
4.155413494351854
100
AcDbArc
 50
230.1504290448549
 51
309.8495709551477
  0
ARC
  5
188
100
AcDbEntity
  8
frame_+2
  6
ByLayer
 62
  256
370
   -1
100
AcDbCircle
 10
154.0216636423529
 20
46.20000000000001
 40
111.2673363576471
100
AcDbArc
 50
340.833574740045
 51
348.9895323711679
  0
ARC
  5
189
100
AcDbEntity
  8
frame_+2
  6
ByLayer
 62
  256
370
   -1
100
AcDbCircle
 10
27.5723134459684
 20
46.20000000000001
 40
236.6246865540316
100
AcDbArc
 50
351.1875415019445
 51
354.8474450113866
  0
ARC
  5
18A
100
AcDbEntity
  8
frame_+2
  6
ByLayer
 62
  256
370
   -1
100
AcDbCircle
 10
27.5723134459684
 20
46.20000000000006
 40
236.6246865540316
100
AcDbArc
 50
356.3617027080417
 51
357.2567282001042
  0
ARC
  5
18B
100
AcDbEntity
  8
frame_+2
  6
ByLayer
 62
  256
370
   -1
100
AcDbCircle
 10
442.9734259638172
 20
46.19999999999998
 40
184.2839076946976
100
AcDbArc
 50
183.5244410214547
 51
188.9748026627799
  0
ARC
  5
18C
100
AcDbEntity
  8
frame_+2
  6
ByLayer
 62
  256
370
   -1
100
AcDbCircle
 10
265.8302972675902
 20
37.66201711509225
 40
3.278481651284045
100
AcDbArc
 50
152.4238872237377
 51
226.2382150173111
  0
ARC
  5
18D
100
AcDbEntity
  8
frame_+2
  6
ByLayer
 62
  256
370
   -1
100
AcDbCircle
 10
257.1275601477181
 20
37.66201711509225
 40
3.278481651284045
100
AcDbArc
 50
313.7617849826869
 51
27.57611277626064
  0
ARC
  5
18E
100
AcDbEntity
  8
frame_+2
  6
ByLayer
 62
  256
370
   -1
100
AcDbCircle
 10
261.478928707654
 20
43.65344772453614
 40
4.701413494351854
100
AcDbArc
 50
252.0958653971811
 51
287.9041346028223
  0
ARC
  5
18F
100
AcDbEntity
  8
frame_+2
  6
ByLayer
 62
  256
370
   -1
100
AcDbCircle
 10
261.478928707654
 20
38.88941349435191
 40
4.155413494351854
100
AcDbArc
 50
239.9034401928167
 51
300.0965598071855
  0
ARC
  5
190
100
AcDbEntity
  8
frame_+2
  6
ByLayer
 62
  256
370
   -1
100
AcDbCircle
 10
261.4461919551758
 20
37.76948426896578
 40
3.811426028950189
100
AcDbArc
 50
230.8862400680547
 51
310.5853819783472
  0
ARC
  5
191
100
AcDbEntity
  8
frame_+2
  6
ByLayer
 62
  256
370
   -1
100
AcDbCircle
 10
154.0216636423529
 20
46.20000000000001
 40
110.7213363576471
100
AcDbArc
 50
344.9509667390653
 51
352.2057321838556
  0
ARC
  5
192
100
AcDbEntity
  8
frame_+2
  6
ByLayer
 62
  256
370
   -1
100
AcDbCircle
 10
154.0216636423529
 20
46.20000000000001
 40
110.7213363576471
100
AcDbArc
 50
340.5703089026051
 51
344.2709236056946
  0
ARC
  5
193
100
AcDbEntity
  8
frame_+2
  6
ByLayer
 62
  256
370
   -1
100
AcDbCircle
 10
260.8816783016029
 20
4.745963955903328
 40
5.238037563925419
100
AcDbArc
 50
117.7609645933395
 51
191.8554167780395
  0
ARC
  5
194
100
AcDbEntity
  8
frame_+2
  6
ByLayer
 62
  256
370
   -1
100
AcDbCircle
 10
260.8835990224089
 20
4.736773241436239
 40
5.238037563925419
100
AcDbArc
 50
84.30189210848597
 51
109.6599209309262
  0
LINE
  5
195
100
AcDbEntity
  8
frame_+2
  6
ByLayer
 62
  256
370
   -1
100
AcDbLine
 10
264.1416103014001
 20
40.46321449805139
 11
264.4914729930821
 21
40.04403423018435
  0
LINE
  5
196
100
AcDbEntity
  8
frame_+2
  6
ByLayer
 62
  256
370
   -1
100
AcDbLine
 10
258.8162471139081
 20
40.46321449805126
 11
258.4663844222263
 21
40.04403423018435
  0
ARC
  5
197
100
AcDbEntity
  8
frame_+2
  6
ByLayer
 62
  256
370
   -1
100
AcDbCircle
 10
205.2664009775911
 20
87.66322675856377
 40
4.692037563925418
100
AcDbArc
 50
258.0012497306286
 51
11.85541677803952
  0
ARC
  5
198
100
AcDbEntity
  8
frame_+2
  6
ByLayer
 62
  256
370
   -1
100
AcDbCircle
 10
23.1765740361827
 20
46.2
 40
184.8299076946976
100
AcDbArc
 50
3.387084306429054
 51
9.345899908889118
  0
ARC
  5
199
100
AcDbEntity
  8
frame_+2
  6
ByLayer
 62
  256
370
   -1
100
AcDbCircle
 10
438.5776865540316
 20
46.2
 40
237.1706865540316
100
AcDbArc
 50
171.0557551028454
 51
177.3610095069048
  0
ARC
  5
19A
100
AcDbEntity
  8
frame_+2
  6
ByLayer
 62
  256
370
   -1
100
AcDbCircle
 10
200.3197027324098
 20
54.73798288490776
 40
2.732481651284044
100
AcDbArc
 50
299.3383750150981
 51
60.66162498490191
  0
ARC
  5
19B
100
AcDbEntity
  8
frame_+2
  6
ByLayer
 62
  256
370
   -1
100
AcDbCircle
 10
209.0224398522819
 20
54.73798288490776
 40
2.732481651284044
100
AcDbArc
 50
119.338375015098
 51
240.661624984902
  0
ARC
  5
19C
100
AcDbEntity
  8
frame_+2
  6
ByLayer
 62
  256
370
   -1
100
AcDbCircle
 10
204.671071292346
 20
48.74655227546386
 40
4.155413494351854
100
AcDbArc
 50
50.15042904485491
 51
129.8495709551477
  0
ARC
  5
19D
100
AcDbEntity
  8
frame_+2
  6
ByLayer
 62
  256
370
   -1
100
AcDbCircle
 10
312.1283363576471
 20
46.2
 40
111.2673363576471
100
AcDbArc
 50
160.8335747400451
 51
168.9895323711679
  0
ARC
  5
19E
100
AcDbEntity
  8
frame_+2
  6
ByLayer
 62
  256
370
   -1
100
AcDbCircle
 10
438.5776865540316
 20
46.2
 40
236.6246865540316
100
AcDbArc
 50
171.1875415019445
 51
174.8474450113866
  0
ARC
  5
19F
100
AcDbEntity
  8
frame_+2
  6
ByLayer
 62
  256
370
   -1
100
AcDbCircle
 10
438.5776865540316
 20
46.19999999999994
 40
236.6246865540316
100
AcDbArc
 50
176.3617027080417
 51
177.2567282001042
  0
ARC
  5
1A0
100
AcDbEntity
  8
frame_+2
  6
ByLayer
 62
  256
370
   -1
100
AcDbCircle
 10
23.1765740361827
 20
46.2
 40
184.2839076946976
100
AcDbArc
 50
3.524441021454712
 51
8.97480266277992
  0
ARC
  5
1A1
100
AcDbEntity
  8
frame_+2
  6
ByLayer
 62
  256
370
   -1
100
AcDbCircle
 10
200.3197027324098
 20
54.73798288490776
 40
3.278481651284045
100
AcDbArc
 50
332.4238872237377
 51
46.23821501731113
  0
ARC
  5
1A2
100
AcDbEntity
  8
frame_+2
  6
ByLayer
 62
  256
370
   -1
100
AcDbCircle
 10
209.0224398522819
 20
54.73798288490776
 40
3.278481651284045
100
AcDbArc
 50
133.7617849826869
 51
207.5761127762606
  0
ARC
  5
1A3
100
AcDbEntity
  8
frame_+2
  6
ByLayer
 62
  256
370
   -1
100
AcDbCircle
 10
204.671071292346
 20
48.74655227546386
 40
4.701413494351854
100
AcDbArc
 50
72.09586539718106
 51
107.9041346028223
  0
ARC
  5
1A4
100
AcDbEntity
  8
frame_+2
  6
ByLayer
 62
  256
370
   -1
100
AcDbCircle
 10
204.671071292346
 20
53.51058650564809
 40
4.155413494351854
100
AcDbArc
 50
59.90344019281673
 51
120.0965598071855
  0
ARC
  5
1A5
100
AcDbEntity
  8
frame_+2
  6
ByLayer
 62
  256
370
   -1
100
AcDbCircle
 10
204.7038080448243
 20
54.63051573103422
 40
3.811426028950189
100
AcDbArc
 50
50.88624006805469
 51
130.5853819783473
  0
ARC
  5
1A6
100
AcDbEntity
  8
frame_+2
  6
ByLayer
 62
  256
370
   -1
100
AcDbCircle
 10
312.1283363576471
 20
46.2
 40
110.7213363576471
100
AcDbArc
 50
164.9509667390654
 51
172.2057321838556
  0
ARC
  5
1A7
100
AcDbEntity
  8
frame_+2
  6
ByLayer
 62
  256
370
   -1
100
AcDbCircle
 10
312.1283363576471
 20
46.2
 40
110.7213363576471
100
AcDbArc
 50
160.5703089026051
 51
164.2709236056946
  0
ARC
  5
1A8
100
AcDbEntity
  8
frame_+2
  6
ByLayer
 62
  256
370
   -1
100
AcDbCircle
 10
205.2683216983971
 20
87.65403604409667
 40
5.238037563925419
100
AcDbArc
 50
297.7609645933395
 51
11.85541677803952
  0
ARC
  5
1A9
100
AcDbEntity
  8
frame_+2
  6
ByLayer
 62
  256
370
   -1
100
AcDbCircle
 10
205.2664009775911
 20
87.66322675856377
 40
5.238037563925419
100
AcDbArc
 50
264.301892108486
 51
289.6599209309261
  0
LINE
  5
1AA
100
AcDbEntity
  8
frame_+2
  6
ByLayer
 62
  256
370
   -1
100
AcDbLine
 10
202.0083896985999
 20
51.93678550194862
 11
201.658527006918
 21
52.35596576981564
  0
LINE
  5
1AB
100
AcDbEntity
  8
frame_+2
  6
ByLayer
 62
  256
370
   -1
100
AcDbLine
 10
207.3337528860919
 20
51.93678550194873
 11
207.6836155777738
 21
52.35596576981564
  0
ARC
  5
1AC
100
AcDbEntity
  8
frame_+2
  6
ByLayer
 62
  256
370
   -1
100
AcDbCircle
 10
260.8835990224089
 20
87.66322675856377
 40
4.692037563925418
100
AcDbArc
 50
168.1445832219605
 51
281.9987502693714
  0
ARC
  5
1AD
100
AcDbEntity
  8
frame_+2
  6
ByLayer
 62
  256
370
   -1
100
AcDbCircle
 10
442.9734259638172
 20
46.20000000000002
 40
184.8299076946976
100
AcDbArc
 50
170.6541000911109
 51
176.612915693571
  0
ARC
  5
1AE
100
AcDbEntity
  8
frame_+2
  6
ByLayer
 62
  256
370
   -1
100
AcDbCircle
 10
27.5723134459684
 20
46.2
 40
237.1706865540316
100
AcDbArc
 50
2.638990493095198
 51
8.944244897154622
  0
ARC
  5
1AF
100
AcDbEntity
  8
frame_+2
  6
ByLayer
 62
  256
370
   -1
100
AcDbCircle
 10
265.8302972675902
 20
54.73798288490776
 40
2.732481651284044
100
AcDbArc
 50
119.3383750150981
 51
240.661624984902
  0
ARC
  5
1B0
100
AcDbEntity
  8
frame_+2
  6
ByLayer
 62
  256
370
   -1
100
AcDbCircle
 10
257.1275601477181
 20
54.73798288490776
 40
2.732481651284044
100
AcDbArc
 50
299.338375015098
 51
60.66162498490201
  0
ARC
  5
1B1
100
AcDbEntity
  8
frame_+2
  6
ByLayer
 62
  256
370
   -1
100
AcDbCircle
 10
261.478928707654
 20
48.74655227546386
 40
4.155413494351854
100
AcDbArc
 50
50.15042904485231
 51
129.8495709551451
  0
ARC
  5
1B2
100
AcDbEntity
  8
frame_+2
  6
ByLayer
 62
  256
370
   -1
100
AcDbCircle
 10
154.0216636423529
 20
46.2
 40
111.2673363576471
100
AcDbArc
 50
11.01046762883211
 51
19.16642525995494
  0
ARC
  5
1B3
100
AcDbEntity
  8
frame_+2
  6
ByLayer
 62
  256
370
   -1
100
AcDbCircle
 10
27.5723134459684
 20
46.2
 40
236.6246865540316
100
AcDbArc
 50
5.152554988613397
 51
8.812458498055536
  0
ARC
  5
1B4
100
AcDbEntity
  8
frame_+2
  6
ByLayer
 62
  256
370
   -1
100
AcDbCircle
 10
27.5723134459684
 20
46.19999999999994
 40
236.6246865540316
100
AcDbArc
 50
2.743271799895778
 51
3.638297291958265
  0
ARC
  5
1B5
100
AcDbEntity
  8
frame_+2
  6
ByLayer
 62
  256
370
   -1
100
AcDbCircle
 10
442.9734259638172
 20
46.20000000000002
 40
184.2839076946976
100
AcDbArc
 50
171.0251973372201
 51
176.4755589785453
  0
ARC
  5
1B6
100
AcDbEntity
  8
frame_+2
  6
ByLayer
 62
  256
370
   -1
100
AcDbCircle
 10
265.8302972675902
 20
54.73798288490776
 40
3.278481651284045
100
AcDbArc
 50
133.7617849826889
 51
207.5761127762623
  0
ARC
  5
1B7
100
AcDbEntity
  8
frame_+2
  6
ByLayer
 62
  256
370
   -1
100
AcDbCircle
 10
257.1275601477181
 20
54.73798288490776
 40
3.278481651284045
100
AcDbArc
 50
332.4238872237394
 51
46.23821501731307
  0
ARC
  5
1B8
100
AcDbEntity
  8
frame_+2
  6
ByLayer
 62
  256
370
   -1
100
AcDbCircle
 10
261.478928707654
 20
48.74655227546386
 40
4.701413494351854
100
AcDbArc
 50
72.0958653971777
 51
107.9041346028189
  0
ARC
  5
1B9
100
AcDbEntity
  8
frame_+2
  6
ByLayer
 62
  256
370
   -1
100
AcDbCircle
 10
261.478928707654
 20
53.51058650564809
 40
4.155413494351854
100
AcDbArc
 50
59.90344019281449
 51
120.0965598071833
  0
ARC
  5
1BA
100
AcDbEntity
  8
frame_+2
  6
ByLayer
 62
  256
370
   -1
100
AcDbCircle
 10
261.4461919551758
 20
54.63051573103422
 40
3.811426028950189
100
AcDbArc
 50
49.41461802165273
 51
129.1137599319453
  0
ARC
  5
1BB
100
AcDbEntity
  8
frame_+2
  6
ByLayer
 62
  256
370
   -1
100
AcDbCircle
 10
154.0216636423529
 20
46.2
 40
110.7213363576471
100
AcDbArc
 50
7.794267816144454
 51
15.04903326093464
  0
ARC
  5
1BC
100
AcDbEntity
  8
frame_+2
  6
ByLayer
 62
  256
370
   -1
100
AcDbCircle
 10
154.0216636423529
 20
46.2
 40
110.7213363576471
100
AcDbArc
 50
15.72907639430542
 51
19.42969109739488
  0
ARC
  5
1BD
100
AcDbEntity
  8
frame_+2
  6
ByLayer
 62
  256
370
   -1
100
AcDbCircle
 10
260.8816783016029
 20
87.65403604409667
 40
5.238037563925419
100
AcDbArc
 50
168.1445832219605
 51
242.2390354066605
  0
ARC
  5
1BE
100
AcDbEntity
  8
frame_+2
  6
ByLayer
 62
  256
370
   -1
100
AcDbCircle
 10
260.8835990224089
 20
87.66322675856377
 40
5.238037563925419
100
AcDbArc
 50
250.3400790690739
 51
275.698107891514
  0
LINE
  5
1BF
100
AcDbEntity
  8
frame_+2
  6
ByLayer
 62
  256
370
   -1
100
AcDbLine
 10
264.1416103014001
 20
51.93678550194862
 11
264.4914729930821
 21
52.35596576981565
  0
LINE
  5
1C0
100
AcDbEntity
  8
frame_+2
  6
ByLayer
 62
  256
370
   -1
100
AcDbLine
 10
258.8162471139081
 20
51.93678550194873
 11
258.4663844222263
 21
52.35596576981565
  0
LINE
  5
1C1
100
AcDbEntity
  8
frame_+2
  6
ByLayer
 62
  256
370
   -1
100
AcDbLine
 10
209.8583533511399
 20
3.772828273947454
 11
210.3946274230857
 21
3.669847262362001
  0
LINE
  5
1C2
100
AcDbEntity
  8
frame_+2
  6
ByLayer
 62
  256
370
   -1
100
AcDbLine
 10
256.2916466488601
 20
3.772828273947456
 11
255.7553725769143
 21
3.669847262362003
  0
LINE
  5
1C3
100
AcDbEntity
  8
frame_+2
  6
ByLayer
 62
  256
370
   -1
100
AcDbLine
 10
210.3946274230858
 20
88.73015273763799
 11
209.8583533511399
 21
88.62717172605255
  0
LINE
  5
1C4
100
AcDbEntity
  8
frame_+2
  6
ByLayer
 62
  256
370
   -1
100
AcDbLine
 10
255.7553725769143
 20
88.73015273763799
 11
256.2916466488601
 21
88.62717172605255
  0
ARC
  5
1C5
100
AcDbEntity
  8
frame_+2
  6
ByLayer
 62
  256
370
   -1
100
AcDbCircle
 10
343.7067609986798
 20
46.20000000000002
 40
17.77216770897431
100
AcDbArc
 50
336.7330415310211
 51
23.26695846897885
  0
ARC
  5
1C6
100
AcDbEntity
  8
frame_+2
  6
ByLayer
 62
  256
370
   -1
100
AcDbCircle
 10
379.2510964166271
 20
46.2
 40
17.77216770897302
100
AcDbArc
 50
156.7330415310196
 51
203.2669584689804
  0
ARC
  5
1C7
100
AcDbEntity
  8
frame_+2
  6
ByLayer
 62
  256
370
   -1
100
AcDbCircle
 10
379.2510964166271
 20
46.2
 40
17.27216770897302
100
AcDbArc
 50
155.7244305951567
 51
204.2755694048432
  0
ARC
  5
1C8
100
AcDbEntity
  8
frame_+2
  6
ByLayer
 62
  256
370
   -1
100
AcDbCircle
 10
343.7067609986811
 20
46.19999999999995
 40
17.27216770897302
100
AcDbArc
 50
335.7244305951569
 51
24.27556940484327
  0
ARC
  5
1C9
100
AcDbEntity
  8
frame_+2
  6
ByLayer
 62
  256
370
   -1
100
AcDbCircle
 10
300.861
 20
14.259
 40
13.38813822008124
100
AcDbArc
 50
272.3373058591238
 51
309.2072035049678
  0
ARC
  5
1CA
100
AcDbEntity
  8
frame_+2
  6
ByLayer
 62
  256
370
   -1
100
AcDbCircle
 10
314.7840000000001
 20
0.3360000000000909
 40
13.38813822008124
100
AcDbArc
 50
140.7927964950327
 51
177.6626941408767
  0
ARC
  5
1CB
100
AcDbEntity
  8
frame_+2
  6
ByLayer
 62
  256
370
   -1
100
AcDbCircle
 10
305.2664009775911
 20
4.736773241436239
 40
4.146037563925417
100
AcDbArc
 50
348.1445832219605
 51
101.9987502693714
  0
ARC
  5
1CC
100
AcDbEntity
  8
frame_+2
  6
ByLayer
 62
  256
370
   -1
100
AcDbCircle
 10
305.2664009775911
 20
4.736773241436239
 40
4.692037563925418
100
AcDbArc
 50
348.1445832219605
 51
101.9987502693714
  0
ARC
  5
1CD
100
AcDbEntity
  8
frame_+2
  6
ByLayer
 62
  256
370
   -1
100
AcDbCircle
 10
123.1765740361827
 20
46.20000000000001
 40
184.8299076946976
100
AcDbArc
 50
350.6541000911109
 51
356.6129156935709
  0
ARC
  5
1CE
100
AcDbEntity
  8
frame_+2
  6
ByLayer
 62
  256
370
   -1
100
AcDbCircle
 10
538.5776865540315
 20
46.20000000000001
 40
237.1706865540316
100
AcDbArc
 50
182.6389904930952
 51
188.9442448971546
  0
ARC
  5
1CF
100
AcDbEntity
  8
frame_+2
  6
ByLayer
 62
  256
370
   -1
100
AcDbCircle
 10
300.861
 20
78.14100000000001
 40
13.38813822008124
100
AcDbArc
 50
50.79279649503212
 51
87.66269414087618
  0
ARC
  5
1D0
100
AcDbEntity
  8
frame_+2
  6
ByLayer
 62
  256
370
   -1
100
AcDbCircle
 10
314.7840000000001
 20
92.06399999999991
 40
13.38813822008124
100
AcDbArc
 50
182.3373058591233
 51
219.2072035049673
  0
ARC
  5
1D1
100
AcDbEntity
  8
frame_+2
  6
ByLayer
 62
  256
370
   -1
100
AcDbCircle
 10
305.2664009775911
 20
87.66322675856377
 40
4.146037563925417
100
AcDbArc
 50
258.0012497306286
 51
11.85541677803947
  0
ARC
  5
1D2
100
AcDbEntity
  8
frame_+2
  6
ByLayer
 62
  256
370
   -1
100
AcDbCircle
 10
365.289
 20
14.259
 40
13.38813822008124
100
AcDbArc
 50
230.7927964950322
 51
267.6626941408762
  0
ARC
  5
1D3
100
AcDbEntity
  8
frame_+2
  6
ByLayer
 62
  256
370
   -1
100
AcDbCircle
 10
351.3659999999999
 20
0.3360000000000838
 40
13.38813822008124
100
AcDbArc
 50
2.33730585912325
 51
39.20720350496727
  0
ARC
  5
1D4
100
AcDbEntity
  8
frame_+2
  6
ByLayer
 62
  256
370
   -1
100
AcDbCircle
 10
360.8835990224089
 20
4.736773241436232
 40
4.146037563925417
100
AcDbArc
 50
78.00124973062863
 51
191.8554167780395
  0
ARC
  5
1D5
100
AcDbEntity
  8
frame_+2
  6
ByLayer
 62
  256
370
   -1
100
AcDbCircle
 10
365.289
 20
78.14100000000001
 40
13.38813822008124
100
AcDbArc
 50
92.3373058591238
 51
129.2072035049679
  0
ARC
  5
1D6
100
AcDbEntity
  8
frame_+2
  6
ByLayer
 62
  256
370
   -1
100
AcDbCircle
 10
351.3659999999999
 20
92.06399999999991
 40
13.38813822008124
100
AcDbArc
 50
320.7927964950327
 51
357.6626941408767
  0
ARC
  5
1D7
100
AcDbEntity
  8
frame_+2
  6
ByLayer
 62
  256
370
   -1
100
AcDbCircle
 10
360.8835990224089
 20
87.66322675856377
 40
4.146037563925417
100
AcDbArc
 50
168.1445832219605
 51
281.9987502693714
  0
ARC
  5
1D8
100
AcDbEntity
  8
frame_+2
  6
ByLayer
 62
  256
370
   -1
100
AcDbCircle
 10
412.1283363576471
 20
46.2
 40
111.2673363576471
100
AcDbArc
 50
191.0104676288321
 51
199.1664252599549
  0
ARC
  5
1D9
100
AcDbEntity
  8
frame_+2
  6
ByLayer
 62
  256
370
   -1
100
AcDbCircle
 10
538.5776865540315
 20
46.20000000000001
 40
236.6246865540316
100
AcDbArc
 50
185.1525549886134
 51
188.8124584980555
  0
ARC
  5
1DA
100
AcDbEntity
  8
frame_+2
  6
ByLayer
 62
  256
370
   -1
100
AcDbCircle
 10
538.5776865540315
 20
46.20000000000006
 40
236.6246865540316
100
AcDbArc
 50
182.7432717998958
 51
183.6382972919583
  0
ARC
  5
1DB
100
AcDbEntity
  8
frame_+2
  6
ByLayer
 62
  256
370
   -1
100
AcDbCircle
 10
123.1765740361827
 20
46.20000000000001
 40
184.2839076946976
100
AcDbArc
 50
351.0251973372201
 51
356.4755589785453
  0
ARC
  5
1DC
100
AcDbEntity
  8
frame_+2
  6
ByLayer
 62
  256
370
   -1
100
AcDbCircle
 10
309.0224398522819
 20
37.66201711509225
 40
3.278481651284045
100
AcDbArc
 50
152.4238872237394
 51
226.2382150173131
  0
ARC
  5
1DD
100
AcDbEntity
  8
frame_+2
  6
ByLayer
 62
  256
370
   -1
100
AcDbCircle
 10
304.6710712923459
 20
38.88941349435191
 40
4.155413494351854
100
AcDbArc
 50
239.9034401928145
 51
300.0965598071833
  0
ARC
  5
1DE
100
AcDbEntity
  8
frame_+2
  6
ByLayer
 62
  256
370
   -1
100
AcDbCircle
 10
304.7038080448242
 20
37.76948426896578
 40
3.811426028950189
100
AcDbArc
 50
229.4146180216527
 51
309.1137599319453
  0
ARC
  5
1DF
100
AcDbEntity
  8
frame_+2
  6
ByLayer
 62
  256
370
   -1
100
AcDbCircle
 10
412.1283363576471
 20
46.2
 40
110.7213363576471
100
AcDbArc
 50
187.7942678161444
 51
195.0490332609346
  0
ARC
  5
1E0
100
AcDbEntity
  8
frame_+2
  6
ByLayer
 62
  256
370
   -1
100
AcDbCircle
 10
412.1283363576471
 20
46.2
 40
110.7213363576471
100
AcDbArc
 50
195.7290763943054
 51
199.4296910973949
  0
ARC
  5
1E1
100
AcDbEntity
  8
frame_+2
  6
ByLayer
 62
  256
370
   -1
100
AcDbCircle
 10
305.2683216983971
 20
4.745963955903328
 40
5.238037563925419
100
AcDbArc
 50
348.1445832219605
 51
62.23903540666056
  0
ARC
  5
1E2
100
AcDbEntity
  8
frame_+2
  6
ByLayer
 62
  256
370
   -1
100
AcDbCircle
 10
305.2664009775911
 20
4.736773241436239
 40
5.238037563925419
100
AcDbArc
 50
70.34007906907382
 51
95.69810789151403
  0
ARC
  5
1E3
100
AcDbEntity
  8
frame_+2
  6
ByLayer
 62
  256
370
   -1
100
AcDbCircle
 10
316.1149451352466
 20
34.90624227629839
 40
32.30185628186919
100
AcDbArc
 50
273.212865027539
 51
301.6715368112289
  0
ARC
  5
1E4
100
AcDbEntity
  8
frame_+2
  6
ByLayer
 62
  256
370
   -1
100
AcDbCircle
 10
350.0350548647534
 20
34.90624227629839
 40
32.30185628186919
100
AcDbArc
 50
238.3284631887711
 51
266.787134972461
  0
ARC
  5
1E5
100
AcDbEntity
  8
frame_+2
  6
ByLayer
 62
  256
370
   -1
100
AcDbCircle
 10
316.3881513753819
 20
33.49438574927521
 40
30.42080579675883
100
AcDbArc
 50
258.6372171469158
 51
303.2665025313431
  0
ARC
  5
1E6
100
AcDbEntity
  8
frame_+2
  6
ByLayer
 62
  256
370
   -1
100
AcDbCircle
 10
360.8835990224089
 20
4.736773241436239
 40
4.692037563925418
100
AcDbArc
 50
78.0012497306286
 51
191.8554167780395
  0
ARC
  5
1E7
100
AcDbEntity
  8
frame_+2
  6
ByLayer
 62
  256
370
   -1
100
AcDbCircle
 10
542.9734259638171
 20
46.19999999999998
 40
184.8299076946976
100
AcDbArc
 50
183.387084306429
 51
189.3458999088891
  0
ARC
  5
1E8
100
AcDbEntity
  8
frame_+2
  6
ByLayer
 62
  256
370
   -1
100
AcDbCircle
 10
127.5723134459684
 20
46.20000000000001
 40
237.1706865540316
100
AcDbArc
 50
351.0557551028454
 51
357.3610095069048
  0
ARC
  5
1E9
100
AcDbEntity
  8
frame_+2
  6
ByLayer
 62
  256
370
   -1
100
AcDbCircle
 10
333.075
 20
95.55548418106521
 40
94.67348418106522
100
AcDbArc
 50
255.8046559085282
 51
284.1953440914718
  0
ARC
  5
1EA
100
AcDbEntity
  8
frame_+2
  6
ByLayer
 62
  256
370
   -1
100
AcDbCircle
 10
254.0216636423529
 20
46.20000000000001
 40
111.2673363576471
100
AcDbArc
 50
340.833574740045
 51
348.9895323711679
  0
ARC
  5
1EB
100
AcDbEntity
  8
frame_+2
  6
ByLayer
 62
  256
370
   -1
100
AcDbCircle
 10
127.5723134459684
 20
46.20000000000001
 40
236.6246865540316
100
AcDbArc
 50
351.1875415019445
 51
354.8474450113866
  0
ARC
  5
1EC
100
AcDbEntity
  8
frame_+2
  6
ByLayer
 62
  256
370
   -1
100
AcDbCircle
 10
127.5723134459684
 20
46.20000000000006
 40
236.6246865540316
100
AcDbArc
 50
356.3617027080417
 51
357.2567282001042
  0
ARC
  5
1ED
100
AcDbEntity
  8
frame_+2
  6
ByLayer
 62
  256
370
   -1
100
AcDbCircle
 10
542.9734259638171
 20
46.19999999999998
 40
184.2839076946976
100
AcDbArc
 50
183.5244410214547
 51
188.9748026627799
  0
ARC
  5
1EE
100
AcDbEntity
  8
frame_+2
  6
ByLayer
 62
  256
370
   -1
100
AcDbCircle
 10
361.4461919551758
 20
37.76948426896578
 40
3.811426028950189
100
AcDbArc
 50
230.8862400680547
 51
310.5853819783472
  0
ARC
  5
1EF
100
AcDbEntity
  8
frame_+2
  6
ByLayer
 62
  256
370
   -1
100
AcDbCircle
 10
254.0216636423529
 20
46.20000000000001
 40
110.7213363576471
100
AcDbArc
 50
344.9509667390653
 51
352.2057321838556
  0
ARC
  5
1F0
100
AcDbEntity
  8
frame_+2
  6
ByLayer
 62
  256
370
   -1
100
AcDbCircle
 10
254.0216636423529
 20
46.20000000000001
 40
110.7213363576471
100
AcDbArc
 50
340.5703089026051
 51
344.2709236056946
  0
ARC
  5
1F1
100
AcDbEntity
  8
frame_+2
  6
ByLayer
 62
  256
370
   -1
100
AcDbCircle
 10
360.8816783016029
 20
4.745963955903328
 40
5.238037563925419
100
AcDbArc
 50
117.7609645933395
 51
191.8554167780395
  0
ARC
  5
1F2
100
AcDbEntity
  8
frame_+2
  6
ByLayer
 62
  256
370
   -1
100
AcDbCircle
 10
360.8835990224089
 20
4.736773241436239
 40
5.238037563925419
100
AcDbArc
 50
84.30189210848597
 51
109.6599209309262
  0
ARC
  5
1F3
100
AcDbEntity
  8
frame_+2
  6
ByLayer
 62
  256
370
   -1
100
AcDbCircle
 10
333.075
 20
95.55548418106521
 40
94.12748418106521
100
AcDbArc
 50
260.7380466299917
 51
279.2619533700085
  0
ARC
  5
1F4
100
AcDbEntity
  8
frame_+2
  6
ByLayer
 62
  256
370
   -1
100
AcDbCircle
 10
316.1149451352466
 20
34.90624227629839
 40
32.30185628186919
100
AcDbArc
 50
273.212865027539
 51
301.6715368112289
  0
ARC
  5
1F5
100
AcDbEntity
  8
frame_+2
  6
ByLayer
 62
  256
370
   -1
100
AcDbCircle
 10
349.7618486246181
 20
33.49438574927521
 40
30.42080579675883
100
AcDbArc
 50
236.7334974686569
 51
281.3627828530842
  0
ARC
  5
1F6
100
AcDbEntity
  8
frame_+2
  6
ByLayer
 62
  256
370
   -1
100
AcDbCircle
 10
305.2664009775911
 20
87.66322675856377
 40
4.692037563925418
100
AcDbArc
 50
258.0012497306286
 51
11.85541677803952
  0
ARC
  5
1F7
100
AcDbEntity
  8
frame_+2
  6
ByLayer
 62
  256
370
   -1
100
AcDbCircle
 10
123.1765740361827
 20
46.2
 40
184.8299076946976
100
AcDbArc
 50
3.387084306429054
 51
9.345899908889118
  0
ARC
  5
1F8
100
AcDbEntity
  8
frame_+2
  6
ByLayer
 62
  256
370
   -1
100
AcDbCircle
 10
538.5776865540315
 20
46.2
 40
237.1706865540316
100
AcDbArc
 50
171.0557551028454
 51
177.3610095069048
  0
ARC
  5
1F9
100
AcDbEntity
  8
frame_+2
  6
ByLayer
 62
  256
370
   -1
100
AcDbCircle
 10
412.1283363576471
 20
46.2
 40
111.2673363576471
100
AcDbArc
 50
160.8335747400451
 51
168.9895323711679
  0
ARC
  5
1FA
100
AcDbEntity
  8
frame_+2
  6
ByLayer
 62
  256
370
   -1
100
AcDbCircle
 10
538.5776865540315
 20
46.2
 40
236.6246865540316
100
AcDbArc
 50
171.1875415019445
 51
174.8474450113866
  0
ARC
  5
1FB
100
AcDbEntity
  8
frame_+2
  6
ByLayer
 62
  256
370
   -1
100
AcDbCircle
 10
538.5776865540315
 20
46.19999999999994
 40
236.6246865540316
100
AcDbArc
 50
176.3617027080417
 51
177.2567282001042
  0
ARC
  5
1FC
100
AcDbEntity
  8
frame_+2
  6
ByLayer
 62
  256
370
   -1
100
AcDbCircle
 10
123.1765740361827
 20
46.2
 40
184.2839076946976
100
AcDbArc
 50
3.524441021454712
 51
8.97480266277992
  0
ARC
  5
1FD
100
AcDbEntity
  8
frame_+2
  6
ByLayer
 62
  256
370
   -1
100
AcDbCircle
 10
304.671071292346
 20
53.51058650564809
 40
4.155413494351854
100
AcDbArc
 50
59.90344019281673
 51
120.0965598071855
  0
ARC
  5
1FE
100
AcDbEntity
  8
frame_+2
  6
ByLayer
 62
  256
370
   -1
100
AcDbCircle
 10
304.7038080448242
 20
54.63051573103422
 40
3.811426028950189
100
AcDbArc
 50
50.88624006805469
 51
130.5853819783473
  0
ARC
  5
1FF
100
AcDbEntity
  8
frame_+2
  6
ByLayer
 62
  256
370
   -1
100
AcDbCircle
 10
412.1283363576471
 20
46.2
 40
110.7213363576471
100
AcDbArc
 50
164.9509667390654
 51
172.2057321838556
  0
ARC
  5
200
100
AcDbEntity
  8
frame_+2
  6
ByLayer
 62
  256
370
   -1
100
AcDbCircle
 10
412.1283363576471
 20
46.2
 40
110.7213363576471
100
AcDbArc
 50
160.5703089026051
 51
164.2709236056946
  0
ARC
  5
201
100
AcDbEntity
  8
frame_+2
  6
ByLayer
 62
  256
370
   -1
100
AcDbCircle
 10
305.2683216983971
 20
87.65403604409667
 40
5.238037563925419
100
AcDbArc
 50
297.7609645933395
 51
11.85541677803952
  0
ARC
  5
202
100
AcDbEntity
  8
frame_+2
  6
ByLayer
 62
  256
370
   -1
100
AcDbCircle
 10
305.2664009775911
 20
87.66322675856377
 40
5.238037563925419
100
AcDbArc
 50
264.301892108486
 51
289.6599209309261
  0
ARC
  5
203
100
AcDbEntity
  8
frame_+2
  6
ByLayer
 62
  256
370
   -1
100
AcDbCircle
 10
316.1149451352466
 20
57.49375772370162
 40
32.30185628186919
100
AcDbArc
 50
58.32846318877115
 51
86.78713497246096
  0
ARC
  5
204
100
AcDbEntity
  8
frame_+2
  6
ByLayer
 62
  256
370
   -1
100
AcDbCircle
 10
350.0350548647534
 20
57.49375772370162
 40
32.30185628186919
100
AcDbArc
 50
93.21286502753904
 51
121.6715368112289
  0
ARC
  5
205
100
AcDbEntity
  8
frame_+2
  6
ByLayer
 62
  256
370
   -1
100
AcDbCircle
 10
316.3881513753819
 20
58.9056142507248
 40
30.42080579675883
100
AcDbArc
 50
56.73349746865691
 51
101.3627828530842
  0
ARC
  5
206
100
AcDbEntity
  8
frame_+2
  6
ByLayer
 62
  256
370
   -1
100
AcDbCircle
 10
360.8835990224089
 20
87.66322675856377
 40
4.692037563925418
100
AcDbArc
 50
168.1445832219605
 51
281.9987502693714
  0
ARC
  5
207
100
AcDbEntity
  8
frame_+2
  6
ByLayer
 62
  256
370
   -1
100
AcDbCircle
 10
542.9734259638171
 20
46.20000000000002
 40
184.8299076946976
100
AcDbArc
 50
170.6541000911109
 51
176.612915693571
  0
ARC
  5
208
100
AcDbEntity
  8
frame_+2
  6
ByLayer
 62
  256
370
   -1
100
AcDbCircle
 10
127.5723134459684
 20
46.2
 40
237.1706865540316
100
AcDbArc
 50
2.638990493095198
 51
8.944244897154622
  0
ARC
  5
209
100
AcDbEntity
  8
frame_+2
  6
ByLayer
 62
  256
370
   -1
100
AcDbCircle
 10
333.075
 20
-3.155484181065205
 40
94.67348418106522
100
AcDbArc
 50
75.80465590852818
 51
104.1953440914718
  0
ARC
  5
20A
100
AcDbEntity
  8
frame_+2
  6
ByLayer
 62
  256
370
   -1
100
AcDbCircle
 10
254.0216636423529
 20
46.2
 40
111.2673363576471
100
AcDbArc
 50
11.01046762883211
 51
19.16642525995494
  0
ARC
  5
20B
100
AcDbEntity
  8
frame_+2
  6
ByLayer
 62
  256
370
   -1
100
AcDbCircle
 10
127.5723134459684
 20
46.2
 40
236.6246865540316
100
AcDbArc
 50
5.152554988613397
 51
8.812458498055536
  0
ARC
  5
20C
100
AcDbEntity
  8
frame_+2
  6
ByLayer
 62
  256
370
   -1
100
AcDbCircle
 10
127.5723134459684
 20
46.19999999999994
 40
236.6246865540316
100
AcDbArc
 50
2.743271799895778
 51
3.638297291958265
  0
ARC
  5
20D
100
AcDbEntity
  8
frame_+2
  6
ByLayer
 62
  256
370
   -1
100
AcDbCircle
 10
542.9734259638171
 20
46.20000000000002
 40
184.2839076946976
100
AcDbArc
 50
171.0251973372201
 51
176.4755589785453
  0
ARC
  5
20E
100
AcDbEntity
  8
frame_+2
  6
ByLayer
 62
  256
370
   -1
100
AcDbCircle
 10
361.4461919551758
 20
54.63051573103422
 40
3.811426028950189
100
AcDbArc
 50
49.41461802165273
 51
129.1137599319453
  0
ARC
  5
20F
100
AcDbEntity
  8
frame_+2
  6
ByLayer
 62
  256
370
   -1
100
AcDbCircle
 10
254.0216636423529
 20
46.2
 40
110.7213363576471
100
AcDbArc
 50
7.794267816144454
 51
15.04903326093464
  0
ARC
  5
210
100
AcDbEntity
  8
frame_+2
  6
ByLayer
 62
  256
370
   -1
100
AcDbCircle
 10
254.0216636423529
 20
46.2
 40
110.7213363576471
100
AcDbArc
 50
15.72907639430542
 51
19.42969109739488
  0
ARC
  5
211
100
AcDbEntity
  8
frame_+2
  6
ByLayer
 62
  256
370
   -1
100
AcDbCircle
 10
360.8816783016029
 20
87.65403604409667
 40
5.238037563925419
100
AcDbArc
 50
168.1445832219605
 51
242.2390354066605
  0
ARC
  5
212
100
AcDbEntity
  8
frame_+2
  6
ByLayer
 62
  256
370
   -1
100
AcDbCircle
 10
360.8835990224089
 20
87.66322675856377
 40
5.238037563925419
100
AcDbArc
 50
250.3400790690739
 51
275.698107891514
  0
ARC
  5
213
100
AcDbEntity
  8
frame_+2
  6
ByLayer
 62
  256
370
   -1
100
AcDbCircle
 10
333.075
 20
-3.155484181065205
 40
94.12748418106521
100
AcDbArc
 50
80.73804662999153
 51
99.26195337000833
  0
ARC
  5
214
100
AcDbEntity
  8
frame_+2
  6
ByLayer
 62
  256
370
   -1
100
AcDbCircle
 10
316.1149451352466
 20
57.49375772370162
 40
32.30185628186919
100
AcDbArc
 50
58.3284631887711
 51
86.78713497246096
  0
ARC
  5
215
100
AcDbEntity
  8
frame_+2
  6
ByLayer
 62
  256
370
   -1
100
AcDbCircle
 10
349.7618486246181
 20
58.9056142507248
 40
30.42080579675883
100
AcDbArc
 50
78.63721714691579
 51
123.2665025313431
  0
ARC
  5
216
100
AcDbEntity
  8
frame_+2
  6
ByLayer
 62
  256
370
   -1
100
AcDbCircle
 10
309.0224398522819
 20
37.66201711509223
 40
2.732481651284044
100
AcDbArc
 50
148.2726612300674
 51
240.6616249849017
  0
ARC
  5
217
100
AcDbEntity
  8
frame_+2
  6
ByLayer
 62
  256
370
   -1
100
AcDbCircle
 10
365.8302972675901
 20
37.66201711509223
 40
3.278481651284045
100
AcDbArc
 50
152.4238872237377
 51
226.2382150173111
  0
ARC
  5
218
100
AcDbEntity
  8
frame_+2
  6
ByLayer
 62
  256
370
   -1
100
AcDbCircle
 10
357.1275601477181
 20
37.66201711509223
 40
3.278481651284045
100
AcDbArc
 50
313.7617849826869
 51
27.57611277626064
  0
ARC
  5
219
100
AcDbEntity
  8
frame_+2
  6
ByLayer
 62
  256
370
   -1
100
AcDbCircle
 10
361.478928707654
 20
38.88941349435191
 40
4.155413494351854
100
AcDbArc
 50
239.9034401928167
 51
300.0965598071855
  0
ARC
  5
21A
100
AcDbEntity
  8
frame_+2
  6
ByLayer
 62
  256
370
   -1
100
AcDbCircle
 10
365.8302972675901
 20
54.73798288490774
 40
3.278481651284045
100
AcDbArc
 50
133.7617849826889
 51
207.5761127762623
  0
ARC
  5
21B
100
AcDbEntity
  8
frame_+2
  6
ByLayer
 62
  256
370
   -1
100
AcDbCircle
 10
361.478928707654
 20
53.51058650564809
 40
4.155413494351854
100
AcDbArc
 50
59.90344019281449
 51
120.0965598071833
  0
ARC
  5
21C
100
AcDbEntity
  8
frame_+2
  6
ByLayer
 62
  256
370
   -1
100
AcDbCircle
 10
365.8302972675901
 20
37.66201711509223
 40
2.732481651284044
100
AcDbArc
 50
148.2726612300676
 51
240.6616249849019
  0
ARC
  5
21D
100
AcDbEntity
  8
frame_+2
  6
ByLayer
 62
  256
370
   -1
100
AcDbCircle
 10
357.1275601477181
 20
37.66201711509222
 40
2.732481651284044
100
AcDbArc
 50
299.3383750150982
 51
31.72733876993257
  0
ARC
  5
21E
100
AcDbEntity
  8
frame_+2
  6
ByLayer
 62
  256
370
   -1
100
AcDbCircle
 10
357.1275601477181
 20
54.73798288490774
 40
3.278481651284045
100
AcDbArc
 50
332.4238872237394
 51
46.23821501731312
  0
ARC
  5
21F
100
AcDbEntity
  8
frame_+2
  6
ByLayer
 62
  256
370
   -1
100
AcDbCircle
 10
365.8302972675901
 20
54.73798288490774
 40
2.732481651284044
100
AcDbArc
 50
119.338375015098
 51
211.7273387699324
  0
ARC
  5
220
100
AcDbEntity
  8
frame_+2
  6
ByLayer
 62
  256
370
   -1
100
AcDbCircle
 10
357.1275601477181
 20
54.73798288490776
 40
2.732481651284044
100
AcDbArc
 50
328.2726612300675
 51
60.66162498490176
  0
ARC
  5
221
100
AcDbEntity
  8
frame_+2
  6
ByLayer
 62
  256
370
   -1
100
AcDbCircle
 10
300.32
 20
37.662
 40
3.27848
100
AcDbArc
 50
313.762
 51
27.57610000000001
  0
ARC
  5
222
100
AcDbEntity
  8
frame_+2
  6
ByLayer
 62
  256
370
   -1
100
AcDbCircle
 10
300.32
 20
37.662
 40
2.73248
100
AcDbArc
 50
299.338
 51
31.7273
  0
ARC
  5
223
100
AcDbEntity
  8
frame_+2
  6
ByLayer
 62
  256
370
   -1
100
AcDbCircle
 10
286.8989035833729
 20
46.2
 40
17.77216770897302
100
AcDbArc
 50
336.7330415310196
 51
23.26695846898043
  0
ARC
  5
224
100
AcDbEntity
  8
frame_+2
  6
ByLayer
 62
  256
370
   -1
100
AcDbCircle
 10
300.3197027324098
 20
54.73798288490776
 40
3.278481651284045
100
AcDbArc
 50
332.4238872237377
 51
46.23821501731113
  0
ARC
  5
225
100
AcDbEntity
  8
frame_+2
  6
ByLayer
 62
  256
370
   -1
100
AcDbCircle
 10
309.0224398522819
 20
54.73798288490776
 40
3.278481651284045
100
AcDbArc
 50
133.7617849826869
 51
207.5761127762606
  0
ARC
  5
226
100
AcDbEntity
  8
frame_+2
  6
ByLayer
 62
  256
370
   -1
100
AcDbCircle
 10
300.3197027324098
 20
54.73798288490776
 40
2.732481651284044
100
AcDbArc
 50
328.2726612300676
 51
60.66162498490196
  0
ARC
  5
227
100
AcDbEntity
  8
frame_+2
  6
ByLayer
 62
  256
370
   -1
100
AcDbCircle
 10
309.0224398522819
 20
54.73798288490777
 40
2.732481651284044
100
AcDbArc
 50
119.3383750150982
 51
211.7273387699326
  0
TEXT
  5
228
100
AcDbEntity
  8
frame_+2
  6
ByLayer
 62
  256
370
   -1
100
AcDbText
 10
204.6710712923459
 20
46.2
 30
0
 40
5
  1
+2
 50
90
 41
1
 51
0
  7
italicc
 71
    0
 72
    1
 11
204.6710712923459
 21
46.2
 31
0
210
0
220
0
230
1
100
AcDbText
 73
    2
  0
LINE
  5
229
100
AcDbEntity
  8
frame_+2
  6
ByLayer
 62
    7
370
   -1
100
AcDbLine
 10
202.625
 20
92.40000000000001
 11
263.525
 21
92.40000000000001
  0
ARC
  5
22A
100
AcDbEntity
  8
frame_+2
  6
ByLayer
 62
    7
370
   -1
100
AcDbCircle
 10
263.525
 20
89.77500000000001
 40
2.625
100
AcDbArc
 50
0
 51
90
  0
ARC
  5
22B
100
AcDbEntity
  8
frame_+2
  6
ByLayer
 62
    7
370
   -1
100
AcDbCircle
 10
202.625
 20
89.77500000000001
 40
2.625
100
AcDbArc
 50
90
 51
180
  0
LINE
  5
22C
100
AcDbEntity
  8
frame_+2
  6
ByLayer
 62
    7
370
   -1
100
AcDbLine
 10
200
 20
2.625
 11
200
 21
89.77500000000001
  0
ARC
  5
22D
100
AcDbEntity
  8
frame_+2
  6
ByLayer
 62
    7
370
   -1
100
AcDbCircle
 10
202.625
 20
2.625
 40
2.625
100
AcDbArc
 50
180
 51
270
  0
LINE
  5
22E
100
AcDbEntity
  8
frame_+2
  6
ByLayer
 62
    7
370
   -1
100
AcDbLine
 10
202.625
 20
0
 11
263.525
 21
0
  0
ARC
  5
22F
100
AcDbEntity
  8
frame_+2
  6
ByLayer
 62
    7
370
   -1
100
AcDbCircle
 10
263.525
 20
2.625
 40
2.625
100
AcDbArc
 50
270
 51
0
  0
LINE
  5
230
100
AcDbEntity
  8
frame_+2
  6
ByLayer
 62
    7
370
   -1
100
AcDbLine
 10
366.15
 20
2.625
 11
366.15
 21
89.77500000000001
  0
LINE
  5
231
100
AcDbEntity
  8
frame_+2
  6
ByLayer
 62
    7
370
   -1
100
AcDbLine
 10
302.625
 20
92.40000000000001
 11
363.525
 21
92.40000000000001
  0
ARC
  5
232
100
AcDbEntity
  8
frame_+2
  6
ByLayer
 62
    7
370
   -1
100
AcDbCircle
 10
363.525
 20
89.77500000000001
 40
2.625
100
AcDbArc
 50
0
 51
90
  0
ARC
  5
233
100
AcDbEntity
  8
frame_+2
  6
ByLayer
 62
    7
370
   -1
100
AcDbCircle
 10
302.625
 20
89.77500000000001
 40
2.625
100
AcDbArc
 50
90
 51
180
  0
ARC
  5
234
100
AcDbEntity
  8
frame_+2
  6
ByLayer
 62
    7
370
   -1
100
AcDbCircle
 10
302.625
 20
2.625
 40
2.625
100
AcDbArc
 50
180
 51
270
  0
LINE
  5
235
100
AcDbEntity
  8
frame_+2
  6
ByLayer
 62
    7
370
   -1
100
AcDbLine
 10
302.625
 20
0
 11
363.525
 21
0
  0
ARC
  5
236
100
AcDbEntity
  8
frame_+2
  6
ByLayer
 62
    7
370
   -1
100
AcDbCircle
 10
363.525
 20
2.625
 40
2.625
100
AcDbArc
 50
270
 51
0
  0
LINE
  5
237
100
AcDbEntity
  8
frame_+2
  6
ByLayer
 62
    7
370
   -1
100
AcDbLine
 10
300
 20
2.625
 11
300
 21
89.77500000000001
  0
LINE
  5
238
100
AcDbEntity
  8
frame_+2
  6
ByLayer
 62
    7
370
   -1
100
AcDbLine
 10
266.15
 20
2.625
 11
266.15
 21
89.77500000000001
  0
TEXT
  5
239
100
AcDbEntity
  8
frame_+1
  6
ByLayer
 62
  256
370
   -1
100
AcDbText
 10
461.4789287076541
 20
46.2
 30
0
 40
5
  1
+1
 50
270
 41
1
 51
0
  7
italicc
 71
    0
 72
    1
 11
461.4789287076541
 21
46.2
 31
0
210
0
220
0
230
1
100
AcDbText
 73
    2
  0
ARC
  5
23A
100
AcDbEntity
  8
frame_+1
  6
ByLayer
 62
  256
370
   -1
100
AcDbCircle
 10
522.4432390013202
 20
46.20000000000002
 40
17.77216770897431
100
AcDbArc
 50
156.7330415310211
 51
203.2669584689789
  0
ARC
  5
23B
100
AcDbEntity
  8
frame_+1
  6
ByLayer
 62
  256
370
   -1
100
AcDbCircle
 10
486.8989035833729
 20
46.2
 40
17.27216770897302
100
AcDbArc
 50
335.7244305951568
 51
24.27556940484321
  0
ARC
  5
23C
100
AcDbEntity
  8
frame_+1
  6
ByLayer
 62
  256
370
   -1
100
AcDbCircle
 10
522.4432390013189
 20
46.19999999999996
 40
17.27216770897302
100
AcDbArc
 50
155.7244305951567
 51
204.2755694048431
  0
ARC
  5
23D
100
AcDbEntity
  8
frame_+1
  6
ByLayer
 62
  256
370
   -1
100
AcDbCircle
 10
400.861
 20
14.259
 40
13.38813822008124
100
AcDbArc
 50
272.3373058591238
 51
309.2072035049678
  0
ARC
  5
23E
100
AcDbEntity
  8
frame_+1
  6
ByLayer
 62
  256
370
   -1
100
AcDbCircle
 10
414.7840000000001
 20
0.3360000000000909
 40
13.38813822008124
100
AcDbArc
 50
140.7927964950327
 51
177.6626941408767
  0
ARC
  5
23F
100
AcDbEntity
  8
frame_+1
  6
ByLayer
 62
  256
370
   -1
100
AcDbCircle
 10
405.2664009775911
 20
4.736773241436239
 40
4.146037563925417
100
AcDbArc
 50
348.1445832219605
 51
101.9987502693714
  0
ARC
  5
240
100
AcDbEntity
  8
frame_+1
  6
ByLayer
 62
  256
370
   -1
100
AcDbCircle
 10
405.2664009775911
 20
4.736773241436239
 40
4.692037563925418
100
AcDbArc
 50
348.1445832219605
 51
101.9987502693714
  0
ARC
  5
241
100
AcDbEntity
  8
frame_+1
  6
ByLayer
 62
  256
370
   -1
100
AcDbCircle
 10
223.1765740361827
 20
46.20000000000001
 40
184.8299076946976
100
AcDbArc
 50
350.6541000911109
 51
356.6129156935709
  0
ARC
  5
242
100
AcDbEntity
  8
frame_+1
  6
ByLayer
 62
  256
370
   -1
100
AcDbCircle
 10
638.5776865540316
 20
46.20000000000001
 40
237.1706865540316
100
AcDbArc
 50
182.6389904930952
 51
188.9442448971546
  0
ARC
  5
243
100
AcDbEntity
  8
frame_+1
  6
ByLayer
 62
  256
370
   -1
100
AcDbCircle
 10
400.861
 20
78.14100000000001
 40
13.38813822008124
100
AcDbArc
 50
50.79279649503212
 51
87.66269414087618
  0
ARC
  5
244
100
AcDbEntity
  8
frame_+1
  6
ByLayer
 62
  256
370
   -1
100
AcDbCircle
 10
414.7840000000001
 20
92.06399999999991
 40
13.38813822008124
100
AcDbArc
 50
182.3373058591233
 51
219.2072035049673
  0
ARC
  5
245
100
AcDbEntity
  8
frame_+1
  6
ByLayer
 62
  256
370
   -1
100
AcDbCircle
 10
405.2664009775911
 20
87.66322675856377
 40
4.146037563925417
100
AcDbArc
 50
258.0012497306286
 51
11.85541677803947
  0
ARC
  5
246
100
AcDbEntity
  8
frame_+1
  6
ByLayer
 62
  256
370
   -1
100
AcDbCircle
 10
400.3197027324098
 20
37.66201711509225
 40
2.732481651284044
100
AcDbArc
 50
299.3383750150981
 51
60.66162498490196
  0
ARC
  5
247
100
AcDbEntity
  8
frame_+1
  6
ByLayer
 62
  256
370
   -1
100
AcDbCircle
 10
409.0224398522819
 20
37.66201711509225
 40
2.732481651284044
100
AcDbArc
 50
119.338375015098
 51
240.661624984902
  0
ARC
  5
248
100
AcDbEntity
  8
frame_+1
  6
ByLayer
 62
  256
370
   -1
100
AcDbCircle
 10
465.289
 20
14.259
 40
13.38813822008124
100
AcDbArc
 50
230.7927964950322
 51
267.6626941408762
  0
ARC
  5
249
100
AcDbEntity
  8
frame_+1
  6
ByLayer
 62
  256
370
   -1
100
AcDbCircle
 10
451.3659999999999
 20
0.3360000000000838
 40
13.38813822008124
100
AcDbArc
 50
2.33730585912325
 51
39.20720350496727
  0
ARC
  5
24A
100
AcDbEntity
  8
frame_+1
  6
ByLayer
 62
  256
370
   -1
100
AcDbCircle
 10
460.8835990224089
 20
4.736773241436232
 40
4.146037563925417
100
AcDbArc
 50
78.00124973062863
 51
191.8554167780395
  0
ARC
  5
24B
100
AcDbEntity
  8
frame_+1
  6
ByLayer
 62
  256
370
   -1
100
AcDbCircle
 10
465.289
 20
78.14100000000001
 40
13.38813822008124
100
AcDbArc
 50
92.3373058591238
 51
129.2072035049679
  0
ARC
  5
24C
100
AcDbEntity
  8
frame_+1
  6
ByLayer
 62
  256
370
   -1
100
AcDbCircle
 10
451.3659999999999
 20
92.06399999999991
 40
13.38813822008124
100
AcDbArc
 50
320.7927964950327
 51
357.6626941408767
  0
ARC
  5
24D
100
AcDbEntity
  8
frame_+1
  6
ByLayer
 62
  256
370
   -1
100
AcDbCircle
 10
460.8835990224089
 20
87.66322675856377
 40
4.146037563925417
100
AcDbArc
 50
168.1445832219605
 51
281.9987502693714
  0
ARC
  5
24E
100
AcDbEntity
  8
frame_+1
  6
ByLayer
 62
  256
370
   -1
100
AcDbCircle
 10
404.671071292346
 20
43.65344772453614
 40
4.155413494351854
100
AcDbArc
 50
230.1504290448523
 51
309.8495709551451
  0
ARC
  5
24F
100
AcDbEntity
  8
frame_+1
  6
ByLayer
 62
  256
370
   -1
100
AcDbCircle
 10
512.1283363576471
 20
46.2
 40
111.2673363576471
100
AcDbArc
 50
191.0104676288321
 51
199.1664252599549
  0
ARC
  5
250
100
AcDbEntity
  8
frame_+1
  6
ByLayer
 62
  256
370
   -1
100
AcDbCircle
 10
638.5776865540316
 20
46.20000000000001
 40
236.6246865540316
100
AcDbArc
 50
185.1525549886134
 51
188.8124584980555
  0
ARC
  5
251
100
AcDbEntity
  8
frame_+1
  6
ByLayer
 62
  256
370
   -1
100
AcDbCircle
 10
638.5776865540316
 20
46.20000000000006
 40
236.6246865540316
100
AcDbArc
 50
182.7432717998958
 51
183.6382972919583
  0
ARC
  5
252
100
AcDbEntity
  8
frame_+1
  6
ByLayer
 62
  256
370
   -1
100
AcDbCircle
 10
223.1765740361827
 20
46.20000000000001
 40
184.2839076946976
100
AcDbArc
 50
351.0251973372201
 51
356.4755589785453
  0
ARC
  5
253
100
AcDbEntity
  8
frame_+1
  6
ByLayer
 62
  256
370
   -1
100
AcDbCircle
 10
400.3197027324098
 20
37.66201711509225
 40
3.278481651284045
100
AcDbArc
 50
313.7617849826889
 51
27.57611277626232
  0
ARC
  5
254
100
AcDbEntity
  8
frame_+1
  6
ByLayer
 62
  256
370
   -1
100
AcDbCircle
 10
409.0224398522819
 20
37.66201711509225
 40
3.278481651284045
100
AcDbArc
 50
152.4238872237394
 51
226.2382150173131
  0
ARC
  5
255
100
AcDbEntity
  8
frame_+1
  6
ByLayer
 62
  256
370
   -1
100
AcDbCircle
 10
404.671071292346
 20
43.65344772453614
 40
4.701413494351854
100
AcDbArc
 50
252.0958653971777
 51
287.9041346028189
  0
ARC
  5
256
100
AcDbEntity
  8
frame_+1
  6
ByLayer
 62
  256
370
   -1
100
AcDbCircle
 10
404.671071292346
 20
38.88941349435191
 40
4.155413494351854
100
AcDbArc
 50
239.9034401928145
 51
300.0965598071833
  0
ARC
  5
257
100
AcDbEntity
  8
frame_+1
  6
ByLayer
 62
  256
370
   -1
100
AcDbCircle
 10
404.7038080448242
 20
37.76948426896578
 40
3.811426028950189
100
AcDbArc
 50
229.4146180216527
 51
309.1137599319453
  0
ARC
  5
258
100
AcDbEntity
  8
frame_+1
  6
ByLayer
 62
  256
370
   -1
100
AcDbCircle
 10
512.1283363576471
 20
46.2
 40
110.7213363576471
100
AcDbArc
 50
187.7942678161444
 51
195.0490332609346
  0
ARC
  5
259
100
AcDbEntity
  8
frame_+1
  6
ByLayer
 62
  256
370
   -1
100
AcDbCircle
 10
512.1283363576471
 20
46.2
 40
110.7213363576471
100
AcDbArc
 50
195.7290763943054
 51
199.4296910973949
  0
ARC
  5
25A
100
AcDbEntity
  8
frame_+1
  6
ByLayer
 62
  256
370
   -1
100
AcDbCircle
 10
405.2683216983971
 20
4.745963955903328
 40
5.238037563925419
100
AcDbArc
 50
348.1445832219605
 51
62.23903540666056
  0
ARC
  5
25B
100
AcDbEntity
  8
frame_+1
  6
ByLayer
 62
  256
370
   -1
100
AcDbCircle
 10
405.2664009775911
 20
4.736773241436239
 40
5.238037563925419
100
AcDbArc
 50
70.34007906907382
 51
95.69810789151403
  0
LINE
  5
25C
100
AcDbEntity
  8
frame_+1
  6
ByLayer
 62
  256
370
   -1
100
AcDbLine
 10
402.0083896985999
 20
40.46321449805139
 11
401.658527006918
 21
40.04403423018437
  0
LINE
  5
25D
100
AcDbEntity
  8
frame_+1
  6
ByLayer
 62
  256
370
   -1
100
AcDbLine
 10
407.3337528860919
 20
40.46321449805126
 11
407.6836155777738
 21
40.04403423018437
  0
ARC
  5
25E
100
AcDbEntity
  8
frame_+1
  6
ByLayer
 62
  256
370
   -1
100
AcDbCircle
 10
460.8835990224089
 20
4.736773241436239
 40
4.692037563925418
100
AcDbArc
 50
78.0012497306286
 51
191.8554167780395
  0
ARC
  5
25F
100
AcDbEntity
  8
frame_+1
  6
ByLayer
 62
  256
370
   -1
100
AcDbCircle
 10
642.9734259638171
 20
46.19999999999998
 40
184.8299076946976
100
AcDbArc
 50
183.387084306429
 51
189.3458999088891
  0
ARC
  5
260
100
AcDbEntity
  8
frame_+1
  6
ByLayer
 62
  256
370
   -1
100
AcDbCircle
 10
227.5723134459684
 20
46.20000000000001
 40
237.1706865540316
100
AcDbArc
 50
351.0557551028454
 51
357.3610095069048
  0
ARC
  5
261
100
AcDbEntity
  8
frame_+1
  6
ByLayer
 62
  256
370
   -1
100
AcDbCircle
 10
465.8302972675902
 20
37.66201711509225
 40
2.732481651284044
100
AcDbArc
 50
119.338375015098
 51
240.6616249849019
  0
ARC
  5
262
100
AcDbEntity
  8
frame_+1
  6
ByLayer
 62
  256
370
   -1
100
AcDbCircle
 10
457.1275601477181
 20
37.66201711509225
 40
2.732481651284044
100
AcDbArc
 50
299.338375015098
 51
60.66162498490201
  0
ARC
  5
263
100
AcDbEntity
  8
frame_+1
  6
ByLayer
 62
  256
370
   -1
100
AcDbCircle
 10
461.478928707654
 20
43.65344772453614
 40
4.155413494351854
100
AcDbArc
 50
230.1504290448549
 51
309.8495709551477
  0
ARC
  5
264
100
AcDbEntity
  8
frame_+1
  6
ByLayer
 62
  256
370
   -1
100
AcDbCircle
 10
354.0216636423529
 20
46.20000000000001
 40
111.2673363576471
100
AcDbArc
 50
340.833574740045
 51
348.9895323711679
  0
ARC
  5
265
100
AcDbEntity
  8
frame_+1
  6
ByLayer
 62
  256
370
   -1
100
AcDbCircle
 10
227.5723134459684
 20
46.20000000000001
 40
236.6246865540316
100
AcDbArc
 50
351.1875415019445
 51
354.8474450113866
  0
ARC
  5
266
100
AcDbEntity
  8
frame_+1
  6
ByLayer
 62
  256
370
   -1
100
AcDbCircle
 10
227.5723134459684
 20
46.20000000000006
 40
236.6246865540316
100
AcDbArc
 50
356.3617027080417
 51
357.2567282001042
  0
ARC
  5
267
100
AcDbEntity
  8
frame_+1
  6
ByLayer
 62
  256
370
   -1
100
AcDbCircle
 10
642.9734259638171
 20
46.19999999999998
 40
184.2839076946976
100
AcDbArc
 50
183.5244410214547
 51
188.9748026627799
  0
ARC
  5
268
100
AcDbEntity
  8
frame_+1
  6
ByLayer
 62
  256
370
   -1
100
AcDbCircle
 10
465.8302972675902
 20
37.66201711509225
 40
3.278481651284045
100
AcDbArc
 50
152.4238872237377
 51
226.2382150173111
  0
ARC
  5
269
100
AcDbEntity
  8
frame_+1
  6
ByLayer
 62
  256
370
   -1
100
AcDbCircle
 10
457.1275601477181
 20
37.66201711509225
 40
3.278481651284045
100
AcDbArc
 50
313.7617849826869
 51
27.57611277626064
  0
ARC
  5
26A
100
AcDbEntity
  8
frame_+1
  6
ByLayer
 62
  256
370
   -1
100
AcDbCircle
 10
461.478928707654
 20
43.65344772453614
 40
4.701413494351854
100
AcDbArc
 50
252.0958653971811
 51
287.9041346028223
  0
ARC
  5
26B
100
AcDbEntity
  8
frame_+1
  6
ByLayer
 62
  256
370
   -1
100
AcDbCircle
 10
461.478928707654
 20
38.88941349435191
 40
4.155413494351854
100
AcDbArc
 50
239.9034401928167
 51
300.0965598071855
  0
ARC
  5
26C
100
AcDbEntity
  8
frame_+1
  6
ByLayer
 62
  256
370
   -1
100
AcDbCircle
 10
461.4461919551758
 20
37.76948426896578
 40
3.811426028950189
100
AcDbArc
 50
230.8862400680547
 51
310.5853819783472
  0
ARC
  5
26D
100
AcDbEntity
  8
frame_+1
  6
ByLayer
 62
  256
370
   -1
100
AcDbCircle
 10
354.0216636423529
 20
46.20000000000001
 40
110.7213363576471
100
AcDbArc
 50
344.9509667390653
 51
352.2057321838556
  0
ARC
  5
26E
100
AcDbEntity
  8
frame_+1
  6
ByLayer
 62
  256
370
   -1
100
AcDbCircle
 10
354.0216636423529
 20
46.20000000000001
 40
110.7213363576471
100
AcDbArc
 50
340.5703089026051
 51
344.2709236056946
  0
ARC
  5
26F
100
AcDbEntity
  8
frame_+1
  6
ByLayer
 62
  256
370
   -1
100
AcDbCircle
 10
460.8816783016029
 20
4.745963955903328
 40
5.238037563925419
100
AcDbArc
 50
117.7609645933395
 51
191.8554167780395
  0
ARC
  5
270
100
AcDbEntity
  8
frame_+1
  6
ByLayer
 62
  256
370
   -1
100
AcDbCircle
 10
460.8835990224089
 20
4.736773241436239
 40
5.238037563925419
100
AcDbArc
 50
84.30189210848597
 51
109.6599209309262
  0
LINE
  5
271
100
AcDbEntity
  8
frame_+1
  6
ByLayer
 62
  256
370
   -1
100
AcDbLine
 10
464.1416103014001
 20
40.46321449805139
 11
464.4914729930821
 21
40.04403423018435
  0
LINE
  5
272
100
AcDbEntity
  8
frame_+1
  6
ByLayer
 62
  256
370
   -1
100
AcDbLine
 10
458.8162471139081
 20
40.46321449805126
 11
458.4663844222263
 21
40.04403423018435
  0
ARC
  5
273
100
AcDbEntity
  8
frame_+1
  6
ByLayer
 62
  256
370
   -1
100
AcDbCircle
 10
405.2664009775911
 20
87.66322675856377
 40
4.692037563925418
100
AcDbArc
 50
258.0012497306286
 51
11.85541677803952
  0
ARC
  5
274
100
AcDbEntity
  8
frame_+1
  6
ByLayer
 62
  256
370
   -1
100
AcDbCircle
 10
223.1765740361827
 20
46.2
 40
184.8299076946976
100
AcDbArc
 50
3.387084306429054
 51
9.345899908889118
  0
ARC
  5
275
100
AcDbEntity
  8
frame_+1
  6
ByLayer
 62
  256
370
   -1
100
AcDbCircle
 10
638.5776865540316
 20
46.2
 40
237.1706865540316
100
AcDbArc
 50
171.0557551028454
 51
177.3610095069048
  0
ARC
  5
276
100
AcDbEntity
  8
frame_+1
  6
ByLayer
 62
  256
370
   -1
100
AcDbCircle
 10
400.3197027324098
 20
54.73798288490776
 40
2.732481651284044
100
AcDbArc
 50
299.3383750150981
 51
60.66162498490191
  0
ARC
  5
277
100
AcDbEntity
  8
frame_+1
  6
ByLayer
 62
  256
370
   -1
100
AcDbCircle
 10
409.0224398522819
 20
54.73798288490776
 40
2.732481651284044
100
AcDbArc
 50
119.338375015098
 51
240.661624984902
  0
ARC
  5
278
100
AcDbEntity
  8
frame_+1
  6
ByLayer
 62
  256
370
   -1
100
AcDbCircle
 10
404.671071292346
 20
48.74655227546386
 40
4.155413494351854
100
AcDbArc
 50
50.15042904485491
 51
129.8495709551477
  0
ARC
  5
279
100
AcDbEntity
  8
frame_+1
  6
ByLayer
 62
  256
370
   -1
100
AcDbCircle
 10
512.1283363576471
 20
46.2
 40
111.2673363576471
100
AcDbArc
 50
160.8335747400451
 51
168.9895323711679
  0
ARC
  5
27A
100
AcDbEntity
  8
frame_+1
  6
ByLayer
 62
  256
370
   -1
100
AcDbCircle
 10
638.5776865540316
 20
46.2
 40
236.6246865540316
100
AcDbArc
 50
171.1875415019445
 51
174.8474450113866
  0
ARC
  5
27B
100
AcDbEntity
  8
frame_+1
  6
ByLayer
 62
  256
370
   -1
100
AcDbCircle
 10
638.5776865540316
 20
46.19999999999994
 40
236.6246865540316
100
AcDbArc
 50
176.3617027080417
 51
177.2567282001042
  0
ARC
  5
27C
100
AcDbEntity
  8
frame_+1
  6
ByLayer
 62
  256
370
   -1
100
AcDbCircle
 10
223.1765740361827
 20
46.2
 40
184.2839076946976
100
AcDbArc
 50
3.524441021454712
 51
8.97480266277992
  0
ARC
  5
27D
100
AcDbEntity
  8
frame_+1
  6
ByLayer
 62
  256
370
   -1
100
AcDbCircle
 10
400.3197027324098
 20
54.73798288490776
 40
3.278481651284045
100
AcDbArc
 50
332.4238872237377
 51
46.23821501731113
  0
ARC
  5
27E
100
AcDbEntity
  8
frame_+1
  6
ByLayer
 62
  256
370
   -1
100
AcDbCircle
 10
409.0224398522819
 20
54.73798288490776
 40
3.278481651284045
100
AcDbArc
 50
133.7617849826869
 51
207.5761127762606
  0
ARC
  5
27F
100
AcDbEntity
  8
frame_+1
  6
ByLayer
 62
  256
370
   -1
100
AcDbCircle
 10
404.671071292346
 20
48.74655227546386
 40
4.701413494351854
100
AcDbArc
 50
72.09586539718106
 51
107.9041346028223
  0
ARC
  5
280
100
AcDbEntity
  8
frame_+1
  6
ByLayer
 62
  256
370
   -1
100
AcDbCircle
 10
404.671071292346
 20
53.51058650564809
 40
4.155413494351854
100
AcDbArc
 50
59.90344019281673
 51
120.0965598071855
  0
ARC
  5
281
100
AcDbEntity
  8
frame_+1
  6
ByLayer
 62
  256
370
   -1
100
AcDbCircle
 10
404.7038080448243
 20
54.63051573103422
 40
3.811426028950189
100
AcDbArc
 50
50.88624006805469
 51
130.5853819783473
  0
ARC
  5
282
100
AcDbEntity
  8
frame_+1
  6
ByLayer
 62
  256
370
   -1
100
AcDbCircle
 10
512.1283363576471
 20
46.2
 40
110.7213363576471
100
AcDbArc
 50
164.9509667390654
 51
172.2057321838556
  0
ARC
  5
283
100
AcDbEntity
  8
frame_+1
  6
ByLayer
 62
  256
370
   -1
100
AcDbCircle
 10
512.1283363576471
 20
46.2
 40
110.7213363576471
100
AcDbArc
 50
160.5703089026051
 51
164.2709236056946
  0
ARC
  5
284
100
AcDbEntity
  8
frame_+1
  6
ByLayer
 62
  256
370
   -1
100
AcDbCircle
 10
405.2683216983971
 20
87.65403604409667
 40
5.238037563925419
100
AcDbArc
 50
297.7609645933395
 51
11.85541677803952
  0
ARC
  5
285
100
AcDbEntity
  8
frame_+1
  6
ByLayer
 62
  256
370
   -1
100
AcDbCircle
 10
405.2664009775911
 20
87.66322675856377
 40
5.238037563925419
100
AcDbArc
 50
264.301892108486
 51
289.6599209309261
  0
LINE
  5
286
100
AcDbEntity
  8
frame_+1
  6
ByLayer
 62
  256
370
   -1
100
AcDbLine
 10
402.0083896985999
 20
51.93678550194862
 11
401.658527006918
 21
52.35596576981564
  0
LINE
  5
287
100
AcDbEntity
  8
frame_+1
  6
ByLayer
 62
  256
370
   -1
100
AcDbLine
 10
407.3337528860919
 20
51.93678550194873
 11
407.6836155777738
 21
52.35596576981564
  0
ARC
  5
288
100
AcDbEntity
  8
frame_+1
  6
ByLayer
 62
  256
370
   -1
100
AcDbCircle
 10
460.8835990224089
 20
87.66322675856377
 40
4.692037563925418
100
AcDbArc
 50
168.1445832219605
 51
281.9987502693714
  0
ARC
  5
289
100
AcDbEntity
  8
frame_+1
  6
ByLayer
 62
  256
370
   -1
100
AcDbCircle
 10
642.9734259638171
 20
46.20000000000002
 40
184.8299076946976
100
AcDbArc
 50
170.6541000911109
 51
176.612915693571
  0
ARC
  5
28A
100
AcDbEntity
  8
frame_+1
  6
ByLayer
 62
  256
370
   -1
100
AcDbCircle
 10
227.5723134459684
 20
46.2
 40
237.1706865540316
100
AcDbArc
 50
2.638990493095198
 51
8.944244897154622
  0
ARC
  5
28B
100
AcDbEntity
  8
frame_+1
  6
ByLayer
 62
  256
370
   -1
100
AcDbCircle
 10
465.8302972675902
 20
54.73798288490776
 40
2.732481651284044
100
AcDbArc
 50
119.3383750150981
 51
240.661624984902
  0
ARC
  5
28C
100
AcDbEntity
  8
frame_+1
  6
ByLayer
 62
  256
370
   -1
100
AcDbCircle
 10
457.1275601477181
 20
54.73798288490776
 40
2.732481651284044
100
AcDbArc
 50
299.338375015098
 51
60.66162498490201
  0
ARC
  5
28D
100
AcDbEntity
  8
frame_+1
  6
ByLayer
 62
  256
370
   -1
100
AcDbCircle
 10
461.478928707654
 20
48.74655227546386
 40
4.155413494351854
100
AcDbArc
 50
50.15042904485231
 51
129.8495709551451
  0
ARC
  5
28E
100
AcDbEntity
  8
frame_+1
  6
ByLayer
 62
  256
370
   -1
100
AcDbCircle
 10
354.0216636423529
 20
46.2
 40
111.2673363576471
100
AcDbArc
 50
11.01046762883211
 51
19.16642525995494
  0
ARC
  5
28F
100
AcDbEntity
  8
frame_+1
  6
ByLayer
 62
  256
370
   -1
100
AcDbCircle
 10
227.5723134459684
 20
46.2
 40
236.6246865540316
100
AcDbArc
 50
5.152554988613397
 51
8.812458498055536
  0
ARC
  5
290
100
AcDbEntity
  8
frame_+1
  6
ByLayer
 62
  256
370
   -1
100
AcDbCircle
 10
227.5723134459684
 20
46.19999999999994
 40
236.6246865540316
100
AcDbArc
 50
2.743271799895778
 51
3.638297291958265
  0
ARC
  5
291
100
AcDbEntity
  8
frame_+1
  6
ByLayer
 62
  256
370
   -1
100
AcDbCircle
 10
642.9734259638171
 20
46.20000000000002
 40
184.2839076946976
100
AcDbArc
 50
171.0251973372201
 51
176.4755589785453
  0
ARC
  5
292
100
AcDbEntity
  8
frame_+1
  6
ByLayer
 62
  256
370
   -1
100
AcDbCircle
 10
465.8302972675902
 20
54.73798288490776
 40
3.278481651284045
100
AcDbArc
 50
133.7617849826889
 51
207.5761127762623
  0
ARC
  5
293
100
AcDbEntity
  8
frame_+1
  6
ByLayer
 62
  256
370
   -1
100
AcDbCircle
 10
457.1275601477181
 20
54.73798288490776
 40
3.278481651284045
100
AcDbArc
 50
332.4238872237394
 51
46.23821501731307
  0
ARC
  5
294
100
AcDbEntity
  8
frame_+1
  6
ByLayer
 62
  256
370
   -1
100
AcDbCircle
 10
461.478928707654
 20
48.74655227546386
 40
4.701413494351854
100
AcDbArc
 50
72.0958653971777
 51
107.9041346028189
  0
ARC
  5
295
100
AcDbEntity
  8
frame_+1
  6
ByLayer
 62
  256
370
   -1
100
AcDbCircle
 10
461.478928707654
 20
53.51058650564809
 40
4.155413494351854
100
AcDbArc
 50
59.90344019281449
 51
120.0965598071833
  0
ARC
  5
296
100
AcDbEntity
  8
frame_+1
  6
ByLayer
 62
  256
370
   -1
100
AcDbCircle
 10
461.4461919551758
 20
54.63051573103422
 40
3.811426028950189
100
AcDbArc
 50
49.41461802165273
 51
129.1137599319453
  0
ARC
  5
297
100
AcDbEntity
  8
frame_+1
  6
ByLayer
 62
  256
370
   -1
100
AcDbCircle
 10
354.0216636423529
 20
46.2
 40
110.7213363576471
100
AcDbArc
 50
7.794267816144454
 51
15.04903326093464
  0
ARC
  5
298
100
AcDbEntity
  8
frame_+1
  6
ByLayer
 62
  256
370
   -1
100
AcDbCircle
 10
354.0216636423529
 20
46.2
 40
110.7213363576471
100
AcDbArc
 50
15.72907639430542
 51
19.42969109739488
  0
ARC
  5
299
100
AcDbEntity
  8
frame_+1
  6
ByLayer
 62
  256
370
   -1
100
AcDbCircle
 10
460.8816783016029
 20
87.65403604409667
 40
5.238037563925419
100
AcDbArc
 50
168.1445832219605
 51
242.2390354066605
  0
ARC
  5
29A
100
AcDbEntity
  8
frame_+1
  6
ByLayer
 62
  256
370
   -1
100
AcDbCircle
 10
460.8835990224089
 20
87.66322675856377
 40
5.238037563925419
100
AcDbArc
 50
250.3400790690739
 51
275.698107891514
  0
LINE
  5
29B
100
AcDbEntity
  8
frame_+1
  6
ByLayer
 62
  256
370
   -1
100
AcDbLine
 10
464.1416103014001
 20
51.93678550194862
 11
464.4914729930821
 21
52.35596576981565
  0
LINE
  5
29C
100
AcDbEntity
  8
frame_+1
  6
ByLayer
 62
  256
370
   -1
100
AcDbLine
 10
458.8162471139081
 20
51.93678550194873
 11
458.4663844222263
 21
52.35596576981565
  0
LINE
  5
29D
100
AcDbEntity
  8
frame_+1
  6
ByLayer
 62
  256
370
   -1
100
AcDbLine
 10
409.8583533511399
 20
3.772828273947454
 11
410.3946274230858
 21
3.669847262362001
  0
LINE
  5
29E
100
AcDbEntity
  8
frame_+1
  6
ByLayer
 62
  256
370
   -1
100
AcDbLine
 10
456.2916466488601
 20
3.772828273947456
 11
455.7553725769143
 21
3.669847262362003
  0
LINE
  5
29F
100
AcDbEntity
  8
frame_+1
  6
ByLayer
 62
  256
370
   -1
100
AcDbLine
 10
410.3946274230858
 20
88.73015273763799
 11
409.8583533511399
 21
88.62717172605255
  0
LINE
  5
2A0
100
AcDbEntity
  8
frame_+1
  6
ByLayer
 62
  256
370
   -1
100
AcDbLine
 10
455.7553725769143
 20
88.73015273763799
 11
456.2916466488601
 21
88.62717172605255
  0
ARC
  5
2A1
100
AcDbEntity
  8
frame_+1
  6
ByLayer
 62
  256
370
   -1
100
AcDbCircle
 10
543.7067609986798
 20
46.20000000000002
 40
17.77216770897431
100
AcDbArc
 50
336.7330415310211
 51
23.26695846897885
  0
ARC
  5
2A2
100
AcDbEntity
  8
frame_+1
  6
ByLayer
 62
  256
370
   -1
100
AcDbCircle
 10
579.2510964166271
 20
46.2
 40
17.77216770897302
100
AcDbArc
 50
156.7330415310196
 51
203.2669584689804
  0
ARC
  5
2A3
100
AcDbEntity
  8
frame_+1
  6
ByLayer
 62
  256
370
   -1
100
AcDbCircle
 10
579.2510964166271
 20
46.2
 40
17.27216770897302
100
AcDbArc
 50
155.7244305951567
 51
204.2755694048432
  0
ARC
  5
2A4
100
AcDbEntity
  8
frame_+1
  6
ByLayer
 62
  256
370
   -1
100
AcDbCircle
 10
543.7067609986811
 20
46.19999999999995
 40
17.27216770897302
100
AcDbArc
 50
335.7244305951569
 51
24.27556940484327
  0
ARC
  5
2A5
100
AcDbEntity
  8
frame_+1
  6
ByLayer
 62
  256
370
   -1
100
AcDbCircle
 10
500.861
 20
14.259
 40
13.38813822008124
100
AcDbArc
 50
272.3373058591238
 51
309.2072035049678
  0
ARC
  5
2A6
100
AcDbEntity
  8
frame_+1
  6
ByLayer
 62
  256
370
   -1
100
AcDbCircle
 10
514.7840000000001
 20
0.3360000000000909
 40
13.38813822008124
100
AcDbArc
 50
140.7927964950327
 51
177.6626941408767
  0
ARC
  5
2A7
100
AcDbEntity
  8
frame_+1
  6
ByLayer
 62
  256
370
   -1
100
AcDbCircle
 10
505.2664009775911
 20
4.736773241436239
 40
4.146037563925417
100
AcDbArc
 50
348.1445832219605
 51
101.9987502693714
  0
ARC
  5
2A8
100
AcDbEntity
  8
frame_+1
  6
ByLayer
 62
  256
370
   -1
100
AcDbCircle
 10
505.2664009775911
 20
4.736773241436239
 40
4.692037563925418
100
AcDbArc
 50
348.1445832219605
 51
101.9987502693714
  0
ARC
  5
2A9
100
AcDbEntity
  8
frame_+1
  6
ByLayer
 62
  256
370
   -1
100
AcDbCircle
 10
323.1765740361827
 20
46.20000000000001
 40
184.8299076946976
100
AcDbArc
 50
350.6541000911109
 51
356.6129156935709
  0
ARC
  5
2AA
100
AcDbEntity
  8
frame_+1
  6
ByLayer
 62
  256
370
   -1
100
AcDbCircle
 10
738.5776865540315
 20
46.20000000000001
 40
237.1706865540316
100
AcDbArc
 50
182.6389904930952
 51
188.9442448971546
  0
ARC
  5
2AB
100
AcDbEntity
  8
frame_+1
  6
ByLayer
 62
  256
370
   -1
100
AcDbCircle
 10
500.861
 20
78.14100000000001
 40
13.38813822008124
100
AcDbArc
 50
50.79279649503212
 51
87.66269414087618
  0
ARC
  5
2AC
100
AcDbEntity
  8
frame_+1
  6
ByLayer
 62
  256
370
   -1
100
AcDbCircle
 10
514.7840000000001
 20
92.06399999999991
 40
13.38813822008124
100
AcDbArc
 50
182.3373058591233
 51
219.2072035049673
  0
ARC
  5
2AD
100
AcDbEntity
  8
frame_+1
  6
ByLayer
 62
  256
370
   -1
100
AcDbCircle
 10
505.2664009775911
 20
87.66322675856377
 40
4.146037563925417
100
AcDbArc
 50
258.0012497306286
 51
11.85541677803947
  0
ARC
  5
2AE
100
AcDbEntity
  8
frame_+1
  6
ByLayer
 62
  256
370
   -1
100
AcDbCircle
 10
565.289
 20
14.259
 40
13.38813822008124
100
AcDbArc
 50
230.7927964950322
 51
267.6626941408762
  0
ARC
  5
2AF
100
AcDbEntity
  8
frame_+1
  6
ByLayer
 62
  256
370
   -1
100
AcDbCircle
 10
551.3659999999999
 20
0.3360000000000838
 40
13.38813822008124
100
AcDbArc
 50
2.33730585912325
 51
39.20720350496727
  0
ARC
  5
2B0
100
AcDbEntity
  8
frame_+1
  6
ByLayer
 62
  256
370
   -1
100
AcDbCircle
 10
560.8835990224089
 20
4.736773241436232
 40
4.146037563925417
100
AcDbArc
 50
78.00124973062863
 51
191.8554167780395
  0
ARC
  5
2B1
100
AcDbEntity
  8
frame_+1
  6
ByLayer
 62
  256
370
   -1
100
AcDbCircle
 10
565.289
 20
78.14100000000001
 40
13.38813822008124
100
AcDbArc
 50
92.3373058591238
 51
129.2072035049679
  0
ARC
  5
2B2
100
AcDbEntity
  8
frame_+1
  6
ByLayer
 62
  256
370
   -1
100
AcDbCircle
 10
551.3659999999999
 20
92.06399999999991
 40
13.38813822008124
100
AcDbArc
 50
320.7927964950327
 51
357.6626941408767
  0
ARC
  5
2B3
100
AcDbEntity
  8
frame_+1
  6
ByLayer
 62
  256
370
   -1
100
AcDbCircle
 10
560.8835990224089
 20
87.66322675856377
 40
4.146037563925417
100
AcDbArc
 50
168.1445832219605
 51
281.9987502693714
  0
ARC
  5
2B4
100
AcDbEntity
  8
frame_+1
  6
ByLayer
 62
  256
370
   -1
100
AcDbCircle
 10
612.1283363576471
 20
46.2
 40
111.2673363576471
100
AcDbArc
 50
191.0104676288321
 51
199.1664252599549
  0
ARC
  5
2B5
100
AcDbEntity
  8
frame_+1
  6
ByLayer
 62
  256
370
   -1
100
AcDbCircle
 10
738.5776865540315
 20
46.20000000000001
 40
236.6246865540316
100
AcDbArc
 50
185.1525549886134
 51
188.8124584980555
  0
ARC
  5
2B6
100
AcDbEntity
  8
frame_+1
  6
ByLayer
 62
  256
370
   -1
100
AcDbCircle
 10
738.5776865540315
 20
46.20000000000006
 40
236.6246865540316
100
AcDbArc
 50
182.7432717998958
 51
183.6382972919583
  0
ARC
  5
2B7
100
AcDbEntity
  8
frame_+1
  6
ByLayer
 62
  256
370
   -1
100
AcDbCircle
 10
323.1765740361827
 20
46.20000000000001
 40
184.2839076946976
100
AcDbArc
 50
351.0251973372201
 51
356.4755589785453
  0
ARC
  5
2B8
100
AcDbEntity
  8
frame_+1
  6
ByLayer
 62
  256
370
   -1
100
AcDbCircle
 10
509.0224398522819
 20
37.66201711509225
 40
3.278481651284045
100
AcDbArc
 50
152.4238872237394
 51
226.2382150173131
  0
ARC
  5
2B9
100
AcDbEntity
  8
frame_+1
  6
ByLayer
 62
  256
370
   -1
100
AcDbCircle
 10
504.6710712923459
 20
38.88941349435191
 40
4.155413494351854
100
AcDbArc
 50
239.9034401928145
 51
300.0965598071833
  0
ARC
  5
2BA
100
AcDbEntity
  8
frame_+1
  6
ByLayer
 62
  256
370
   -1
100
AcDbCircle
 10
504.7038080448242
 20
37.76948426896578
 40
3.811426028950189
100
AcDbArc
 50
229.4146180216527
 51
309.1137599319453
  0
ARC
  5
2BB
100
AcDbEntity
  8
frame_+1
  6
ByLayer
 62
  256
370
   -1
100
AcDbCircle
 10
612.1283363576471
 20
46.2
 40
110.7213363576471
100
AcDbArc
 50
187.7942678161444
 51
195.0490332609346
  0
ARC
  5
2BC
100
AcDbEntity
  8
frame_+1
  6
ByLayer
 62
  256
370
   -1
100
AcDbCircle
 10
612.1283363576471
 20
46.2
 40
110.7213363576471
100
AcDbArc
 50
195.7290763943054
 51
199.4296910973949
  0
ARC
  5
2BD
100
AcDbEntity
  8
frame_+1
  6
ByLayer
 62
  256
370
   -1
100
AcDbCircle
 10
505.2683216983971
 20
4.745963955903328
 40
5.238037563925419
100
AcDbArc
 50
348.1445832219605
 51
62.23903540666056
  0
ARC
  5
2BE
100
AcDbEntity
  8
frame_+1
  6
ByLayer
 62
  256
370
   -1
100
AcDbCircle
 10
505.2664009775911
 20
4.736773241436239
 40
5.238037563925419
100
AcDbArc
 50
70.34007906907382
 51
95.69810789151403
  0
ARC
  5
2BF
100
AcDbEntity
  8
frame_+1
  6
ByLayer
 62
  256
370
   -1
100
AcDbCircle
 10
516.1149451352466
 20
34.90624227629839
 40
32.30185628186919
100
AcDbArc
 50
273.212865027539
 51
301.6715368112289
  0
ARC
  5
2C0
100
AcDbEntity
  8
frame_+1
  6
ByLayer
 62
  256
370
   -1
100
AcDbCircle
 10
550.0350548647534
 20
34.90624227629839
 40
32.30185628186919
100
AcDbArc
 50
238.3284631887711
 51
266.787134972461
  0
ARC
  5
2C1
100
AcDbEntity
  8
frame_+1
  6
ByLayer
 62
  256
370
   -1
100
AcDbCircle
 10
516.3881513753819
 20
33.49438574927521
 40
30.42080579675883
100
AcDbArc
 50
258.6372171469158
 51
303.2665025313431
  0
ARC
  5
2C2
100
AcDbEntity
  8
frame_+1
  6
ByLayer
 62
  256
370
   -1
100
AcDbCircle
 10
560.8835990224089
 20
4.736773241436239
 40
4.692037563925418
100
AcDbArc
 50
78.0012497306286
 51
191.8554167780395
  0
ARC
  5
2C3
100
AcDbEntity
  8
frame_+1
  6
ByLayer
 62
  256
370
   -1
100
AcDbCircle
 10
742.9734259638171
 20
46.19999999999998
 40
184.8299076946976
100
AcDbArc
 50
183.387084306429
 51
189.3458999088891
  0
ARC
  5
2C4
100
AcDbEntity
  8
frame_+1
  6
ByLayer
 62
  256
370
   -1
100
AcDbCircle
 10
327.5723134459685
 20
46.20000000000001
 40
237.1706865540316
100
AcDbArc
 50
351.0557551028454
 51
357.3610095069048
  0
ARC
  5
2C5
100
AcDbEntity
  8
frame_+1
  6
ByLayer
 62
  256
370
   -1
100
AcDbCircle
 10
533.075
 20
95.55548418106521
 40
94.67348418106522
100
AcDbArc
 50
255.8046559085282
 51
284.1953440914718
  0
ARC
  5
2C6
100
AcDbEntity
  8
frame_+1
  6
ByLayer
 62
  256
370
   -1
100
AcDbCircle
 10
454.0216636423529
 20
46.20000000000001
 40
111.2673363576471
100
AcDbArc
 50
340.833574740045
 51
348.9895323711679
  0
ARC
  5
2C7
100
AcDbEntity
  8
frame_+1
  6
ByLayer
 62
  256
370
   -1
100
AcDbCircle
 10
327.5723134459685
 20
46.20000000000001
 40
236.6246865540316
100
AcDbArc
 50
351.1875415019445
 51
354.8474450113866
  0
ARC
  5
2C8
100
AcDbEntity
  8
frame_+1
  6
ByLayer
 62
  256
370
   -1
100
AcDbCircle
 10
327.5723134459685
 20
46.20000000000006
 40
236.6246865540316
100
AcDbArc
 50
356.3617027080417
 51
357.2567282001042
  0
ARC
  5
2C9
100
AcDbEntity
  8
frame_+1
  6
ByLayer
 62
  256
370
   -1
100
AcDbCircle
 10
742.9734259638171
 20
46.19999999999998
 40
184.2839076946976
100
AcDbArc
 50
183.5244410214547
 51
188.9748026627799
  0
ARC
  5
2CA
100
AcDbEntity
  8
frame_+1
  6
ByLayer
 62
  256
370
   -1
100
AcDbCircle
 10
561.4461919551758
 20
37.76948426896578
 40
3.811426028950189
100
AcDbArc
 50
230.8862400680547
 51
310.5853819783472
  0
ARC
  5
2CB
100
AcDbEntity
  8
frame_+1
  6
ByLayer
 62
  256
370
   -1
100
AcDbCircle
 10
454.0216636423529
 20
46.20000000000001
 40
110.7213363576471
100
AcDbArc
 50
344.9509667390653
 51
352.2057321838556
  0
ARC
  5
2CC
100
AcDbEntity
  8
frame_+1
  6
ByLayer
 62
  256
370
   -1
100
AcDbCircle
 10
454.0216636423529
 20
46.20000000000001
 40
110.7213363576471
100
AcDbArc
 50
340.5703089026051
 51
344.2709236056946
  0
ARC
  5
2CD
100
AcDbEntity
  8
frame_+1
  6
ByLayer
 62
  256
370
   -1
100
AcDbCircle
 10
560.881678301603
 20
4.745963955903328
 40
5.238037563925419
100
AcDbArc
 50
117.7609645933395
 51
191.8554167780395
  0
ARC
  5
2CE
100
AcDbEntity
  8
frame_+1
  6
ByLayer
 62
  256
370
   -1
100
AcDbCircle
 10
560.8835990224089
 20
4.736773241436239
 40
5.238037563925419
100
AcDbArc
 50
84.30189210848597
 51
109.6599209309262
  0
ARC
  5
2CF
100
AcDbEntity
  8
frame_+1
  6
ByLayer
 62
  256
370
   -1
100
AcDbCircle
 10
533.075
 20
95.55548418106521
 40
94.12748418106521
100
AcDbArc
 50
260.7380466299917
 51
279.2619533700085
  0
ARC
  5
2D0
100
AcDbEntity
  8
frame_+1
  6
ByLayer
 62
  256
370
   -1
100
AcDbCircle
 10
516.1149451352466
 20
34.90624227629839
 40
32.30185628186919
100
AcDbArc
 50
273.212865027539
 51
301.6715368112289
  0
ARC
  5
2D1
100
AcDbEntity
  8
frame_+1
  6
ByLayer
 62
  256
370
   -1
100
AcDbCircle
 10
549.7618486246181
 20
33.49438574927521
 40
30.42080579675883
100
AcDbArc
 50
236.7334974686569
 51
281.3627828530842
  0
ARC
  5
2D2
100
AcDbEntity
  8
frame_+1
  6
ByLayer
 62
  256
370
   -1
100
AcDbCircle
 10
505.2664009775911
 20
87.66322675856377
 40
4.692037563925418
100
AcDbArc
 50
258.0012497306286
 51
11.85541677803952
  0
ARC
  5
2D3
100
AcDbEntity
  8
frame_+1
  6
ByLayer
 62
  256
370
   -1
100
AcDbCircle
 10
323.1765740361827
 20
46.2
 40
184.8299076946976
100
AcDbArc
 50
3.387084306429054
 51
9.345899908889118
  0
ARC
  5
2D4
100
AcDbEntity
  8
frame_+1
  6
ByLayer
 62
  256
370
   -1
100
AcDbCircle
 10
738.5776865540315
 20
46.2
 40
237.1706865540316
100
AcDbArc
 50
171.0557551028454
 51
177.3610095069048
  0
ARC
  5
2D5
100
AcDbEntity
  8
frame_+1
  6
ByLayer
 62
  256
370
   -1
100
AcDbCircle
 10
612.1283363576471
 20
46.2
 40
111.2673363576471
100
AcDbArc
 50
160.8335747400451
 51
168.9895323711679
  0
ARC
  5
2D6
100
AcDbEntity
  8
frame_+1
  6
ByLayer
 62
  256
370
   -1
100
AcDbCircle
 10
738.5776865540315
 20
46.2
 40
236.6246865540316
100
AcDbArc
 50
171.1875415019445
 51
174.8474450113866
  0
ARC
  5
2D7
100
AcDbEntity
  8
frame_+1
  6
ByLayer
 62
  256
370
   -1
100
AcDbCircle
 10
738.5776865540315
 20
46.19999999999994
 40
236.6246865540316
100
AcDbArc
 50
176.3617027080417
 51
177.2567282001042
  0
ARC
  5
2D8
100
AcDbEntity
  8
frame_+1
  6
ByLayer
 62
  256
370
   -1
100
AcDbCircle
 10
323.1765740361827
 20
46.2
 40
184.2839076946976
100
AcDbArc
 50
3.524441021454712
 51
8.97480266277992
  0
ARC
  5
2D9
100
AcDbEntity
  8
frame_+1
  6
ByLayer
 62
  256
370
   -1
100
AcDbCircle
 10
504.671071292346
 20
53.51058650564809
 40
4.155413494351854
100
AcDbArc
 50
59.90344019281673
 51
120.0965598071855
  0
ARC
  5
2DA
100
AcDbEntity
  8
frame_+1
  6
ByLayer
 62
  256
370
   -1
100
AcDbCircle
 10
504.7038080448242
 20
54.63051573103422
 40
3.811426028950189
100
AcDbArc
 50
50.88624006805469
 51
130.5853819783473
  0
ARC
  5
2DB
100
AcDbEntity
  8
frame_+1
  6
ByLayer
 62
  256
370
   -1
100
AcDbCircle
 10
612.1283363576471
 20
46.2
 40
110.7213363576471
100
AcDbArc
 50
164.9509667390654
 51
172.2057321838556
  0
ARC
  5
2DC
100
AcDbEntity
  8
frame_+1
  6
ByLayer
 62
  256
370
   -1
100
AcDbCircle
 10
612.1283363576471
 20
46.2
 40
110.7213363576471
100
AcDbArc
 50
160.5703089026051
 51
164.2709236056946
  0
ARC
  5
2DD
100
AcDbEntity
  8
frame_+1
  6
ByLayer
 62
  256
370
   -1
100
AcDbCircle
 10
505.2683216983971
 20
87.65403604409667
 40
5.238037563925419
100
AcDbArc
 50
297.7609645933395
 51
11.85541677803952
  0
ARC
  5
2DE
100
AcDbEntity
  8
frame_+1
  6
ByLayer
 62
  256
370
   -1
100
AcDbCircle
 10
505.2664009775911
 20
87.66322675856377
 40
5.238037563925419
100
AcDbArc
 50
264.301892108486
 51
289.6599209309261
  0
ARC
  5
2DF
100
AcDbEntity
  8
frame_+1
  6
ByLayer
 62
  256
370
   -1
100
AcDbCircle
 10
516.1149451352466
 20
57.49375772370162
 40
32.30185628186919
100
AcDbArc
 50
58.32846318877115
 51
86.78713497246096
  0
ARC
  5
2E0
100
AcDbEntity
  8
frame_+1
  6
ByLayer
 62
  256
370
   -1
100
AcDbCircle
 10
550.0350548647534
 20
57.49375772370162
 40
32.30185628186919
100
AcDbArc
 50
93.21286502753904
 51
121.6715368112289
  0
ARC
  5
2E1
100
AcDbEntity
  8
frame_+1
  6
ByLayer
 62
  256
370
   -1
100
AcDbCircle
 10
516.3881513753819
 20
58.9056142507248
 40
30.42080579675883
100
AcDbArc
 50
56.73349746865691
 51
101.3627828530842
  0
ARC
  5
2E2
100
AcDbEntity
  8
frame_+1
  6
ByLayer
 62
  256
370
   -1
100
AcDbCircle
 10
560.8835990224089
 20
87.66322675856377
 40
4.692037563925418
100
AcDbArc
 50
168.1445832219605
 51
281.9987502693714
  0
ARC
  5
2E3
100
AcDbEntity
  8
frame_+1
  6
ByLayer
 62
  256
370
   -1
100
AcDbCircle
 10
742.9734259638171
 20
46.20000000000002
 40
184.8299076946976
100
AcDbArc
 50
170.6541000911109
 51
176.612915693571
  0
ARC
  5
2E4
100
AcDbEntity
  8
frame_+1
  6
ByLayer
 62
  256
370
   -1
100
AcDbCircle
 10
327.5723134459685
 20
46.2
 40
237.1706865540316
100
AcDbArc
 50
2.638990493095198
 51
8.944244897154622
  0
ARC
  5
2E5
100
AcDbEntity
  8
frame_+1
  6
ByLayer
 62
  256
370
   -1
100
AcDbCircle
 10
533.075
 20
-3.155484181065205
 40
94.67348418106522
100
AcDbArc
 50
75.80465590852818
 51
104.1953440914718
  0
ARC
  5
2E6
100
AcDbEntity
  8
frame_+1
  6
ByLayer
 62
  256
370
   -1
100
AcDbCircle
 10
454.0216636423529
 20
46.2
 40
111.2673363576471
100
AcDbArc
 50
11.01046762883211
 51
19.16642525995494
  0
ARC
  5
2E7
100
AcDbEntity
  8
frame_+1
  6
ByLayer
 62
  256
370
   -1
100
AcDbCircle
 10
327.5723134459685
 20
46.2
 40
236.6246865540316
100
AcDbArc
 50
5.152554988613397
 51
8.812458498055536
  0
ARC
  5
2E8
100
AcDbEntity
  8
frame_+1
  6
ByLayer
 62
  256
370
   -1
100
AcDbCircle
 10
327.5723134459685
 20
46.19999999999994
 40
236.6246865540316
100
AcDbArc
 50
2.743271799895778
 51
3.638297291958265
  0
ARC
  5
2E9
100
AcDbEntity
  8
frame_+1
  6
ByLayer
 62
  256
370
   -1
100
AcDbCircle
 10
742.9734259638171
 20
46.20000000000002
 40
184.2839076946976
100
AcDbArc
 50
171.0251973372201
 51
176.4755589785453
  0
ARC
  5
2EA
100
AcDbEntity
  8
frame_+1
  6
ByLayer
 62
  256
370
   -1
100
AcDbCircle
 10
561.4461919551758
 20
54.63051573103422
 40
3.811426028950189
100
AcDbArc
 50
49.41461802165273
 51
129.1137599319453
  0
ARC
  5
2EB
100
AcDbEntity
  8
frame_+1
  6
ByLayer
 62
  256
370
   -1
100
AcDbCircle
 10
454.0216636423529
 20
46.2
 40
110.7213363576471
100
AcDbArc
 50
7.794267816144454
 51
15.04903326093464
  0
ARC
  5
2EC
100
AcDbEntity
  8
frame_+1
  6
ByLayer
 62
  256
370
   -1
100
AcDbCircle
 10
454.0216636423529
 20
46.2
 40
110.7213363576471
100
AcDbArc
 50
15.72907639430542
 51
19.42969109739488
  0
ARC
  5
2ED
100
AcDbEntity
  8
frame_+1
  6
ByLayer
 62
  256
370
   -1
100
AcDbCircle
 10
560.881678301603
 20
87.65403604409667
 40
5.238037563925419
100
AcDbArc
 50
168.1445832219605
 51
242.2390354066605
  0
ARC
  5
2EE
100
AcDbEntity
  8
frame_+1
  6
ByLayer
 62
  256
370
   -1
100
AcDbCircle
 10
560.8835990224089
 20
87.66322675856377
 40
5.238037563925419
100
AcDbArc
 50
250.3400790690739
 51
275.698107891514
  0
ARC
  5
2EF
100
AcDbEntity
  8
frame_+1
  6
ByLayer
 62
  256
370
   -1
100
AcDbCircle
 10
533.075
 20
-3.155484181065205
 40
94.12748418106521
100
AcDbArc
 50
80.73804662999153
 51
99.26195337000833
  0
ARC
  5
2F0
100
AcDbEntity
  8
frame_+1
  6
ByLayer
 62
  256
370
   -1
100
AcDbCircle
 10
516.1149451352466
 20
57.49375772370162
 40
32.30185628186919
100
AcDbArc
 50
58.3284631887711
 51
86.78713497246096
  0
ARC
  5
2F1
100
AcDbEntity
  8
frame_+1
  6
ByLayer
 62
  256
370
   -1
100
AcDbCircle
 10
549.7618486246181
 20
58.9056142507248
 40
30.42080579675883
100
AcDbArc
 50
78.63721714691579
 51
123.2665025313431
  0
ARC
  5
2F2
100
AcDbEntity
  8
frame_+1
  6
ByLayer
 62
  256
370
   -1
100
AcDbCircle
 10
509.0224398522819
 20
37.66201711509223
 40
2.732481651284044
100
AcDbArc
 50
148.2726612300674
 51
240.6616249849017
  0
ARC
  5
2F3
100
AcDbEntity
  8
frame_+1
  6
ByLayer
 62
  256
370
   -1
100
AcDbCircle
 10
565.8302972675901
 20
37.66201711509223
 40
3.278481651284045
100
AcDbArc
 50
152.4238872237377
 51
226.2382150173111
  0
ARC
  5
2F4
100
AcDbEntity
  8
frame_+1
  6
ByLayer
 62
  256
370
   -1
100
AcDbCircle
 10
557.1275601477181
 20
37.66201711509223
 40
3.278481651284045
100
AcDbArc
 50
313.7617849826869
 51
27.57611277626064
  0
ARC
  5
2F5
100
AcDbEntity
  8
frame_+1
  6
ByLayer
 62
  256
370
   -1
100
AcDbCircle
 10
561.4789287076539
 20
38.88941349435191
 40
4.155413494351854
100
AcDbArc
 50
239.9034401928167
 51
300.0965598071855
  0
ARC
  5
2F6
100
AcDbEntity
  8
frame_+1
  6
ByLayer
 62
  256
370
   -1
100
AcDbCircle
 10
565.8302972675901
 20
54.73798288490774
 40
3.278481651284045
100
AcDbArc
 50
133.7617849826889
 51
207.5761127762623
  0
ARC
  5
2F7
100
AcDbEntity
  8
frame_+1
  6
ByLayer
 62
  256
370
   -1
100
AcDbCircle
 10
561.4789287076539
 20
53.51058650564809
 40
4.155413494351854
100
AcDbArc
 50
59.90344019281449
 51
120.0965598071833
  0
ARC
  5
2F8
100
AcDbEntity
  8
frame_+1
  6
ByLayer
 62
  256
370
   -1
100
AcDbCircle
 10
565.8302972675901
 20
37.66201711509223
 40
2.732481651284044
100
AcDbArc
 50
148.2726612300676
 51
240.6616249849019
  0
ARC
  5
2F9
100
AcDbEntity
  8
frame_+1
  6
ByLayer
 62
  256
370
   -1
100
AcDbCircle
 10
557.1275601477181
 20
37.66201711509222
 40
2.732481651284044
100
AcDbArc
 50
299.3383750150982
 51
31.72733876993257
  0
ARC
  5
2FA
100
AcDbEntity
  8
frame_+1
  6
ByLayer
 62
  256
370
   -1
100
AcDbCircle
 10
557.1275601477181
 20
54.73798288490774
 40
3.278481651284045
100
AcDbArc
 50
332.4238872237394
 51
46.23821501731312
  0
ARC
  5
2FB
100
AcDbEntity
  8
frame_+1
  6
ByLayer
 62
  256
370
   -1
100
AcDbCircle
 10
565.8302972675901
 20
54.73798288490774
 40
2.732481651284044
100
AcDbArc
 50
119.338375015098
 51
211.7273387699324
  0
ARC
  5
2FC
100
AcDbEntity
  8
frame_+1
  6
ByLayer
 62
  256
370
   -1
100
AcDbCircle
 10
557.1275601477181
 20
54.73798288490776
 40
2.732481651284044
100
AcDbArc
 50
328.2726612300675
 51
60.66162498490176
  0
ARC
  5
2FD
100
AcDbEntity
  8
frame_+1
  6
ByLayer
 62
  256
370
   -1
100
AcDbCircle
 10
500.32
 20
37.662
 40
3.27848
100
AcDbArc
 50
313.762
 51
27.57610000000001
  0
ARC
  5
2FE
100
AcDbEntity
  8
frame_+1
  6
ByLayer
 62
  256
370
   -1
100
AcDbCircle
 10
500.32
 20
37.662
 40
2.73248
100
AcDbArc
 50
299.338
 51
31.7273
  0
ARC
  5
2FF
100
AcDbEntity
  8
frame_+1
  6
ByLayer
 62
  256
370
   -1
100
AcDbCircle
 10
486.8989035833729
 20
46.2
 40
17.77216770897302
100
AcDbArc
 50
336.7330415310196
 51
23.26695846898043
  0
ARC
  5
300
100
AcDbEntity
  8
frame_+1
  6
ByLayer
 62
  256
370
   -1
100
AcDbCircle
 10
500.3197027324098
 20
54.73798288490776
 40
3.278481651284045
100
AcDbArc
 50
332.4238872237377
 51
46.23821501731113
  0
ARC
  5
301
100
AcDbEntity
  8
frame_+1
  6
ByLayer
 62
  256
370
   -1
100
AcDbCircle
 10
509.0224398522819
 20
54.73798288490776
 40
3.278481651284045
100
AcDbArc
 50
133.7617849826869
 51
207.5761127762606
  0
ARC
  5
302
100
AcDbEntity
  8
frame_+1
  6
ByLayer
 62
  256
370
   -1
100
AcDbCircle
 10
500.3197027324098
 20
54.73798288490776
 40
2.732481651284044
100
AcDbArc
 50
328.2726612300676
 51
60.66162498490196
  0
ARC
  5
303
100
AcDbEntity
  8
frame_+1
  6
ByLayer
 62
  256
370
   -1
100
AcDbCircle
 10
509.0224398522819
 20
54.73798288490777
 40
2.732481651284044
100
AcDbArc
 50
119.3383750150982
 51
211.7273387699326
  0
TEXT
  5
304
100
AcDbEntity
  8
frame_+1
  6
ByLayer
 62
  256
370
   -1
100
AcDbText
 10
404.6710712923459
 20
46.2
 30
0
 40
5
  1
+1
 50
90
 41
1
 51
0
  7
italicc
 71
    0
 72
    1
 11
404.6710712923459
 21
46.2
 31
0
210
0
220
0
230
1
100
AcDbText
 73
    2
  0
LINE
  5
305
100
AcDbEntity
  8
frame_+1
  6
ByLayer
 62
    7
370
   -1
100
AcDbLine
 10
466.15
 20
2.625
 11
466.15
 21
89.77500000000001
  0
LINE
  5
306
100
AcDbEntity
  8
frame_+1
  6
ByLayer
 62
    7
370
   -1
100
AcDbLine
 10
402.625
 20
92.40000000000001
 11
463.525
 21
92.40000000000001
  0
ARC
  5
307
100
AcDbEntity
  8
frame_+1
  6
ByLayer
 62
    7
370
   -1
100
AcDbCircle
 10
463.525
 20
89.77500000000001
 40
2.625
100
AcDbArc
 50
0
 51
90
  0
ARC
  5
308
100
AcDbEntity
  8
frame_+1
  6
ByLayer
 62
    7
370
   -1
100
AcDbCircle
 10
402.625
 20
89.77500000000001
 40
2.625
100
AcDbArc
 50
90
 51
180
  0
ARC
  5
309
100
AcDbEntity
  8
frame_+1
  6
ByLayer
 62
    7
370
   -1
100
AcDbCircle
 10
402.625
 20
2.625
 40
2.625
100
AcDbArc
 50
180
 51
270
  0
LINE
  5
30A
100
AcDbEntity
  8
frame_+1
  6
ByLayer
 62
    7
370
   -1
100
AcDbLine
 10
402.625
 20
0
 11
463.525
 21
0
  0
ARC
  5
30B
100
AcDbEntity
  8
frame_+1
  6
ByLayer
 62
    7
370
   -1
100
AcDbCircle
 10
463.525
 20
2.625
 40
2.625
100
AcDbArc
 50
270
 51
0
  0
LINE
  5
30C
100
AcDbEntity
  8
frame_+1
  6
ByLayer
 62
    7
370
   -1
100
AcDbLine
 10
566.15
 20
2.625
 11
566.15
 21
89.77500000000001
  0
LINE
  5
30D
100
AcDbEntity
  8
frame_+1
  6
ByLayer
 62
    7
370
   -1
100
AcDbLine
 10
502.625
 20
92.40000000000001
 11
563.525
 21
92.40000000000001
  0
ARC
  5
30E
100
AcDbEntity
  8
frame_+1
  6
ByLayer
 62
    7
370
   -1
100
AcDbCircle
 10
563.525
 20
89.77500000000001
 40
2.625
100
AcDbArc
 50
0
 51
90
  0
ARC
  5
30F
100
AcDbEntity
  8
frame_+1
  6
ByLayer
 62
    7
370
   -1
100
AcDbCircle
 10
502.625
 20
89.77500000000001
 40
2.625
100
AcDbArc
 50
90
 51
180
  0
ARC
  5
310
100
AcDbEntity
  8
frame_+1
  6
ByLayer
 62
    7
370
   -1
100
AcDbCircle
 10
502.625
 20
2.625
 40
2.625
100
AcDbArc
 50
180
 51
270
  0
LINE
  5
311
100
AcDbEntity
  8
frame_+1
  6
ByLayer
 62
    7
370
   -1
100
AcDbLine
 10
502.625
 20
0
 11
563.525
 21
0
  0
ARC
  5
312
100
AcDbEntity
  8
frame_+1
  6
ByLayer
 62
    7
370
   -1
100
AcDbCircle
 10
563.525
 20
2.625
 40
2.625
100
AcDbArc
 50
270
 51
0
  0
LINE
  5
313
100
AcDbEntity
  8
frame_+1
  6
ByLayer
 62
    7
370
   -1
100
AcDbLine
 10
500
 20
2.625
 11
500
 21
89.77500000000001
  0
LINE
  5
314
100
AcDbEntity
  8
frame_+1
  6
ByLayer
 62
    7
370
   -1
100
AcDbLine
 10
400
 20
2.625
 11
400
 21
89.77500000000001
  0
ARC
  5
315
100
AcDbEntity
  8
card_front
  6
ByLayer
 62
  256
370
   -1
100
AcDbCircle
 10
5.000000000000005
 20
183
 40
2.5
100
AcDbArc
 50
90
 51
180
  0
LINE
  5
316
100
AcDbEntity
  8
card_front
  6
ByLayer
 62
  256
370
   -1
100
AcDbLine
 10
5.000000000000005
 20
185.5
 11
58.00000000000001
 21
185.5
  0
ARC
  5
317
100
AcDbEntity
  8
card_front
  6
ByLayer
 62
  256
370
   -1
100
AcDbCircle
 10
58.00000000000001
 20
183
 40
2.5
100
AcDbArc
 50
0
 51
90
  0
LINE
  5
318
100
AcDbEntity
  8
card_front
  6
ByLayer
 62
  256
370
   -1
100
AcDbLine
 10
60.5
 20
105
 11
60.50000000000001
 21
183
  0
ARC
  5
319
100
AcDbEntity
  8
card_front
  6
ByLayer
 62
  256
370
   -1
100
AcDbCircle
 10
58.00000000000001
 20
105
 40
2.5
100
AcDbArc
 50
270
 51
0
  0
LINE
  5
31A
100
AcDbEntity
  8
card_front
  6
ByLayer
 62
  256
370
   -1
100
AcDbLine
 10
5
 20
102.5
 11
58.00000000000001
 21
102.5
  0
LINE
  5
31B
100
AcDbEntity
  8
card_front
  6
ByLayer
 62
  256
370
   -1
100
AcDbLine
 10
2.5
 20
105
 11
2.500000000000005
 21
183
  0
ARC
  5
31C
100
AcDbEntity
  8
card_front
  6
ByLayer
 62
  256
370
   -1
100
AcDbCircle
 10
5.000000000000001
 20
105
 40
2.5
100
AcDbArc
 50
180
 51
270
  0
ARC
  5
31D
100
AcDbEntity
  8
card_back
  6
ByLayer
 62
  256
370
   -1
100
AcDbCircle
 10
105
 20
105
 40
2.5
100
AcDbArc
 50
180
 51
270
  0
LINE
  5
31E
100
AcDbEntity
  8
card_back
  6
ByLayer
 62
  256
370
   -1
100
AcDbLine
 10
105
 20
102.5
 11
158
 21
102.5
  0
ARC
  5
31F
100
AcDbEntity
  8
card_back
  6
ByLayer
 62
  256
370
   -1
100
AcDbCircle
 10
158
 20
105
 40
2.5
100
AcDbArc
 50
270
 51
0
  0
LINE
  5
320
100
AcDbEntity
  8
card_back
  6
ByLayer
 62
  256
370
   -1
100
AcDbLine
 10
160.5
 20
105
 11
160.5
 21
183
  0
ARC
  5
321
100
AcDbEntity
  8
card_back
  6
ByLayer
 62
  256
370
   -1
100
AcDbCircle
 10
158
 20
183
 40
2.5
100
AcDbArc
 50
0
 51
90
  0
LINE
  5
322
100
AcDbEntity
  8
card_back
  6
ByLayer
 62
  256
370
   -1
100
AcDbLine
 10
105
 20
185.5
 11
158
 21
185.5
  0
LINE
  5
323
100
AcDbEntity
  8
card_back
  6
ByLayer
 62
  256
370
   -1
100
AcDbLine
 10
102.5
 20
105
 11
102.5
 21
183
  0
ARC
  5
324
100
AcDbEntity
  8
card_back
  6
ByLayer
 62
  256
370
   -1
100
AcDbCircle
 10
105
 20
183
 40
2.5
100
AcDbArc
 50
90
 51
180
  0
ARC
  5
325
100
AcDbEntity
  8
card_front
  6
ByLayer
 62
  256
370
   -1
100
AcDbCircle
 10
3.559065934065929
 20
107.5855950066067
 40
1.060711759747206
100
AcDbArc
 50
93.19217746099442
 51
183.1921774609944
  0
ARC
  5
326
100
AcDbEntity
  8
card_front
  6
ByLayer
 62
  256
370
   -1
100
AcDbCircle
 10
3.559065934065929
 20
110.2037268747385
 40
1.060711759747206
100
AcDbArc
 50
176.8078225390056
 51
266.8078225390056
  0
ARC
  5
327
100
AcDbEntity
  8
card_front
  6
ByLayer
 62
  256
370
   -1
100
AcDbCircle
 10
59.44093406593407
 20
107.5855950066067
 40
1.060711759747206
100
AcDbArc
 50
356.8078225390057
 51
86.80782253900558
  0
ARC
  5
328
100
AcDbEntity
  8
card_front
  6
ByLayer
 62
  256
370
   -1
100
AcDbCircle
 10
59.44093406593407
 20
110.2037268747385
 40
1.060711759747206
100
AcDbArc
 50
273.1921774609944
 51
3.192177460994366
  0
LINE
  5
329
100
AcDbEntity
  8
card_front
  6
ByLayer
 62
  256
370
   -1
100
AcDbLine
 10
3.500000000000002
 20
109.1446609406726
 11
59.5
 21
109.1446609406726
  0
LINE
  5
32A
100
AcDbEntity
  8
card_front
  6
ByLayer
 62
  256
370
   -1
100
AcDbLine
 10
3.500000000000002
 20
108.6446609406726
 11
59.5
 21
108.6446609406726
  0
ARC
  5
32B
100
AcDbEntity
  8
card_front
  6
ByLayer
 62
  256
370
   -1
100
AcDbCircle
 10
3.559065934065929
 20
176.8698662540686
 40
1.060711759747206
100
AcDbArc
 50
93.19217746099442
 51
183.1921774609944
  0
ARC
  5
32C
100
AcDbEntity
  8
card_front
  6
ByLayer
 62
  256
370
   -1
100
AcDbCircle
 10
3.559065934065929
 20
179.4879981222004
 40
1.060711759747206
100
AcDbArc
 50
176.8078225390056
 51
266.8078225390056
  0
ARC
  5
32D
100
AcDbEntity
  8
card_front
  6
ByLayer
 62
  256
370
   -1
100
AcDbCircle
 10
59.44093406593407
 20
176.8698662540686
 40
1.060711759747206
100
AcDbArc
 50
356.8078225390057
 51
86.80782253900558
  0
ARC
  5
32E
100
AcDbEntity
  8
card_front
  6
ByLayer
 62
  256
370
   -1
100
AcDbCircle
 10
59.44093406593407
 20
179.4879981222004
 40
1.060711759747206
100
AcDbArc
 50
273.1921774609944
 51
3.192177460994366
  0
LINE
  5
32F
100
AcDbEntity
  8
card_front
  6
ByLayer
 62
  256
370
   -1
100
AcDbLine
 10
3.500000000000002
 20
178.4289321881345
 11
59.5
 21
178.4289321881345
  0
LINE
  5
330
100
AcDbEntity
  8
card_front
  6
ByLayer
 62
  256
370
   -1
100
AcDbLine
 10
3.500000000000002
 20
177.9289321881345
 11
59.5
 21
177.9289321881345
  0
LINE
  5
331
100
AcDbEntity
  8
card_back
  6
ByLayer
 62
  256
370
   -1
100
AcDbLine
 10
113.4230769230769
 20
109.5
 11
149.5769230769231
 21
109.5
  0
LINE
  5
332
100
AcDbEntity
  8
card_back
  6
ByLayer
 62
  256
370
   -1
100
AcDbLine
 10
111.4230769230769
 20
107.5
 11
113.4230769230769
 21
109.5
  0
LINE
  5
333
100
AcDbEntity
  8
card_back
  6
ByLayer
 62
  256
370
   -1
100
AcDbLine
 10
151.5769230769231
 20
107.5
 11
149.5769230769231
 21
109.5
  0
TEXT
  5
334
100
AcDbEntity
  8
card_back
  6
ByLayer
 62
  256
370
   -1
100
AcDbText
 10
131.3013524936602
 20
109
 30
0
 40
1
  1
card infor, print date etc.
 50
0
 41
1
 51
0
  7
italicc
 71
    0
 72
    1
 11
131.3013524936602
 21
109
 31
0
210
0
220
0
230
1
100
AcDbText
 73
    3
  0
LINE
  5
335
100
AcDbEntity
  8
frame_spec
  6
ByLayer
 62
    7
370
   -1
100
AcDbLine
 10
102.625
 20
-7.6
 11
163.525
 21
-7.6
  0
ARC
  5
336
100
AcDbEntity
  8
frame_spec
  6
ByLayer
 62
    7
370
   -1
100
AcDbCircle
 10
222.4432390013202
 20
-53.79999999999998
 40
17.77216770897431
100
AcDbArc
 50
156.7330415310211
 51
203.2669584689789
  0
ARC
  5
337
100
AcDbEntity
  8
frame_spec
  6
ByLayer
 62
    7
370
   -1
100
AcDbCircle
 10
186.8989035833729
 20
-53.8
 40
17.27216770897302
100
AcDbArc
 50
335.7244305951568
 51
24.27556940484321
  0
ARC
  5
338
100
AcDbEntity
  8
frame_spec
  6
ByLayer
 62
    7
370
   -1
100
AcDbCircle
 10
222.4432390013189
 20
-53.80000000000004
 40
17.27216770897302
100
AcDbArc
 50
155.7244305951567
 51
204.2755694048431
  0
ARC
  5
339
100
AcDbEntity
  8
frame_spec
  6
ByLayer
 62
    7
370
   -1
100
AcDbCircle
 10
243.7067609986798
 20
-53.79999999999998
 40
17.77216770897431
100
AcDbArc
 50
336.7330415310211
 51
23.26695846897885
  0
ARC
  5
33A
100
AcDbEntity
  8
frame_spec
  6
ByLayer
 62
    7
370
   -1
100
AcDbCircle
 10
279.2510964166271
 20
-53.8
 40
17.77216770897302
100
AcDbArc
 50
156.7330415310196
 51
203.2669584689804
  0
ARC
  5
33B
100
AcDbEntity
  8
frame_spec
  6
ByLayer
 62
    7
370
   -1
100
AcDbCircle
 10
279.2510964166271
 20
-53.8
 40
17.27216770897302
100
AcDbArc
 50
155.7244305951567
 51
204.2755694048432
  0
ARC
  5
33C
100
AcDbEntity
  8
frame_spec
  6
ByLayer
 62
    7
370
   -1
100
AcDbCircle
 10
243.7067609986811
 20
-53.80000000000005
 40
17.27216770897302
100
AcDbArc
 50
335.7244305951569
 51
24.27556940484327
  0
ARC
  5
33D
100
AcDbEntity
  8
frame_spec
  6
ByLayer
 62
    7
370
   -1
100
AcDbCircle
 10
200.861
 20
-85.741
 40
13.38813822008124
100
AcDbArc
 50
272.3373058591238
 51
309.2072035049678
  0
ARC
  5
33E
100
AcDbEntity
  8
frame_spec
  6
ByLayer
 62
    7
370
   -1
100
AcDbCircle
 10
214.7840000000001
 20
-99.6639999999999
 40
13.38813822008124
100
AcDbArc
 50
140.7927964950327
 51
177.6626941408767
  0
ARC
  5
33F
100
AcDbEntity
  8
frame_spec
  6
ByLayer
 62
    7
370
   -1
100
AcDbCircle
 10
205.2664009775911
 20
-95.26322675856376
 40
4.146037563925417
100
AcDbArc
 50
348.1445832219605
 51
101.9987502693714
  0
ARC
  5
340
100
AcDbEntity
  8
frame_spec
  6
ByLayer
 62
    7
370
   -1
100
AcDbCircle
 10
205.2664009775911
 20
-95.26322675856376
 40
4.692037563925418
100
AcDbArc
 50
348.1445832219605
 51
101.9987502693714
  0
ARC
  5
341
100
AcDbEntity
  8
frame_spec
  6
ByLayer
 62
    7
370
   -1
100
AcDbCircle
 10
23.1765740361827
 20
-53.79999999999999
 40
184.8299076946976
100
AcDbArc
 50
350.6541000911109
 51
356.6129156935709
  0
ARC
  5
342
100
AcDbEntity
  8
frame_spec
  6
ByLayer
 62
    7
370
   -1
100
AcDbCircle
 10
438.5776865540315
 20
-53.79999999999999
 40
237.1706865540316
100
AcDbArc
 50
182.6389904930952
 51
188.9442448971546
  0
ARC
  5
343
100
AcDbEntity
  8
frame_spec
  6
ByLayer
 62
    7
370
   -1
100
AcDbCircle
 10
200.861
 20
-21.85899999999999
 40
13.38813822008124
100
AcDbArc
 50
50.79279649503212
 51
87.66269414087618
  0
ARC
  5
344
100
AcDbEntity
  8
frame_spec
  6
ByLayer
 62
    7
370
   -1
100
AcDbCircle
 10
214.7840000000001
 20
-7.936000000000092
 40
13.38813822008124
100
AcDbArc
 50
182.3373058591233
 51
219.2072035049673
  0
ARC
  5
345
100
AcDbEntity
  8
frame_spec
  6
ByLayer
 62
    7
370
   -1
100
AcDbCircle
 10
205.2664009775911
 20
-12.33677324143623
 40
4.146037563925417
100
AcDbArc
 50
258.0012497306286
 51
11.85541677803947
  0
ARC
  5
346
100
AcDbEntity
  8
frame_spec
  6
ByLayer
 62
    7
370
   -1
100
AcDbCircle
 10
265.289
 20
-85.741
 40
13.38813822008124
100
AcDbArc
 50
230.7927964950322
 51
267.6626941408762
  0
ARC
  5
347
100
AcDbEntity
  8
frame_spec
  6
ByLayer
 62
    7
370
   -1
100
AcDbCircle
 10
251.3659999999999
 20
-99.66399999999992
 40
13.38813822008124
100
AcDbArc
 50
2.33730585912325
 51
39.20720350496727
  0
ARC
  5
348
100
AcDbEntity
  8
frame_spec
  6
ByLayer
 62
    7
370
   -1
100
AcDbCircle
 10
260.8835990224089
 20
-95.26322675856377
 40
4.146037563925417
100
AcDbArc
 50
78.00124973062863
 51
191.8554167780395
  0
ARC
  5
349
100
AcDbEntity
  8
frame_spec
  6
ByLayer
 62
    7
370
   -1
100
AcDbCircle
 10
265.289
 20
-21.85899999999999
 40
13.38813822008124
100
AcDbArc
 50
92.3373058591238
 51
129.2072035049679
  0
ARC
  5
34A
100
AcDbEntity
  8
frame_spec
  6
ByLayer
 62
    7
370
   -1
100
AcDbCircle
 10
251.3659999999999
 20
-7.936000000000092
 40
13.38813822008124
100
AcDbArc
 50
320.7927964950327
 51
357.6626941408767
  0
ARC
  5
34B
100
AcDbEntity
  8
frame_spec
  6
ByLayer
 62
    7
370
   -1
100
AcDbCircle
 10
260.8835990224089
 20
-12.33677324143623
 40
4.146037563925417
100
AcDbArc
 50
168.1445832219605
 51
281.9987502693714
  0
ARC
  5
34C
100
AcDbEntity
  8
frame_spec
  6
ByLayer
 62
    7
370
   -1
100
AcDbCircle
 10
312.1283363576471
 20
-53.8
 40
111.2673363576471
100
AcDbArc
 50
191.0104676288321
 51
199.1664252599549
  0
ARC
  5
34D
100
AcDbEntity
  8
frame_spec
  6
ByLayer
 62
    7
370
   -1
100
AcDbCircle
 10
438.5776865540315
 20
-53.79999999999999
 40
236.6246865540316
100
AcDbArc
 50
185.1525549886134
 51
188.8124584980555
  0
ARC
  5
34E
100
AcDbEntity
  8
frame_spec
  6
ByLayer
 62
    7
370
   -1
100
AcDbCircle
 10
438.5776865540315
 20
-53.79999999999994
 40
236.6246865540316
100
AcDbArc
 50
182.7432717998958
 51
183.6382972919583
  0
ARC
  5
34F
100
AcDbEntity
  8
frame_spec
  6
ByLayer
 62
    7
370
   -1
100
AcDbCircle
 10
23.1765740361827
 20
-53.79999999999999
 40
184.2839076946976
100
AcDbArc
 50
351.0251973372201
 51
356.4755589785453
  0
ARC
  5
350
100
AcDbEntity
  8
frame_spec
  6
ByLayer
 62
    7
370
   -1
100
AcDbCircle
 10
209.0224398522819
 20
-62.33798288490775
 40
3.278481651284045
100
AcDbArc
 50
152.4238872237394
 51
226.2382150173131
  0
ARC
  5
351
100
AcDbEntity
  8
frame_spec
  6
ByLayer
 62
    7
370
   -1
100
AcDbCircle
 10
204.6710712923459
 20
-61.11058650564809
 40
4.155413494351854
100
AcDbArc
 50
239.9034401928145
 51
300.0965598071833
  0
ARC
  5
352
100
AcDbEntity
  8
frame_spec
  6
ByLayer
 62
    7
370
   -1
100
AcDbCircle
 10
204.7038080448242
 20
-62.23051573103422
 40
3.811426028950189
100
AcDbArc
 50
229.4146180216527
 51
309.1137599319453
  0
ARC
  5
353
100
AcDbEntity
  8
frame_spec
  6
ByLayer
 62
    7
370
   -1
100
AcDbCircle
 10
312.1283363576471
 20
-53.8
 40
110.7213363576471
100
AcDbArc
 50
187.7942678161444
 51
195.0490332609346
  0
ARC
  5
354
100
AcDbEntity
  8
frame_spec
  6
ByLayer
 62
    7
370
   -1
100
AcDbCircle
 10
312.1283363576471
 20
-53.8
 40
110.7213363576471
100
AcDbArc
 50
195.7290763943054
 51
199.4296910973949
  0
ARC
  5
355
100
AcDbEntity
  8
frame_spec
  6
ByLayer
 62
    7
370
   -1
100
AcDbCircle
 10
205.2683216983971
 20
-95.25403604409667
 40
5.238037563925419
100
AcDbArc
 50
348.1445832219605
 51
62.23903540666056
  0
ARC
  5
356
100
AcDbEntity
  8
frame_spec
  6
ByLayer
 62
    7
370
   -1
100
AcDbCircle
 10
205.2664009775911
 20
-95.26322675856376
 40
5.238037563925419
100
AcDbArc
 50
70.34007906907382
 51
95.69810789151403
  0
ARC
  5
357
100
AcDbEntity
  8
frame_spec
  6
ByLayer
 62
    7
370
   -1
100
AcDbCircle
 10
216.1149451352466
 20
-65.0937577237016
 40
32.30185628186919
100
AcDbArc
 50
273.212865027539
 51
301.6715368112289
  0
ARC
  5
358
100
AcDbEntity
  8
frame_spec
  6
ByLayer
 62
    7
370
   -1
100
AcDbCircle
 10
250.0350548647534
 20
-65.0937577237016
 40
32.30185628186919
100
AcDbArc
 50
238.3284631887711
 51
266.787134972461
  0
ARC
  5
359
100
AcDbEntity
  8
frame_spec
  6
ByLayer
 62
    7
370
   -1
100
AcDbCircle
 10
216.3881513753819
 20
-66.50561425072479
 40
30.42080579675883
100
AcDbArc
 50
258.6372171469158
 51
303.2665025313431
  0
ARC
  5
35A
100
AcDbEntity
  8
frame_spec
  6
ByLayer
 62
    7
370
   -1
100
AcDbCircle
 10
260.8835990224089
 20
-95.26322675856376
 40
4.692037563925418
100
AcDbArc
 50
78.0012497306286
 51
191.8554167780395
  0
ARC
  5
35B
100
AcDbEntity
  8
frame_spec
  6
ByLayer
 62
    7
370
   -1
100
AcDbCircle
 10
442.9734259638171
 20
-53.80000000000002
 40
184.8299076946976
100
AcDbArc
 50
183.387084306429
 51
189.3458999088891
  0
ARC
  5
35C
100
AcDbEntity
  8
frame_spec
  6
ByLayer
 62
    7
370
   -1
100
AcDbCircle
 10
27.57231344596843
 20
-53.79999999999999
 40
237.1706865540316
100
AcDbArc
 50
351.0557551028454
 51
357.3610095069048
  0
ARC
  5
35D
100
AcDbEntity
  8
frame_spec
  6
ByLayer
 62
    7
370
   -1
100
AcDbCircle
 10
233.075
 20
-4.444515818934789
 40
94.67348418106522
100
AcDbArc
 50
255.8046559085282
 51
284.1953440914718
  0
ARC
  5
35E
100
AcDbEntity
  8
frame_spec
  6
ByLayer
 62
    7
370
   -1
100
AcDbCircle
 10
154.0216636423529
 20
-53.79999999999999
 40
111.2673363576471
100
AcDbArc
 50
340.833574740045
 51
348.9895323711679
  0
ARC
  5
35F
100
AcDbEntity
  8
frame_spec
  6
ByLayer
 62
    7
370
   -1
100
AcDbCircle
 10
27.57231344596843
 20
-53.79999999999999
 40
236.6246865540316
100
AcDbArc
 50
351.1875415019445
 51
354.8474450113866
  0
ARC
  5
360
100
AcDbEntity
  8
frame_spec
  6
ByLayer
 62
    7
370
   -1
100
AcDbCircle
 10
27.57231344596843
 20
-53.79999999999994
 40
236.6246865540316
100
AcDbArc
 50
356.3617027080417
 51
357.2567282001042
  0
ARC
  5
361
100
AcDbEntity
  8
frame_spec
  6
ByLayer
 62
    7
370
   -1
100
AcDbCircle
 10
442.9734259638171
 20
-53.80000000000002
 40
184.2839076946976
100
AcDbArc
 50
183.5244410214547
 51
188.9748026627799
  0
ARC
  5
362
100
AcDbEntity
  8
frame_spec
  6
ByLayer
 62
    7
370
   -1
100
AcDbCircle
 10
261.4461919551758
 20
-62.23051573103422
 40
3.811426028950189
100
AcDbArc
 50
230.8862400680547
 51
310.5853819783472
  0
ARC
  5
363
100
AcDbEntity
  8
frame_spec
  6
ByLayer
 62
    7
370
   -1
100
AcDbCircle
 10
154.0216636423529
 20
-53.79999999999999
 40
110.7213363576471
100
AcDbArc
 50
344.9509667390653
 51
352.2057321838556
  0
ARC
  5
364
100
AcDbEntity
  8
frame_spec
  6
ByLayer
 62
    7
370
   -1
100
AcDbCircle
 10
154.0216636423529
 20
-53.79999999999999
 40
110.7213363576471
100
AcDbArc
 50
340.5703089026051
 51
344.2709236056946
  0
ARC
  5
365
100
AcDbEntity
  8
frame_spec
  6
ByLayer
 62
    7
370
   -1
100
AcDbCircle
 10
260.8816783016029
 20
-95.25403604409667
 40
5.238037563925419
100
AcDbArc
 50
117.7609645933395
 51
191.8554167780395
  0
ARC
  5
366
100
AcDbEntity
  8
frame_spec
  6
ByLayer
 62
    7
370
   -1
100
AcDbCircle
 10
260.8835990224089
 20
-95.26322675856376
 40
5.238037563925419
100
AcDbArc
 50
84.30189210848597
 51
109.6599209309262
  0
ARC
  5
367
100
AcDbEntity
  8
frame_spec
  6
ByLayer
 62
    7
370
   -1
100
AcDbCircle
 10
233.075
 20
-4.444515818934789
 40
94.12748418106521
100
AcDbArc
 50
260.7380466299917
 51
279.2619533700085
  0
ARC
  5
368
100
AcDbEntity
  8
frame_spec
  6
ByLayer
 62
    7
370
   -1
100
AcDbCircle
 10
216.1149451352466
 20
-65.0937577237016
 40
32.30185628186919
100
AcDbArc
 50
273.212865027539
 51
301.6715368112289
  0
ARC
  5
369
100
AcDbEntity
  8
frame_spec
  6
ByLayer
 62
    7
370
   -1
100
AcDbCircle
 10
249.7618486246181
 20
-66.50561425072479
 40
30.42080579675883
100
AcDbArc
 50
236.7334974686569
 51
281.3627828530842
  0
ARC
  5
36A
100
AcDbEntity
  8
frame_spec
  6
ByLayer
 62
    7
370
   -1
100
AcDbCircle
 10
205.2664009775911
 20
-12.33677324143623
 40
4.692037563925418
100
AcDbArc
 50
258.0012497306286
 51
11.85541677803952
  0
ARC
  5
36B
100
AcDbEntity
  8
frame_spec
  6
ByLayer
 62
    7
370
   -1
100
AcDbCircle
 10
23.1765740361827
 20
-53.8
 40
184.8299076946976
100
AcDbArc
 50
3.387084306429054
 51
9.345899908889118
  0
ARC
  5
36C
100
AcDbEntity
  8
frame_spec
  6
ByLayer
 62
    7
370
   -1
100
AcDbCircle
 10
438.5776865540315
 20
-53.8
 40
237.1706865540316
100
AcDbArc
 50
171.0557551028454
 51
177.3610095069048
  0
ARC
  5
36D
100
AcDbEntity
  8
frame_spec
  6
ByLayer
 62
    7
370
   -1
100
AcDbCircle
 10
312.1283363576471
 20
-53.8
 40
111.2673363576471
100
AcDbArc
 50
160.8335747400451
 51
168.9895323711679
  0
ARC
  5
36E
100
AcDbEntity
  8
frame_spec
  6
ByLayer
 62
    7
370
   -1
100
AcDbCircle
 10
438.5776865540315
 20
-53.8
 40
236.6246865540316
100
AcDbArc
 50
171.1875415019445
 51
174.8474450113866
  0
ARC
  5
36F
100
AcDbEntity
  8
frame_spec
  6
ByLayer
 62
    7
370
   -1
100
AcDbCircle
 10
438.5776865540315
 20
-53.80000000000006
 40
236.6246865540316
100
AcDbArc
 50
176.3617027080417
 51
177.2567282001042
  0
ARC
  5
370
100
AcDbEntity
  8
frame_spec
  6
ByLayer
 62
    7
370
   -1
100
AcDbCircle
 10
23.1765740361827
 20
-53.8
 40
184.2839076946976
100
AcDbArc
 50
3.524441021454712
 51
8.97480266277992
  0
ARC
  5
371
100
AcDbEntity
  8
frame_spec
  6
ByLayer
 62
    7
370
   -1
100
AcDbCircle
 10
204.671071292346
 20
-46.48941349435191
 40
4.155413494351854
100
AcDbArc
 50
59.90344019281673
 51
120.0965598071855
  0
ARC
  5
372
100
AcDbEntity
  8
frame_spec
  6
ByLayer
 62
    7
370
   -1
100
AcDbCircle
 10
204.7038080448242
 20
-45.36948426896578
 40
3.811426028950189
100
AcDbArc
 50
50.88624006805469
 51
130.5853819783473
  0
ARC
  5
373
100
AcDbEntity
  8
frame_spec
  6
ByLayer
 62
    7
370
   -1
100
AcDbCircle
 10
312.1283363576471
 20
-53.8
 40
110.7213363576471
100
AcDbArc
 50
164.9509667390654
 51
172.2057321838556
  0
ARC
  5
374
100
AcDbEntity
  8
frame_spec
  6
ByLayer
 62
    7
370
   -1
100
AcDbCircle
 10
312.1283363576471
 20
-53.8
 40
110.7213363576471
100
AcDbArc
 50
160.5703089026051
 51
164.2709236056946
  0
ARC
  5
375
100
AcDbEntity
  8
frame_spec
  6
ByLayer
 62
    7
370
   -1
100
AcDbCircle
 10
205.2683216983971
 20
-12.34596395590333
 40
5.238037563925419
100
AcDbArc
 50
297.7609645933395
 51
11.85541677803952
  0
ARC
  5
376
100
AcDbEntity
  8
frame_spec
  6
ByLayer
 62
    7
370
   -1
100
AcDbCircle
 10
205.2664009775911
 20
-12.33677324143623
 40
5.238037563925419
100
AcDbArc
 50
264.301892108486
 51
289.6599209309261
  0
ARC
  5
377
100
AcDbEntity
  8
frame_spec
  6
ByLayer
 62
    7
370
   -1
100
AcDbCircle
 10
216.1149451352466
 20
-42.50624227629838
 40
32.30185628186919
100
AcDbArc
 50
58.32846318877115
 51
86.78713497246096
  0
ARC
  5
378
100
AcDbEntity
  8
frame_spec
  6
ByLayer
 62
    7
370
   -1
100
AcDbCircle
 10
250.0350548647534
 20
-42.50624227629838
 40
32.30185628186919
100
AcDbArc
 50
93.21286502753904
 51
121.6715368112289
  0
ARC
  5
379
100
AcDbEntity
  8
frame_spec
  6
ByLayer
 62
    7
370
   -1
100
AcDbCircle
 10
216.3881513753819
 20
-41.0943857492752
 40
30.42080579675883
100
AcDbArc
 50
56.73349746865691
 51
101.3627828530842
  0
ARC
  5
37A
100
AcDbEntity
  8
frame_spec
  6
ByLayer
 62
    7
370
   -1
100
AcDbCircle
 10
260.8835990224089
 20
-12.33677324143623
 40
4.692037563925418
100
AcDbArc
 50
168.1445832219605
 51
281.9987502693714
  0
ARC
  5
37B
100
AcDbEntity
  8
frame_spec
  6
ByLayer
 62
    7
370
   -1
100
AcDbCircle
 10
442.9734259638171
 20
-53.79999999999998
 40
184.8299076946976
100
AcDbArc
 50
170.6541000911109
 51
176.612915693571
  0
ARC
  5
37C
100
AcDbEntity
  8
frame_spec
  6
ByLayer
 62
    7
370
   -1
100
AcDbCircle
 10
27.57231344596843
 20
-53.8
 40
237.1706865540316
100
AcDbArc
 50
2.638990493095198
 51
8.944244897154622
  0
ARC
  5
37D
100
AcDbEntity
  8
frame_spec
  6
ByLayer
 62
    7
370
   -1
100
AcDbCircle
 10
233.075
 20
-103.1554841810652
 40
94.67348418106522
100
AcDbArc
 50
75.80465590852818
 51
104.1953440914718
  0
ARC
  5
37E
100
AcDbEntity
  8
frame_spec
  6
ByLayer
 62
    7
370
   -1
100
AcDbCircle
 10
154.0216636423529
 20
-53.8
 40
111.2673363576471
100
AcDbArc
 50
11.01046762883211
 51
19.16642525995494
  0
ARC
  5
37F
100
AcDbEntity
  8
frame_spec
  6
ByLayer
 62
    7
370
   -1
100
AcDbCircle
 10
27.57231344596843
 20
-53.8
 40
236.6246865540316
100
AcDbArc
 50
5.152554988613397
 51
8.812458498055536
  0
ARC
  5
380
100
AcDbEntity
  8
frame_spec
  6
ByLayer
 62
    7
370
   -1
100
AcDbCircle
 10
27.57231344596843
 20
-53.80000000000006
 40
236.6246865540316
100
AcDbArc
 50
2.743271799895778
 51
3.638297291958265
  0
ARC
  5
381
100
AcDbEntity
  8
frame_spec
  6
ByLayer
 62
    7
370
   -1
100
AcDbCircle
 10
442.9734259638171
 20
-53.79999999999998
 40
184.2839076946976
100
AcDbArc
 50
171.0251973372201
 51
176.4755589785453
  0
ARC
  5
382
100
AcDbEntity
  8
frame_spec
  6
ByLayer
 62
    7
370
   -1
100
AcDbCircle
 10
261.4461919551758
 20
-45.36948426896578
 40
3.811426028950189
100
AcDbArc
 50
49.41461802165273
 51
129.1137599319453
  0
ARC
  5
383
100
AcDbEntity
  8
frame_spec
  6
ByLayer
 62
    7
370
   -1
100
AcDbCircle
 10
154.0216636423529
 20
-53.8
 40
110.7213363576471
100
AcDbArc
 50
7.794267816144454
 51
15.04903326093464
  0
ARC
  5
384
100
AcDbEntity
  8
frame_spec
  6
ByLayer
 62
    7
370
   -1
100
AcDbCircle
 10
154.0216636423529
 20
-53.8
 40
110.7213363576471
100
AcDbArc
 50
15.72907639430542
 51
19.42969109739488
  0
ARC
  5
385
100
AcDbEntity
  8
frame_spec
  6
ByLayer
 62
    7
370
   -1
100
AcDbCircle
 10
260.8816783016029
 20
-12.34596395590333
 40
5.238037563925419
100
AcDbArc
 50
168.1445832219605
 51
242.2390354066605
  0
ARC
  5
386
100
AcDbEntity
  8
frame_spec
  6
ByLayer
 62
    7
370
   -1
100
AcDbCircle
 10
260.8835990224089
 20
-12.33677324143623
 40
5.238037563925419
100
AcDbArc
 50
250.3400790690739
 51
275.698107891514
  0
ARC
  5
387
100
AcDbEntity
  8
frame_spec
  6
ByLayer
 62
    7
370
   -1
100
AcDbCircle
 10
233.075
 20
-103.1554841810652
 40
94.12748418106521
100
AcDbArc
 50
80.73804662999153
 51
99.26195337000833
  0
ARC
  5
388
100
AcDbEntity
  8
frame_spec
  6
ByLayer
 62
    7
370
   -1
100
AcDbCircle
 10
216.1149451352466
 20
-42.50624227629838
 40
32.30185628186919
100
AcDbArc
 50
58.3284631887711
 51
86.78713497246096
  0
ARC
  5
389
100
AcDbEntity
  8
frame_spec
  6
ByLayer
 62
    7
370
   -1
100
AcDbCircle
 10
249.7618486246181
 20
-41.0943857492752
 40
30.42080579675883
100
AcDbArc
 50
78.63721714691579
 51
123.2665025313431
  0
ARC
  5
38A
100
AcDbEntity
  8
frame_spec
  6
ByLayer
 62
    7
370
   -1
100
AcDbCircle
 10
209.0224398522819
 20
-62.33798288490777
 40
2.732481651284044
100
AcDbArc
 50
148.2726612300674
 51
240.6616249849017
  0
ARC
  5
38B
100
AcDbEntity
  8
frame_spec
  6
ByLayer
 62
    7
370
   -1
100
AcDbCircle
 10
265.8302972675901
 20
-62.33798288490777
 40
3.278481651284045
100
AcDbArc
 50
152.4238872237377
 51
226.2382150173111
  0
ARC
  5
38C
100
AcDbEntity
  8
frame_spec
  6
ByLayer
 62
    7
370
   -1
100
AcDbCircle
 10
257.1275601477181
 20
-62.33798288490777
 40
3.278481651284045
100
AcDbArc
 50
313.7617849826869
 51
27.57611277626064
  0
ARC
  5
38D
100
AcDbEntity
  8
frame_spec
  6
ByLayer
 62
    7
370
   -1
100
AcDbCircle
 10
261.478928707654
 20
-61.11058650564809
 40
4.155413494351854
100
AcDbArc
 50
239.9034401928167
 51
300.0965598071855
  0
ARC
  5
38E
100
AcDbEntity
  8
frame_spec
  6
ByLayer
 62
    7
370
   -1
100
AcDbCircle
 10
265.8302972675901
 20
-45.26201711509226
 40
3.278481651284045
100
AcDbArc
 50
133.7617849826889
 51
207.5761127762623
  0
ARC
  5
38F
100
AcDbEntity
  8
frame_spec
  6
ByLayer
 62
    7
370
   -1
100
AcDbCircle
 10
261.478928707654
 20
-46.48941349435191
 40
4.155413494351854
100
AcDbArc
 50
59.90344019281449
 51
120.0965598071833
  0
ARC
  5
390
100
AcDbEntity
  8
frame_spec
  6
ByLayer
 62
    7
370
   -1
100
AcDbCircle
 10
265.8302972675901
 20
-62.33798288490777
 40
2.732481651284044
100
AcDbArc
 50
148.2726612300676
 51
240.6616249849019
  0
ARC
  5
391
100
AcDbEntity
  8
frame_spec
  6
ByLayer
 62
    7
370
   -1
100
AcDbCircle
 10
257.1275601477181
 20
-62.33798288490778
 40
2.732481651284044
100
AcDbArc
 50
299.3383750150982
 51
31.72733876993257
  0
ARC
  5
392
100
AcDbEntity
  8
frame_spec
  6
ByLayer
 62
    7
370
   -1
100
AcDbCircle
 10
257.1275601477181
 20
-45.26201711509226
 40
3.278481651284045
100
AcDbArc
 50
332.4238872237394
 51
46.23821501731312
  0
ARC
  5
393
100
AcDbEntity
  8
frame_spec
  6
ByLayer
 62
    7
370
   -1
100
AcDbCircle
 10
265.8302972675901
 20
-45.26201711509226
 40
2.732481651284044
100
AcDbArc
 50
119.338375015098
 51
211.7273387699324
  0
ARC
  5
394
100
AcDbEntity
  8
frame_spec
  6
ByLayer
 62
    7
370
   -1
100
AcDbCircle
 10
257.1275601477181
 20
-45.26201711509224
 40
2.732481651284044
100
AcDbArc
 50
328.2726612300675
 51
60.66162498490176
  0
ARC
  5
395
100
AcDbEntity
  8
frame_spec
  6
ByLayer
 62
    7
370
   -1
100
AcDbCircle
 10
200.32
 20
-62.338
 40
3.27848
100
AcDbArc
 50
313.762
 51
27.57610000000001
  0
ARC
  5
396
100
AcDbEntity
  8
frame_spec
  6
ByLayer
 62
    7
370
   -1
100
AcDbCircle
 10
200.32
 20
-62.338
 40
2.73248
100
AcDbArc
 50
299.338
 51
31.7273
  0
ARC
  5
397
100
AcDbEntity
  8
frame_spec
  6
ByLayer
 62
    7
370
   -1
100
AcDbCircle
 10
186.8989035833729
 20
-53.8
 40
17.77216770897302
100
AcDbArc
 50
336.7330415310196
 51
23.26695846898043
  0
ARC
  5
398
100
AcDbEntity
  8
frame_spec
  6
ByLayer
 62
    7
370
   -1
100
AcDbCircle
 10
200.3197027324098
 20
-45.26201711509224
 40
3.278481651284045
100
AcDbArc
 50
332.4238872237377
 51
46.23821501731113
  0
ARC
  5
399
100
AcDbEntity
  8
frame_spec
  6
ByLayer
 62
    7
370
   -1
100
AcDbCircle
 10
209.0224398522819
 20
-45.26201711509224
 40
3.278481651284045
100
AcDbArc
 50
133.7617849826869
 51
207.5761127762606
  0
ARC
  5
39A
100
AcDbEntity
  8
frame_spec
  6
ByLayer
 62
    7
370
   -1
100
AcDbCircle
 10
200.3197027324098
 20
-45.26201711509224
 40
2.732481651284044
100
AcDbArc
 50
328.2726612300676
 51
60.66162498490196
  0
ARC
  5
39B
100
AcDbEntity
  8
frame_spec
  6
ByLayer
 62
    7
370
   -1
100
AcDbCircle
 10
209.0224398522819
 20
-45.26201711509223
 40
2.732481651284044
100
AcDbArc
 50
119.3383750150982
 51
211.7273387699326
  0
ARC
  5
39C
100
AcDbEntity
  8
frame_spec
  6
ByLayer
 62
    7
370
   -1
100
AcDbCircle
 10
163.525
 20
-10.22499999999999
 40
2.625
100
AcDbArc
 50
0
 51
90
  0
ARC
  5
39D
100
AcDbEntity
  8
frame_spec
  6
ByLayer
 62
    7
370
   -1
100
AcDbCircle
 10
102.625
 20
-10.22499999999999
 40
2.625
100
AcDbArc
 50
90
 51
180
  0
LINE
  5
39E
100
AcDbEntity
  8
frame_spec
  6
ByLayer
 62
    7
370
   -1
100
AcDbLine
 10
100
 20
-97.375
 11
100
 21
-10.22499999999999
  0
ARC
  5
39F
100
AcDbEntity
  8
frame_spec
  6
ByLayer
 62
    7
370
   -1
100
AcDbCircle
 10
102.625
 20
-97.375
 40
2.625
100
AcDbArc
 50
180
 51
270
  0
LINE
  5
3A0
100
AcDbEntity
  8
frame_spec
  6
ByLayer
 62
    7
370
   -1
100
AcDbLine
 10
102.625
 20
-100
 11
163.525
 21
-100
  0
ARC
  5
3A1
100
AcDbEntity
  8
frame_spec
  6
ByLayer
 62
    7
370
   -1
100
AcDbCircle
 10
163.525
 20
-97.375
 40
2.625
100
AcDbArc
 50
270
 51
0
  0
LINE
  5
3A2
100
AcDbEntity
  8
frame_spec
  6
ByLayer
 62
    7
370
   -1
100
AcDbLine
 10
266.15
 20
-97.375
 11
266.15
 21
-10.22499999999999
  0
LINE
  5
3A3
100
AcDbEntity
  8
frame_spec
  6
ByLayer
 62
    7
370
   -1
100
AcDbLine
 10
202.625
 20
-7.599999999999994
 11
263.525
 21
-7.599999999999994
  0
ARC
  5
3A4
100
AcDbEntity
  8
frame_spec
  6
ByLayer
 62
    7
370
   -1
100
AcDbCircle
 10
263.525
 20
-10.22499999999999
 40
2.625
100
AcDbArc
 50
0
 51
90
  0
ARC
  5
3A5
100
AcDbEntity
  8
frame_spec
  6
ByLayer
 62
    7
370
   -1
100
AcDbCircle
 10
202.625
 20
-10.22499999999999
 40
2.625
100
AcDbArc
 50
90
 51
180
  0
ARC
  5
3A6
100
AcDbEntity
  8
frame_spec
  6
ByLayer
 62
    7
370
   -1
100
AcDbCircle
 10
202.625
 20
-97.375
 40
2.625
100
AcDbArc
 50
180
 51
270
  0
LINE
  5
3A7
100
AcDbEntity
  8
frame_spec
  6
ByLayer
 62
    7
370
   -1
100
AcDbLine
 10
202.625
 20
-100
 11
263.525
 21
-100
  0
ARC
  5
3A8
100
AcDbEntity
  8
frame_spec
  6
ByLayer
 62
    7
370
   -1
100
AcDbCircle
 10
263.525
 20
-97.375
 40
2.625
100
AcDbArc
 50
270
 51
0
  0
LINE
  5
3A9
100
AcDbEntity
  8
frame_spec
  6
ByLayer
 62
    7
370
   -1
100
AcDbLine
 10
200
 20
-97.375
 11
200
 21
-10.22499999999999
  0
LINE
  5
3AA
100
AcDbEntity
  8
frame_spec
  6
ByLayer
 62
    7
370
   -1
100
AcDbLine
 10
166.15
 20
-97.375
 11
166.15
 21
-10.22499999999999
  0
ENDSEC
  0
SECTION
  2
OBJECTS
  0
DICTIONARY
  5
C
330
0
100
AcDbDictionary
281
    1
  3
ACAD_GROUP
350
D
  0
DICTIONARY
  5
D
330
C
100
AcDbDictionary
281
    1
  0
PLOTSETTINGS
  5
3AB
100
AcDbPlotSettings
  6
1x1
 40
0
 41
0
 42
0
 43
0
  0
ENDSEC
  0
EOF
